<svg xmlns="http://www.w3.org/2000/svg" xmlns:xlink="http://www.w3.org/1999/xlink" width="16" height="19">
  <path type="MSShapeGroup" fill="#000000" d="M16,15L12.5,15L12.5,18.5C12.5,18.8,12.3,19,12,19L11,19C10.7,19,10.5,18.8,10.5,18.5L10.5,15L7,15C6.7,15,6.5,14.8,6.5,14.5L6.5,13.5C6.5,13.2,6.7,13,7,13L10.5,13L10.5,9.5C10.5,9.2,10.7,9,11,9L12,9C12.3,9,12.5,9.2,12.5,9.5L12.5,13L16,13C16.3,13,16.5,13.2,16.5,13.5L16.5,14.5C16.5,14.8,16.3,15,16,15ZM6,6C4.35,6,3,4.65,3,3C3,1.35,4.35,0,6,0C7.65,0,9,1.35,9,3C9,4.65,7.65,6,6,6ZM6.361,8C7.211,8,7.961,8.1,8.66,8.3C8.56,8.55,8.51,8.8,8.51,9.05L8.51,11.05L6.51,11.05C5.41,11.05,4.51,11.95,4.51,13.05L4.51,15.5C1.31,15.1,0.11,13.05,0.01,12.05C-0.04,10.95,0.06,10.3,1.01,9.55C2.41,8.4,3.86,8,5.61,8L6.36,8Z"/>

</svg>

