<svg xmlns="http://www.w3.org/2000/svg" width="33" height="20"><path id="Shape" fill="#4b85bf" d="M31 0h-29c-1.105 0-2 .896-2 2v16c0 1.105.896 2 2 2h29c1.105 0 2-.896 2-2v-16c0-1.105-.896-2-2-2z"/><path fill="#e5f2ff" d="M28.049 10.479c-.149-.165-.149-.348.019-.513l2.396-2.652c.223-.238.047-.814-.288-.814h-3.151c-.205 0-.336.055-.466.202l-.615.66c-.167.183-.354.183-.521 0l-.559-.642c-.131-.147-.261-.22-.466-.22h-9.09c-.205 0-.335.091-.428.275l-.466 1.082c-.131.312-.373.312-.503.018l-.485-1.1c-.093-.183-.223-.275-.428-.275h-3.279c-.242 0-.372.129-.372.367 0 .184-.131.239-.205.074l-.093-.165c-.093-.202-.224-.275-.429-.275h-2.757c-.205 0-.354.091-.428.275l-2.782 6.537c-.112.257.172.675.452.675l2.777-.005c.223 0 .354-.074.428-.275l.261-.624c.093-.202.223-.293.428-.293h.503c.205 0 .336.091.429.293l.261.624c.074.201.205.275.428.275h3.651c.242 0 .373-.129.373-.367 0-.184.13-.22.186-.074l.074.165c.093.202.224.294.429.294h1.639c.205 0 .354-.092.428-.294.093-.201.261-.33.261-.183v.11c0 .238.13.348.372.367h8.252c.187 0 .317-.055.447-.202l.652-.678c.168-.184.354-.184.522 0l.596.678c.13.147.261.202.447.202h3.228c.336 0 .501-.502.277-.74l-2.405-2.781z"/><path fill="#377bbe" d="M28.995 7.502h-1.707l-1.64 1.801-1.586-1.801h-5.186v5.496h5.107l1.65-1.82 1.588 1.82h1.666l-2.424-2.739 2.532-2.757zm-5.665 4.35h-3.17v-1.093h2.831v-1.121h-2.831v-.999h3.233l1.41 1.601-1.473 1.612zm-9.115-.631l-1.687-3.727h-2.104v5.202l-2.193-5.202h-1.915l-2.309 5.495h1.4l.501-1.226h2.684l.496 1.226h2.622v-4.307l1.875 4.307h1.132l1.869-4.304.005 4.304h1.322v-5.495h-2.147l-1.551 3.727zm-7.849-.603l.878-2.191.882 2.191h-1.76z"/></svg>