<?xml version="1.0" encoding="UTF-8" standalone="no"?>
<svg width="13px" height="13px" viewBox="0 0 13 13" version="1.1" xmlns="http://www.w3.org/2000/svg" xmlns:xlink="http://www.w3.org/1999/xlink" xmlns:sketch="http://www.bohemiancoding.com/sketch/ns">
    <title>Slice 1</title>
    <description>Created with Sketch (http://www.bohemiancoding.com/sketch)</description>
    <defs></defs>
                <path transform="translate(2.000000, 0.000000)" d="M3.25,5 L5.751,2.1035008 C6.0765,1.7580008 6.0765,1.1970008 5.751,0.8510008 L5.365,0.4595008 C5.0395,0.1135008 4.512,0.1135008 4.1865,0.4595008 L-0.25,5.3325008 C-0.25,5.3325008 -0.5,5.5195008 -0.5,5.9500008 L-0.5,6.4500008 C-0.5,6.8770008 -0.25,7.1080008 -0.25,7.1080008 L4.1865,11.9850008 C4.512,12.3310008 5.0395,12.3310008 5.365,11.9850008 L5.751,11.5930008 C6.0765,11.2475008 6.0765,10.6865008 5.751,10.3410008 L3.25,7.4500008 L10.75,7.4500008 C11.1645,7.4500008 11.4995,7.1145008 11.4995,6.7000008 L11.4995,5.7000008 C11.4995,5.2860008 11.164,5 10.75,5 L3.25,5 L3.25,5 Z" id="back"></path>
</svg>
