<svg xmlns="http://www.w3.org/2000/svg" width="87" height="87"><path fill="#ec3622" d="M52.65 1.7c-21.7-6.45-44.55 6-50.95 27.65-6.4 21.65 6 44.55 27.65 50.95 21.65 6.4 44.55-6 50.95-27.65 6.45-21.7-6-44.55-27.65-50.95z"/><path fill="#fff" d="M48.95 42.1c-.75-.75-.75-1.95 0-2.7l7.65-7.65c.75-.75.75-1.95 0-2.7l-4-4.05c-.35-.35-.8-.55-1.35-.55-.5 0-.95.2-1.35.55l-7.6 7.7c-.35.35-.8.55-1.35.55s-.95-.2-1.35-.55l-7.65-7.65c-.35-.35-.8-.55-1.35-.55-.5 0-.95.2-1.35.55l-4 4.05c-.75.75-.75 1.95 0 2.7l7.65 7.65c.75.75.75 1.95 0 2.7l-7.65 7.6c-.75.75-.75 1.95 0 2.7l4 4.05c.35.35.8.55 1.35.55.5 0 .95-.2 1.35-.55l7.65-7.65c.35-.35.8-.55 1.35-.55s.95.2 1.35.55l7.65 7.65c.35.35.8.55 1.35.55.5 0 .95-.2 1.35-.55l4-4.05c.75-.75.75-1.95 0-2.7l-7.7-7.65z"/></svg>