<svg xmlns="http://www.w3.org/2000/svg" width="166" height="104"><path fill="#fff" d="M157.096 1h-147.87c-4.543 0-8.226 3.656-8.226 8.166v85.668c0 4.51 3.683 8.166 8.226 8.166h147.548c4.543 0 8.226-3.656 8.226-8.166v-85.988c0-4.333-3.538-7.846-7.904-7.846z"/><path fill="#00a0c9" fill-opacity=".2" d="M165 92.5h-1c0 3.866-3.134 7-7 7h-148c-3.866 0-7-3.134-7-7h-1v1.174c0 4.598 3.728 8.326 8.326 8.326h147.347c4.599 0 8.327-3.728 8.327-8.326v-1.174"/><path fill="#00a0c9" d="M162.88 96.799c-.518 2.398-2.656 4.201-5.207 4.201h-149.347c-2.55 0-4.688-1.803-5.206-4.201 1.247 1.926 3.415 3.201 5.88 3.201h148c2.465 0 4.633-1.275 5.88-3.201zm-4.88-96.799h-149.674c-4.598 0-8.326 3.728-8.326 8.326v87.348c0 4.598 3.728 8.326 8.326 8.326h149.347c4.599 0 8.327-3.728 8.327-8.326v-87.674c0-4.418-3.581-8-8-8zm-1 3c3.309 0 6 2.692 6 6v84c0 3.309-2.691 6-6 6h-148c-3.308 0-6-2.691-6-6v-83.674c0-3.488 2.838-6.326 6.326-6.326h147.674z"/><path fill="#00a0c9" fill-opacity=".2" d="M123.5 76.5h-17c-.552 0-1 .448-1 1v6.5c0 .552.448 1 1 1h17c.552 0 1-.448 1-1v-6.5c0-.552-.448-1-1-1m-39 0h-31c-.553 0-1 .448-1 1v6.5c0 .552.447 1 1 1h31c.552 0 1-.448 1-1v-6.5c0-.552-.448-1-1-1m-38 0h-28.5c-.552 0-1 .448-1 1v6.5c0 .552.448 1 1 1h28.5c.553 0 1-.448 1-1v-6.5c0-.552-.447-1-1-1"/><path fill="#00a0c9" d="M146.292 70.218c-.827 0-1.485-.391-1.97-1.17-.487-.78-.73-1.85-.73-3.207 0-1.353.243-2.42.73-3.201.485-.779 1.143-1.17 1.97-1.17.828 0 1.487.391 1.976 1.174.488.782.733 1.848.733 3.197s-.245 2.416-.733 3.2c-.489.784-1.148 1.177-1.976 1.177zm0-7.805c-.506 0-.9.299-1.181.897-.282.597-.423 1.441-.423 2.531 0 1.094.141 1.941.423 2.541.281.599.675.9 1.181.9.511 0 .907-.301 1.19-.9.281-.6.422-1.447.422-2.541 0-1.09-.141-1.934-.422-2.531-.283-.598-.679-.897-1.19-.897zm-9.062 7.587c-.233 0-.406-.048-.518-.142-.112-.095-.168-.24-.168-.438 0-.286.423-.822 1.267-1.608l.192-.185.554-.527c1.524-1.433 2.286-2.477 2.286-3.131 0-.47-.135-.852-.403-1.144-.269-.292-.617-.438-1.044-.438-.277 0-.542.057-.796.17-.252.116-.456.269-.61.463l-.125.177c-.164.295-.347.442-.549.442-.158 0-.27-.048-.336-.145-.067-.097-.1-.281-.1-.554 0-.158.015-.273.047-.346.031-.073.087-.15.171-.233.282-.273.631-.49 1.047-.65.416-.161.842-.241 1.278-.241.731 0 1.341.236 1.832.706.492.47.737 1.047.737 1.733 0 .862-.749 2.006-2.245 3.435-.384.355-.676.635-.879.836l-.813.779h3.019c.018-.189.069-.333.155-.432.086-.1.201-.148.347-.148.145 0 .259.048.343.144.084.097.126.229.126.396l-.007.07-.006.069-.053.507c-.014.136-.053.243-.119.32-.066.077-.152.115-.258.115h-4.372zm-6.044-7.073l-.129.02-.075.006c-.137 0-.248-.038-.334-.115-.086-.077-.128-.179-.128-.306 0-.106.037-.198.112-.277.074-.079.182-.139.324-.179l1.961-.527.142-.029.142-.01c.083 0 .149.039.198.115.048.077.072.181.072.313v7.133h1.058c.391 0 .64.032.746.095.105.064.158.184.158.359 0 .159-.044.277-.132.357-.088.079-.22.118-.396.118h-3.949c-.177 0-.309-.039-.397-.118-.088-.08-.132-.198-.132-.357 0-.175.053-.295.158-.359.106-.063.355-.095.747-.095h1.096v-6.44l-1.242.296zm-6.671 1.918c.29-.105.559-.184.806-.233.246-.051.481-.077.706-.077.771 0 1.412.267 1.925.802.513.533.769 1.196.769 1.987 0 .839-.283 1.531-.852 2.076-.567.546-1.294.818-2.179.818-.739 0-1.359-.1-1.859-.3-.5-.2-.75-.443-.75-.729 0-.114.047-.216.139-.306.093-.09.201-.136.324-.136.048 0 .307.085.776.255.469.169.904.253 1.304.253.591 0 1.069-.177 1.437-.53.367-.355.552-.81.552-1.369 0-.544-.175-.998-.523-1.361-.347-.362-.786-.544-1.314-.544-.396 0-.785.1-1.166.297-.381.199-.611.297-.689.297-.133 0-.226-.049-.281-.145-.055-.097-.083-.272-.083-.528v-3.282c0-.145.046-.25.135-.313.091-.064.248-.096.472-.096h3.343c.211 0 .37.043.475.129.105.086.159.214.159.385 0 .163-.056.29-.165.379-.111.091-.267.135-.469.135h-2.992v2.136zm-13.538 5.373c-.828 0-1.485-.391-1.971-1.17-.487-.78-.73-1.85-.73-3.207 0-1.353.243-2.42.73-3.201.486-.779 1.143-1.17 1.971-1.17.827 0 1.486.391 1.974 1.174.489.782.734 1.848.734 3.197s-.245 2.416-.734 3.2c-.488.784-1.147 1.177-1.974 1.177zm0-7.805c-.507 0-.901.299-1.182.897-.283.597-.423 1.441-.423 2.531 0 1.094.14 1.941.423 2.541.281.599.675.9 1.182.9.511 0 .907-.301 1.188-.9.283-.6.424-1.447.424-2.541 0-1.09-.141-1.934-.424-2.531-.281-.598-.677-.897-1.188-.897zm-9.063 7.587c-.233 0-.406-.048-.518-.142-.112-.095-.168-.24-.168-.438 0-.286.422-.822 1.267-1.608l.192-.185.555-.527c1.523-1.433 2.285-2.477 2.285-3.131 0-.47-.134-.852-.403-1.144-.269-.292-.617-.438-1.044-.438-.277 0-.542.057-.795.17-.253.116-.457.269-.611.463l-.125.177c-.164.295-.347.442-.548.442-.159 0-.272-.048-.338-.145-.066-.097-.099-.281-.099-.554 0-.158.015-.273.047-.346.031-.073.088-.15.171-.233.282-.273.631-.49 1.047-.65.416-.161.842-.241 1.278-.241.731 0 1.342.236 1.832.706.491.47.737 1.047.737 1.733 0 .862-.749 2.006-2.246 3.435-.382.355-.675.635-.878.836l-.812.779h3.018c.017-.189.069-.333.155-.432.086-.1.202-.148.347-.148.146 0 .26.048.344.144.083.097.125.229.125.396l-.007.07-.006.069-.054.507c-.013.136-.052.243-.118.32-.066.077-.152.115-.258.115h-4.372zm-6.044-7.073l-.128.02-.076.006c-.136 0-.248-.038-.334-.115-.086-.077-.129-.179-.129-.306 0-.106.038-.198.113-.277.075-.079.182-.139.324-.179l1.961-.527.142-.029.142-.01c.083 0 .15.039.198.115.049.077.073.181.073.313v7.133h1.057c.391 0 .64.032.746.095.105.064.158.184.158.359 0 .159-.044.277-.132.357-.088.079-.22.118-.396.118h-3.949c-.176 0-.309-.039-.397-.118-.087-.08-.131-.198-.131-.357 0-.175.052-.295.158-.359.106-.063.354-.095.746-.095h1.097v-6.44l-1.243.296zm-6.671 1.918c.291-.105.559-.184.806-.233.246-.051.482-.077.707-.077.769 0 1.411.267 1.924.802.513.533.77 1.196.77 1.987 0 .839-.285 1.531-.853 2.076-.567.546-1.294.818-2.179.818-.739 0-1.359-.1-1.859-.3-.499-.2-.749-.443-.749-.729 0-.114.046-.216.139-.306.092-.09.2-.136.323-.136.048 0 .307.085.776.255.469.169.904.253 1.305.253.589 0 1.068-.177 1.435-.53.369-.355.553-.81.553-1.369 0-.544-.175-.998-.523-1.361-.347-.362-.785-.544-1.313-.544-.397 0-.786.1-1.166.297-.382.199-.611.297-.691.297-.131 0-.225-.049-.28-.145-.055-.097-.083-.272-.083-.528v-3.282c0-.145.045-.25.136-.313.09-.064.247-.096.472-.096h3.341c.212 0 .371.043.476.129.105.086.159.214.159.385 0 .163-.055.29-.165.379-.111.091-.267.135-.47.135h-2.991v2.136zm-13.288 5.373c-.827 0-1.485-.391-1.972-1.17-.486-.78-.729-1.85-.729-3.207 0-1.353.243-2.42.729-3.201.487-.779 1.145-1.17 1.972-1.17.828 0 1.486.391 1.974 1.174.489.782.734 1.848.734 3.197s-.245 2.416-.734 3.2c-.488.784-1.146 1.177-1.974 1.177zm0-7.805c-.506 0-.901.299-1.182.897-.281.597-.422 1.441-.422 2.531 0 1.094.141 1.941.422 2.541.281.599.676.9 1.182.9.511 0 .907-.301 1.189-.9.282-.6.422-1.447.422-2.541 0-1.09-.14-1.934-.422-2.531-.282-.598-.678-.897-1.189-.897zm-9.062 7.587c-.233 0-.406-.048-.519-.142-.112-.095-.168-.24-.168-.438 0-.286.423-.822 1.268-1.608l.191-.185.555-.527c1.524-1.433 2.286-2.477 2.286-3.131 0-.47-.135-.852-.403-1.144-.269-.292-.617-.438-1.044-.438-.277 0-.542.057-.796.17-.253.116-.457.269-.611.463l-.125.177c-.163.295-.346.442-.548.442-.159 0-.271-.048-.337-.145-.066-.097-.099-.281-.099-.554 0-.158.016-.273.046-.346.031-.073.088-.15.172-.233.281-.273.631-.49 1.046-.65.416-.161.842-.241 1.278-.241.731 0 1.342.236 1.833.706.491.47.736 1.047.736 1.733 0 .862-.748 2.006-2.245 3.435-.383.355-.676.635-.878.836l-.813.779h3.018c.018-.189.07-.333.156-.432.086-.1.201-.148.347-.148.145 0 .259.048.343.144.083.097.125.229.125.396l-.006.07-.007.069-.052.507c-.014.136-.053.243-.119.32-.067.077-.153.115-.258.115h-4.372zm-6.044-7.073l-.129.02-.076.006c-.136 0-.247-.038-.334-.115-.085-.077-.128-.179-.128-.306 0-.106.037-.198.112-.277.075-.079.183-.139.324-.179l1.961-.527.142-.029.142-.01c.084 0 .149.039.199.115.047.077.072.181.072.313v7.133h1.056c.392 0 .641.032.747.095.105.064.158.184.158.359 0 .159-.044.277-.132.357-.088.079-.22.118-.396.118h-3.949c-.177 0-.309-.039-.396-.118-.088-.08-.132-.198-.132-.357 0-.175.052-.295.158-.359.106-.063.354-.095.746-.095h1.097v-6.44l-1.242.296zm-6.672 1.918c.291-.105.56-.184.806-.233.247-.051.482-.077.707-.077.771 0 1.412.267 1.925.802.513.533.769 1.196.769 1.987 0 .839-.284 1.531-.852 2.076-.567.546-1.294.818-2.179.818-.74 0-1.359-.1-1.859-.3-.5-.2-.749-.443-.749-.729 0-.114.045-.216.138-.306.092-.09.201-.136.323-.136.049 0 .308.085.776.255.47.169.904.253 1.305.253.59 0 1.069-.177 1.437-.53.367-.355.55-.81.55-1.369 0-.544-.173-.998-.521-1.361-.348-.362-.786-.544-1.314-.544-.396 0-.785.1-1.166.297-.381.199-.611.297-.69.297-.132 0-.226-.049-.281-.145-.055-.097-.082-.272-.082-.528v-3.282c0-.145.045-.25.136-.313.09-.064.247-.096.472-.096h3.341c.211 0 .37.043.475.129.107.086.159.214.159.385 0 .163-.055.29-.165.379-.11.091-.267.135-.469.135h-2.992v2.136zm-13.788 5.373c-.828 0-1.485-.391-1.971-1.17-.487-.78-.73-1.85-.73-3.207 0-1.353.243-2.42.73-3.201.486-.779 1.143-1.17 1.971-1.17.828 0 1.486.391 1.974 1.174.489.782.734 1.848.734 3.197s-.245 2.416-.734 3.2c-.488.784-1.146 1.177-1.974 1.177zm0-7.805c-.506 0-.901.299-1.183.897-.281.597-.422 1.441-.422 2.531 0 1.094.141 1.941.422 2.541.282.599.677.9 1.183.9.51 0 .906-.301 1.189-.9.281-.6.422-1.447.422-2.541 0-1.09-.141-1.934-.422-2.531-.283-.598-.679-.897-1.189-.897zm-9.063 7.587c-.233 0-.406-.048-.518-.142-.112-.095-.168-.24-.168-.438 0-.286.422-.822 1.268-1.608l.191-.185.555-.527c1.523-1.433 2.285-2.477 2.285-3.131 0-.47-.134-.852-.403-1.144-.269-.292-.616-.438-1.043-.438-.277 0-.543.057-.796.17-.253.116-.457.269-.611.463l-.125.177c-.164.295-.346.442-.549.442-.158 0-.271-.048-.337-.145-.066-.097-.098-.281-.098-.554 0-.158.015-.273.046-.346.031-.073.088-.15.171-.233.282-.273.631-.49 1.047-.65.416-.161.843-.241 1.278-.241.731 0 1.342.236 1.833.706.491.47.736 1.047.736 1.733 0 .862-.748 2.006-2.245 3.435-.383.355-.676.635-.878.836l-.813.779h3.018c.018-.189.069-.333.156-.432.085-.1.2-.148.346-.148.145 0 .26.048.344.144.083.097.125.229.125.396l-.007.07-.006.069-.053.507c-.013.136-.053.243-.119.32-.066.077-.151.115-.258.115h-4.372m-6.043-7.073l-.129.02-.076.006c-.137 0-.248-.038-.334-.115-.085-.077-.128-.179-.128-.306 0-.106.037-.198.112-.277.074-.079.183-.139.323-.179l1.962-.527.142-.029.142-.01c.084 0 .15.039.198.115.049.077.073.181.073.313v7.133h1.056c.392 0 .641.032.746.095.106.064.159.184.159.359 0 .159-.044.277-.132.357-.089.079-.221.118-.397.118h-3.949c-.176 0-.308-.039-.396-.118-.088-.08-.132-.198-.132-.357 0-.175.053-.295.159-.359.105-.063.354-.095.746-.095h1.096v-6.44l-1.241.296m-6.672 1.918c.291-.105.559-.184.806-.233.246-.051.482-.077.707-.077.77 0 1.412.267 1.924.802.513.533.77 1.196.77 1.987 0 .839-.284 1.531-.852 2.076-.568.546-1.294.818-2.179.818-.74 0-1.36-.1-1.86-.3-.499-.2-.749-.443-.749-.729 0-.114.046-.216.138-.306.093-.09.201-.136.324-.136.049 0 .307.085.776.255.469.169.904.253 1.305.253.59 0 1.069-.177 1.436-.53.367-.355.551-.81.551-1.369 0-.544-.174-.998-.522-1.361-.347-.362-.785-.544-1.313-.544-.397 0-.785.1-1.166.297-.381.199-.611.297-.691.297-.132 0-.225-.049-.28-.145-.055-.097-.082-.272-.082-.528v-3.282c0-.145.044-.25.135-.313.09-.064.248-.096.472-.096h3.342c.211 0 .369.043.475.129.106.086.158.214.158.385 0 .163-.054.29-.164.379-.111.091-.267.135-.469.135h-2.992v2.136"/><path fill="#00a0c9" d="M19.995 32c-1.654 0-2.995 1.344-2.995 2.995v17.01c0 1.654 1.343 2.995 2.995 2.995h20.01c1.654 0 2.995-1.344 2.995-2.995v-17.01c0-1.654-1.343-2.995-2.995-2.995h-20.01zm19.504 1.5c1.106 0 2.001.895 2.001 2v16c0 1.102-.896 2-2.001 2h-18.998c-1.106 0-2.001-.895-2.001-2v-16c0-1.102.896-2 2.001-2h18.998zm-14.499 20h.5v-20h-.5v20zm-6.5-14.5h6.5v-.5h-6.5v.5zm0 5h6.5v-.5h-6.5v.5zm0 5h6.5v-.5h-6.5v.5zm15.5-10h7.5v-.5h-7.5v.5zm0 14.5h.5v-14.5h-.5v14.5zm.5-9.5h7v-.5h-7v.5zm0 5h7v-.5h-7v.5zM152.626 16.593c.031-.163-.01-.33-.116-.457-.106-.126-.261-.2-.425-.2h-1.082c-.248 0-.467.167-.532.408-.246.912-1.057 1.55-1.972 1.55-.916 0-1.729-.638-1.974-1.55-.067-.241-.283-.408-.533-.408h-1.082c-.164 0-.32.074-.425.2-.103.127-.146.294-.115.457.384 2.004 2.12 3.46 4.129 3.46 2.006 0 3.741-1.456 4.127-3.46zm-5.081 10.041c-.077-.474-.003-.952.213-1.383l-.002-.046-.038-.023c-3.217-.351-5.82-2.832-6.331-6.03-.06-.377-.091-.763-.091-1.151-.006-3.513 2.602-6.579 6.066-7.133.304-.049.569-.212.75-.462.179-.25.253-.555.202-.857-.089-.563-.566-.971-1.133-.971l-.183.014c-2.244.359-4.288 1.518-5.755 3.262-1.453 1.724-2.25 3.906-2.244 6.147 0 .509.039 1.018.116 1.513.686 4.298 4.331 7.656 8.667 7.985h.004l.049-.049-.014-.034c-.139-.241-.232-.505-.276-.782zm10.333-10.148c-.683-4.297-4.329-7.654-8.664-7.984l-.045.022v.05c.142.245.237.511.283.793.075.473.002.953-.212 1.383v.045l.037.024c3.218.351 5.821 2.83 6.332 6.031.059.376.09.762.09 1.151.007 3.512-2.599 6.578-6.064 7.132-.305.049-.569.214-.75.463-.183.248-.253.553-.204.857.089.561.566.97 1.134.97l.182-.015c2.244-.359 4.289-1.517 5.756-3.261 1.451-1.724 2.25-3.907 2.246-6.146 0-.51-.041-1.019-.121-1.515z"/></svg>