<svg xmlns="http://www.w3.org/2000/svg" width="33" height="20"><path id="Shape" fill="#f5f5f5" d="M2 19.75c-.965 0-1.75-.785-1.75-1.75v-16c0-.965.785-1.75 1.75-1.75h29c.965 0 1.75.785 1.75 1.75v16c0 .965-.785 1.75-1.75 1.75h-29z"/><path fill="#ececec" d="M31 .5c.827 0 1.5.673 1.5 1.5v16c0 .827-.673 1.5-1.5 1.5h-29c-.827 0-1.5-.673-1.5-1.5v-16c0-.827.673-1.5 1.5-1.5h29zm0-.5h-29c-1.105 0-2 .896-2 2v16c0 1.105.896 2 2 2h29c1.105 0 2-.896 2-2v-16c0-1.105-.896-2-2-2z"/><path fill="#2276ab" d="M11.501 10.248c.004 1.485 1.042 2.749 2.505 3.252v-6.506c-1.463.504-2.501 1.769-2.505 3.254zm6.285-5.748h-2.795c-3.287-.001-5.993 2.37-5.993 5.8 0 3.138 2.706 5.714 5.993 5.7h2.795c3.249.014 6.213-2.564 6.213-5.7 0-3.43-2.965-5.801-6.213-5.8zm-2.782 11.004c-3.038-.002-5.501-2.35-5.501-5.249.001-2.899 2.463-5.247 5.501-5.248 3.039.001 5.501 2.349 5.502 5.248-.001 2.899-2.463 5.247-5.502 5.249zm.997-8.509v6.507c1.465-.503 2.504-1.768 2.507-3.254-.003-1.486-1.042-2.752-2.507-3.253z"/></svg>