<svg xmlns="http://www.w3.org/2000/svg" viewBox="0 0 37 23" enable-background="new 0 0 37 23"><path d="M35.342 23h-33.684c-.916 0-1.658-.742-1.658-1.658v-19.684c0-.916.742-1.658 1.658-1.658h33.684c.916 0 1.658.742 1.658 1.658v19.684c0 .916-.742 1.658-1.658 1.658z" fill="#fff"/><path d="M35.5.5c.551 0 1 .449 1 1v20c0 .551-.449 1-1 1h-34c-.551 0-1-.449-1-1v-20c0-.551.449-1 1-1h34m0-.5h-34c-.828 0-1.5.672-1.5 1.5v20c0 .828.672 1.5 1.5 1.5h34c.828 0 1.5-.672 1.5-1.5v-20c0-.828-.672-1.5-1.5-1.5z" fill="#C9CACA"/><path d="M13.422 9.107c.003 1.444.946 2.673 2.274 3.161v-6.324c-1.329.489-2.271 1.719-2.274 3.163zM18.231 5.944v6.326c1.33-.489 2.273-1.719 2.276-3.163-.003-1.445-.946-2.675-2.276-3.163zM19.823 3.277h-2.872c-3.378-.001-6.158 2.407-6.158 5.89 0 3.187 2.78 5.804 6.158 5.789h2.872c3.338.015 6.384-2.604 6.384-5.789 0-3.483-3.047-5.891-6.384-5.89zm-2.859 11.176c-3.086-.002-5.587-2.394-5.588-5.346.001-2.954 2.502-5.345 5.588-5.346 3.087.001 5.588 2.393 5.589 5.346-.001 2.952-2.502 5.344-5.589 5.346z" fill="#004678"/><path d="M4.255 19.655c0 .492.367.55.694.55 1.442 0 1.915-1.041 1.915-1.992 0-1.194-.801-2.055-2.089-2.055-.274 0-.4.019-.521.025v3.472zm-.654-2.994c0-.575-.314-.536-.614-.543v-.166c.26.012.527.012.788.012l1.155-.012c1.728 0 2.67 1.104 2.67 2.235 0 .633-.387 2.222-2.751 2.222l-.967-.012-.895.012v-.165c.4-.039.594-.052.614-.486v-3.097zM8.548 16.507c-.174 0-.327-.152-.327-.318 0-.16.161-.308.327-.308.173 0 .327.134.327.308 0 .172-.147.318-.327.318m-.714 3.737h.126c.187 0 .32 0 .32-.212v-1.73c0-.281-.1-.319-.347-.446v-.102c.314-.09.688-.21.714-.23l.12-.033.047.09v2.451c0 .212.147.212.335.212h.113v.165l-.7-.012-.728.012v-.165zM9.896 18.34c0-.236-.074-.3-.387-.421v-.121c.286-.089.56-.173.881-.308l.04.064v.415c.381-.261.708-.48 1.156-.48.567 0 .767.397.767.895v1.646c0 .212.147.212.334.212h.121v.165l-.708-.012-.721.012v-.165h.12c.187 0 .32 0 .32-.212v-1.652c0-.365-.233-.543-.614-.543-.214 0-.554.165-.775.308v1.888c0 .212.147.212.335.212h.12v.165l-.708-.012-.721.012v-.165h.121c.187 0 .32 0 .32-.212v-1.691zM14.496 18.443c.167 0 .186-.083.186-.161 0-.324-.207-.586-.581-.586-.407 0-.687.286-.767.747h1.162zm-1.182.203c-.014.058-.014.154 0 .37.04.607.447 1.104.981 1.104.368 0 .655-.191.901-.427l.093.089c-.307.39-.687.722-1.234.722-1.061 0-1.275-.984-1.275-1.392 0-1.251.881-1.623 1.348-1.623.541 0 1.122.326 1.128 1.003l-.007.115-.06.038h-1.875zM15.409 20.244h.181c.186 0 .32 0 .32-.212v-1.794c0-.198-.247-.237-.347-.288v-.095c.487-.198.754-.365.815-.365l.059.084v.575h.014c.166-.249.447-.659.854-.659.167 0 .38.109.38.339 0 .172-.126.326-.313.326l-.442-.154c-.113 0-.487.148-.487.531v1.499c0 .212.133.212.32.212h.373v.165l-.934-.012-.794.012v-.164zM17.979 19.521c.088.421.354.779.842.779.393 0 .54-.23.54-.453 0-.755-1.455-.511-1.455-1.538 0-.359.301-.818 1.035-.818.213 0 .5.058.76.186l.047.65h-.153c-.067-.402-.3-.631-.728-.631-.267 0-.52.146-.52.42 0 .748 1.548.518 1.548 1.521 0 .42-.353.868-1.148.868-.267 0-.581-.09-.814-.217l-.074-.735.12-.032zM25.922 17.107h-.167c-.127-.747-.681-1.047-1.428-1.047-.768 0-1.883.492-1.883 2.024 0 1.29.962 2.215 1.989 2.215.66 0 1.209-.434 1.342-1.104l.153.038-.153.932c-.28.166-1.034.339-1.476.339-1.561 0-2.549-.964-2.549-2.401 0-1.309 1.222-2.248 2.53-2.248.54 0 1.061.166 1.575.339l.067.913zM26.163 20.244h.126c.187 0 .32 0 .32-.212v-3.555c0-.415-.1-.427-.354-.498v-.102c.267-.082.547-.198.688-.275l.146-.071.054.09v4.411c0 .212.147.212.334.212h.113v.165l-.7-.012-.727.012v-.165zM30.448 20.057c0 .116.073.122.186.122l.267-.006v.134c-.287.025-.835.159-.961.198l-.033-.02v-.516c-.4.312-.708.536-1.182.536-.36 0-.734-.224-.734-.759v-1.636c0-.166-.026-.326-.4-.357v-.122l.86-.044c.074 0 .074.044.074.185v1.646c0 .193 0 .741.58.741.227 0 .527-.165.807-.388v-1.718c0-.128-.32-.198-.56-.262v-.114c.6-.039.974-.09 1.041-.09.054 0 .054.044.054.115v2.355zM31.776 19.688c0 .242.24.651.688.651.714 0 1.014-.671 1.014-1.239 0-.689-.547-1.264-1.067-1.264-.248 0-.455.153-.635.301v1.551zm0-1.738c.267-.216.627-.46.995-.46.774 0 1.242.646 1.242 1.341 0 .836-.641 1.673-1.596 1.673-.494 0-.754-.154-.927-.224l-.2.147-.14-.07c.06-.377.093-.747.093-1.137v-2.746c0-.415-.101-.427-.354-.498v-.102c.268-.082.548-.198.688-.275l.147-.071.053.09v2.332z" fill="#201513"/></svg>