<svg xmlns="http://www.w3.org/2000/svg" viewBox="0 0 37 23" enable-background="new 0 0 37 23">
<path fill="#FFFFFF" d="M35.3,23H1.7C0.7,23,0,22.3,0,21.3V1.7C0,0.7,0.7,0,1.7,0h33.7C36.3,0,37,0.7,37,1.7v19.7
	C37,22.3,36.3,23,35.3,23z"/>
<path fill="#E47326" d="M35.3,23c0.4,0,0.8-0.2,1.1-0.5c0.2-0.2,0.3-0.5,0.3-0.9v-8.9c0,0-9.8,6.9-27.8,10.2H35.3z"/>
<path fill="#231815" d="M4,6.6H2.5v5.2H4c0.8,0,1.4-0.2,1.9-0.6c0.6-0.5,0.9-1.2,0.9-2C6.8,7.7,5.7,6.6,4,6.6L4,6.6z M5.2,10.5
	c-0.3,0.3-0.7,0.4-1.4,0.4H3.5V7.5h0.3c0.7,0,1.1,0.1,1.4,0.4c0.4,0.3,0.6,0.8,0.6,1.3C5.8,9.7,5.6,10.2,5.2,10.5z M7.3,6.6h1v5.2
	h-1L7.3,6.6z M10.8,8.6C10.2,8.4,10,8.2,10,7.9c0-0.3,0.3-0.6,0.8-0.6c0.3,0,0.6,0.1,0.8,0.4l0.5-0.7c-0.4-0.4-1-0.6-1.5-0.6
	C9.7,6.5,9,7.1,9,8c0,0.7,0.3,1.1,1.3,1.4c0.4,0.1,0.6,0.2,0.7,0.3c0.2,0.1,0.3,0.3,0.3,0.5c0,0.4-0.3,0.7-0.8,0.7
	c-0.5,0-0.9-0.2-1.1-0.7l-0.7,0.6c0.5,0.7,1,1,1.8,1c1.1,0,1.8-0.7,1.8-1.7C12.3,9.4,12,9,10.8,8.6z M12.6,9.2
	c0,1.5,1.2,2.7,2.8,2.7c0.4,0,0.8-0.1,1.3-0.3v-1.2c-0.4,0.4-0.8,0.6-1.2,0.6c-1,0-1.8-0.7-1.8-1.8c0-1,0.8-1.8,1.7-1.8
	c0.5,0,0.9,0.2,1.3,0.6V6.8c-0.4-0.2-0.8-0.3-1.3-0.3C13.9,6.5,12.6,7.7,12.6,9.2L12.6,9.2z M24.7,10.1l-1.4-3.5h-1.1l2.2,5.4H25
	l2.3-5.4h-1.1L24.7,10.1z M27.7,11.8h2.9v-0.9h-1.9V9.5h1.8V8.6h-1.8V7.5h1.9V6.6h-2.9V11.8z M34.6,8.1c0-1-0.7-1.5-1.8-1.5h-1.5
	v5.2h1V9.7h0.1l1.4,2.1h1.3l-1.6-2.2C34.2,9.5,34.6,8.9,34.6,8.1L34.6,8.1z M32.6,9h-0.3V7.4h0.3c0.6,0,1,0.3,1,0.8
	C33.6,8.7,33.2,9,32.6,9z"/>
<path fill="#E47326" d="M17,9.2c0,1.5,1.2,2.8,2.8,2.8s2.8-1.2,2.8-2.8c0,0,0,0,0,0c0-1.5-1.2-2.8-2.8-2.8S17,7.7,17,9.2"/>
<path fill="#C9CACA" d="M35.5,0.5c0.6,0,1,0.4,1,1v20c0,0.6-0.4,1-1,1h-34c-0.6,0-1-0.4-1-1v-20c0-0.6,0.4-1,1-1H35.5 M35.5,0h-34
	C0.7,0,0,0.7,0,1.5v20C0,22.3,0.7,23,1.5,23h34c0.8,0,1.5-0.7,1.5-1.5v-20C37,0.7,36.3,0,35.5,0z"/>
</svg>
