<svg xmlns="http://www.w3.org/2000/svg" width="33" height="20"><path id="Shape" fill="#f5f5f5" d="M2 19.75c-.965 0-1.75-.785-1.75-1.75v-16c0-.965.785-1.75 1.75-1.75h29c.965 0 1.75.785 1.75 1.75v16c0 .965-.785 1.75-1.75 1.75h-29z"/><path id="Shape" fill="#ececec" d="M31 .5c.827 0 1.5.673 1.5 1.5v16c0 .827-.673 1.5-1.5 1.5h-29c-.827 0-1.5-.673-1.5-1.5v-16c0-.827.673-1.5 1.5-1.5h29zm0-.5h-29c-1.105 0-2 .896-2 2v16c0 1.105.896 2 2 2h29c1.105 0 2-.896 2-2v-16c0-1.105-.896-2-2-2z"/><path d="M4.715 4.598h-1.211v4.291h1.205c.639 0 1.102-.154 1.507-.495.481-.406.767-1.017.767-1.649 0-1.266-.932-2.147-2.268-2.147zm.964 3.223c-.261.239-.596.342-1.129.342h-.221v-2.838h.221c.533 0 .856.097 1.129.347.285.258.455.656.455 1.068 0 .412-.17.825-.455 1.081zm1.685 1.068h.823v-4.291h-.823v4.291zm2.839-2.645c-.495-.186-.641-.309-.641-.54 0-.27.26-.476.615-.476.247 0 .45.103.666.347l.43-.572c-.354-.316-.779-.476-1.242-.476-.747 0-1.317.528-1.317 1.228 0 .593.266.895 1.039 1.179.323.115.487.192.57.244.164.11.247.263.247.444 0 .348-.272.605-.64.605-.393 0-.709-.199-.9-.573l-.531.522c.379.566.835.817 1.463.817.856 0 1.457-.58 1.457-1.409 0-.683-.279-.992-1.216-1.34zm1.475.502c0 1.263.976 2.24 2.231 2.24.355 0 .659-.071 1.033-.25v-.985c-.33.335-.621.469-.995.469-.83 0-1.42-.611-1.42-1.48 0-.823.608-1.473 1.382-1.473.392 0 .691.141 1.033.482v-.985c-.361-.186-.66-.262-1.014-.262-1.249 0-2.25.997-2.25 2.244zm9.941.735l-1.128-2.883h-.9l1.794 4.4h.443l1.825-4.4h-.893l-1.141 2.883zm2.409 1.408h2.338v-.726h-1.514v-1.16h1.456v-.726h-1.456v-.952h1.514v-.727h-2.338v4.291zm4.637-1.808c.622-.128.963-.56.963-1.217 0-.804-.544-1.266-1.495-1.266h-1.223v4.291h.825v-1.725h.108l1.14 1.725h1.013l-1.331-1.808zm-.691-.508h-.239v-1.3h.253c.514 0 .793.22.793.637 0 .431-.279.663-.807.663z"/><path fill="#f59d51" d="M5.5 20h25.5c1.105 0 2-.896 2-2v-8s-9.712 6.907-27.5 10zm12.007-11.014c1.256 0 2.247-.981 2.247-2.237 0-1.25-.985-2.231-2.247-2.231-1.244 0-2.253.987-2.253 2.205 0 1.295.965 2.263 2.253 2.263z"/></svg>