<?xml version="1.0" encoding="UTF-8" standalone="no"?>
<svg width="25px" height="16px" viewBox="0 0 25 16" version="1.1" xmlns="http://www.w3.org/2000/svg" xmlns:xlink="http://www.w3.org/1999/xlink" xmlns:sketch="http://www.bohemiancoding.com/sketch/ns">
    <!-- Generator: Sketch 3.0.3 (7891) - http://www.bohemiancoding.com/sketch -->
    <title>Untitled</title>
    <desc>Created with Sketch.</desc>
    <defs></defs>
    <g id="Page-1" stroke="none" stroke-width="1" fill="none" fill-rule="evenodd" sketch:type="MSPage">
        <path d="M24.2195,0 L0.781,0 C0.3495,0 0,0.341 0,0.7615 L0,15.2385 C0,15.659 0.35,16 0.781,16 L24.219,16 C24.6505,16 25.0005,15.659 25.0005,15.2385 L25.0005,0.7615 C25.001,0.341 24.651,0 24.2195,0 L24.2195,0 Z M23.498,12.134 L17.97,8 L23.498,3.866 L23.498,12.134 L23.498,12.134 Z M1.9865,1.5 L22.998,1.5 C23.274,1.5 23.498,1.724 23.498,2 L23.498,2.15 L13.438,9.602 C13.165,9.8015 12.8405,9.907 12.5005,9.907 C12.1605,9.907 11.836,9.8015 11.563,9.602 L1.487,2.139 L1.487,2 C1.487,1.724 1.7105,1.5 1.9865,1.5 L1.9865,1.5 Z M1.487,3.855 L7.0305,8.0005 L1.487,12.1455 C1.487,12.146 1.487,3.855 1.487,3.855 L1.487,3.855 Z M22.998,14.5005 L1.9865,14.5005 C1.7105,14.5005 1.4865,14.2765 1.4865,14.0005 L1.4865,13.8565 L8.203,8.7625 L11.094,10.9735 C11.5105,11.277 12.005,11.4305 12.5,11.4305 C12.995,11.4305 13.4895,11.277 13.906,10.9735 L16.7965,8.7625 L23.497,13.8455 L23.497,14.001 C23.498,14.277 23.274,14.5005 22.998,14.5005 L22.998,14.5005 Z" id="Shape" fill="#000000" sketch:type="MSShapeGroup"></path>
    </g>
</svg>