<?xml version="1.0" encoding="utf-8"?>
<!-- Generator: Adobe Illustrator 18.0.0, SVG Export Plug-In . SVG Version: 6.00 Build 0)  -->
<!DOCTYPE svg PUBLIC "-//W3C//DTD SVG 1.1//EN" "http://www.w3.org/Graphics/SVG/1.1/DTD/svg11.dtd">
<svg version="1.1" id="レイヤー_1" xmlns="http://www.w3.org/2000/svg" xmlns:xlink="http://www.w3.org/1999/xlink" x="0px"
	 y="0px" viewBox="0 0 24 23" enable-background="new 0 0 24 23" xml:space="preserve">
<path fill="#010101" d="M22,2.1c-1.2-1.3-2.8-2-4.6-2c-1.8,0-3.5,0.7-4.8,2c-0.3,0.3-0.9,0.3-1.2,0C10.1,0.8,8.4,0,6.6,0
	C3.3,0,0,2.7,0,7.8c0,6.2,10.3,12.4,11.5,13c0,0,0.4,0.3,1,0c0,0,3-1.7,5.7-4C22,13.6,24,10.5,24,7.8C24,5.5,23.3,3.5,22,2.1z
	 M12.5,18c-0.3,0.2-0.7,0.2-1,0c-3.3-2.1-9-6.6-9-10.2c0-3.7,2-5.3,4-5.3c1.8,0,3.4,1.2,4.3,3.3l0.4,0.8c0.3,0.7,1.3,0.7,1.6,0
	l0.4-0.8c0.9-2,2.6-3.3,4.4-3.3c1.1,0,2,0.5,2.7,1.3c0.9,0.9,1.3,2.4,1.3,4C21.5,11.5,15.8,15.9,12.5,18z"/>
</svg>
