<svg xmlns="http://www.w3.org/2000/svg" xmlns:xlink="http://www.w3.org/1999/xlink" width="100%" height="100%">
  <path d="M2.292998,0.000000L4.707003,0.000000C5.367261,0.000000,5.697390,0.000000,5.995098,0.098244L6.052759,0.112367C6.440764,0.253589,6.746410,0.559236,6.887632,0.947240C7.000000,1.302610,7.000000,1.632739,7.000000,2.292998L7.000000,4.707003C7.000000,5.367261,7.000000,5.697390,6.901756,5.995098L6.887633,6.052759C6.746411,6.440764,6.440764,6.746410,6.052759,6.887633C5.697390,7.000000,5.367261,7.000000,4.707003,7.000000L2.292998,7.000000C1.632739,7.000000,1.302610,7.000000,1.004902,6.901756L0.947241,6.887633C0.559236,6.746411,0.253589,6.440764,0.112367,6.052759C0.000000,5.697390,0.000000,5.367261,0.000000,4.707003L0.000000,2.292998C0.000000,1.632739,0.000000,1.302610,0.098244,1.004902L0.112367,0.947241C0.253589,0.559236,0.559236,0.253589,0.947241,0.112367C1.302610,0.000000,1.632739,0.000000,2.292998,0.000000L2.292998,0.000000M11.292997,0.000000L13.707003,0.000000C14.367261,0.000000,14.697390,0.000000,14.995098,0.098244L15.052759,0.112367C15.440763,0.253589,15.746410,0.559236,15.887632,0.947240C16.000000,1.302610,16.000000,1.632739,16.000000,2.292998L16.000000,4.707003C16.000000,5.367261,16.000000,5.697390,15.901756,5.995098L15.887632,6.052759C15.746410,6.440764,15.440763,6.746410,15.052759,6.887633C14.697390,7.000000,14.367261,7.000000,13.707003,7.000000L11.292997,7.000000C10.632739,7.000000,10.302610,7.000000,10.004902,6.901756L9.947241,6.887633C9.559236,6.746411,9.253590,6.440764,9.112368,6.052759C9.000000,5.697390,9.000000,5.367261,9.000000,4.707003L9.000000,2.292998C9.000000,1.632739,9.000000,1.302610,9.098244,1.004902L9.112367,0.947241C9.253590,0.559236,9.559236,0.253589,9.947241,0.112367C10.302610,0.000000,10.632739,0.000000,11.292997,0.000000L11.292997,0.000000M11.292997,9.000000L13.707003,9.000000C14.367261,9.000000,14.697390,9.000000,14.995098,9.098244L15.052759,9.112367C15.440763,9.253590,15.746410,9.559236,15.887632,9.947241C16.000000,10.302610,16.000000,10.632739,16.000000,11.292997L16.000000,13.707003C16.000000,14.367261,16.000000,14.697390,15.901756,14.995098L15.887632,15.052759C15.746410,15.440763,15.440763,15.746410,15.052759,15.887632C14.697390,16.000000,14.367261,16.000000,13.707003,16.000000L11.292997,16.000000C10.632739,16.000000,10.302610,16.000000,10.004902,15.901756L9.947241,15.887632C9.559236,15.746410,9.253590,15.440763,9.112368,15.052759C9.000000,14.697390,9.000000,14.367261,9.000000,13.707003L9.000000,11.292997C9.000000,10.632739,9.000000,10.302610,9.098244,10.004902L9.112367,9.947241C9.253590,9.559236,9.559236,9.253590,9.947241,9.112367C10.302610,9.000000,10.632739,9.000000,11.292997,9.000000L11.292997,9.000000M2.292997,9.000000L4.707003,9.000000C5.367261,9.000000,5.697390,9.000000,5.995098,9.098244L6.052759,9.112367C6.440763,9.253590,6.746410,9.559236,6.887632,9.947241C7.000000,10.302610,7.000000,10.632739,7.000000,11.292997L7.000000,13.707003C7.000000,14.367261,7.000000,14.697390,6.901756,14.995098L6.887632,15.052759C6.746410,15.440763,6.440763,15.746410,6.052759,15.887632C5.697390,16.000000,5.367261,16.000000,4.707003,16.000000L2.292997,16.000000C1.632739,16.000000,1.302610,16.000000,1.004902,15.901756L0.947241,15.887632C0.559236,15.746410,0.253590,15.440763,0.112368,15.052759C0.000000,14.697390,0.000000,14.367261,0.000000,13.707003L0.000000,11.292997C0.000000,10.632739,0.000000,10.302610,0.098244,10.004902L0.112367,9.947241C0.253590,9.559236,0.559236,9.253590,0.947241,9.112367C1.302610,9.000000,1.632739,9.000000,2.292997,9.000000L2.292997,9.000000"/>
</svg>
