<svg xmlns="http://www.w3.org/2000/svg" xmlns:xlink="http://www.w3.org/1999/xlink" width="100%" height="100%">
  <path d="M20.3,0.0025 L0.75,0.0025 C0.335,0.0025,2.98e-07,0.336,2.98e-07,0.748 L2.98e-07,1.74 C2.98e-07,2.15,0.335,2.49,0.75,2.49 L20.3,2.49 C20.7,2.49,21,2.15,21,1.74 L21,0.748 C21,0.336,20.7,0.0025,20.3,0.0025 ZM20.3,5.5 L0.75,5.5 C0.335,5.5,2.98e-07,5.83,2.98e-07,6.24 L2.98e-07,7.24 C2.98e-07,7.65,0.335,7.98,0.75,7.98 L20.3,7.98 C20.7,7.98,21,7.65,21,7.24 L21,6.24 C21,5.83,20.7,5.5,20.3,5.5 ZM20.3,11 L0.75,11 C0.335,11,2.98e-07,11.3,2.98e-07,11.7 L2.98e-07,12.7 C2.98e-07,13.1,0.335,13.5,0.75,13.5 L20.3,13.5 C20.7,13.5,21,13.1,21,12.7 L21,11.7 C21,11.3,20.7,11,20.3,11 Z"/>
</svg>
