<svg xmlns="http://www.w3.org/2000/svg" width="192" height="371"><path fill="#fff" d="M20.5.45h151.55c11.2 0 20.25 9.1 20.25 20.35v330.2c0 11.25-9.05 20.35-20.25 20.35h-151.55c-11.2 0-20.25-9.1-20.25-20.35v-330.25c0-11.2 9.05-20.3 20.25-20.3z"/><path fill="#00a0c9" d="M172.05 3.45c9.5 0 17.25 7.8 17.25 17.35v330.2c0 9.55-7.75 17.35-17.25 17.35h-151.55c-9.5 0-17.25-7.8-17.25-17.35v-330.25c0-9.55 7.75-17.3 17.25-17.3h151.55zm0-3h-151.55c-11.2 0-20.25 9.1-20.25 20.3v330.25c0 11.25 9.05 20.35 20.25 20.35h151.55c11.2 0 20.25-9.1 20.25-20.35v-330.25c0-11.2-9.05-20.3-20.25-20.3zM114.9 29.75c1.55 0 2.65 1.1 2.65 2.7 0 2-1.65 2.3-2.65 2.3h-33.8c-1 0-2.65-.3-2.65-2.3 0-1.6 1.1-2.7 2.65-2.7h33.8zm0-1h-33.8c-2 0-3.65 1.45-3.65 3.7s1.65 3.3 3.65 3.3h33.8c2 0 3.65-1.05 3.65-3.3s-1.6-3.7-3.65-3.7zM59.4 29.35c1.7 0 3.05 1.4 3.05 3.05 0 1.7-1.4 3.05-3.05 3.05s-3.05-1.4-3.05-3.05 1.35-3.05 3.05-3.05zm0-1c-2.25 0-4.05 1.8-4.05 4.05s1.8 4.05 4.05 4.05 4.05-1.8 4.05-4.05c.05-2.2-1.8-4.05-4.05-4.05zM177.35 64.3v244.75h-162.15v-244.75h162.15zm1-1h-164.15v246.75h164.15v-246.75z"/></svg>