<svg xmlns="http://www.w3.org/2000/svg" width="717" height="929"><path fill="#fff" d="M715.5 895.45c0 17.9-14.55 32.5-32.5 32.5h-649.05c-17.9 0-32.5-14.55-32.5-32.5v-861.5c0-17.9 14.55-32.5 32.5-32.5h649.05c17.9 0 32.5 14.55 32.5 32.5v861.5z"/><path fill="#00a0c9" d="M3 33.95c0-17.1 13.9-31 31-31h649c17.1 0 31 13.9 31 31v861.55c0 17.1-13.9 31-31 31h-649c-17.1 0-31-13.9-31-31v-861.55zm-3 0v861.55c0 18.75 15.2 34 34 34h649c18.75 0 34-15.2 34-34v-861.55c0-18.75-15.2-34-34-34h-649c-18.8 0-34 15.2-34 34zm338.3 854.4c0-11.05 9-20 20-20 5.3 0 10.3 2.1 14.1 5.9 3.8 3.8 5.9 8.8 5.9 14.1 0 11.05-9 20.05-20 20.05s-20-9-20-20.05zm-1 0c0 11.6 9.4 21.05 21 21.05s21-9.45 21-21.05c0-11.55-9.5-21-21-21-11.6 0-21 9.45-21 21zm17.7-846.15c0-2.05 1.7-3.75 3.75-3.75s3.75 1.7 3.75 3.75-1.7 3.75-3.75 3.75-3.75-1.7-3.75-3.75zm2.5-16.5c0-.7.55-1.25 1.25-1.25.65 0 1.25.55 1.25 1.25s-.55 1.25-1.25 1.25-1.25-.55-1.25-1.25zm-3.5 16.5c0 2.6 2.1 4.75 4.75 4.75 2.6 0 4.75-2.15 4.75-4.75s-2.15-4.75-4.75-4.75c-2.65 0-4.75 2.15-4.75 4.75zm2.5-16.5c0 1.25 1 2.25 2.25 2.25s2.25-1 2.25-2.25-1-2.25-2.25-2.25-2.25 1-2.25 2.25zm-284.5 59.65c0-1 .85-1.9 1.9-1.9h568.7c1 0 1.9.85 1.9 1.9v758.25c0 1-.85 1.9-1.9 1.9h-568.7c-1.05 0-1.9-.85-1.9-1.9v-758.25zm-1 0v758.25c0 1.6 1.3 2.9 2.9 2.9h568.7c1.55 0 2.9-1.3 2.9-2.9v-758.25c0-1.6-1.3-2.9-2.9-2.9h-568.7c-1.6 0-2.9 1.3-2.9 2.9z"/></svg>