<svg xmlns="http://www.w3.org/2000/svg" width="265" height="168"><path id="Shape" fill="#fff" d="M250 2.5h-235c-6.9 0-12.5 5.6-12.5 12.5v138c0 6.9 5.6 12.5 12.5 12.5h235c6.9 0 12.5-5.6 12.5-12.5v-138c0-6.9-5.6-12.5-12.5-12.5z"/><path id="Shape" fill="#00a0c9" d="M250 0h-235c-8.3 0-15 6.7-15 15v138c0 8.3 6.7 15 15 15h235c8.3 0 15-6.7 15-15v-138c0-8.3-6.7-15-15-15zm11.5 152c0 6.9-5.6 12.5-12.5 12.5h-233c-6.9 0-12.5-5.6-12.5-12.5v-136c0-6.9 5.6-12.5 12.5-12.5h233c6.9 0 12.5 5.6 12.5 12.5v136z"/><path fill="#2996cc" opacity=".05" d="M130.2 138.1c-.45-2.9 0-5.85 1.3-8.5.05-.1.05-.2 0-.3-.05-.1-.15-.15-.25-.15-19.75-2.15-35.8-17.4-38.9-37.1-.35-2.3-.55-4.7-.55-7.05-.05-21.6 16-40.45 37.3-43.85 1.85-.3 3.5-1.3 4.6-2.85 1.1-1.55 1.55-3.4 1.25-5.25-.55-3.45-3.5-5.95-6.95-5.95-.35 0-.75.05-1.1.1-13.8 2.2-26.35 9.35-35.4 20.05-8.95 10.6-13.85 24-13.8 37.8 0 3.1.25 6.25.7 9.3 4.2 26.45 26.65 47.05 53.3 49.1.15 0 .3-.15.3-.3 0-.1-.05-.15-.1-.2-.9-1.55-1.45-3.15-1.7-4.85zm63.5-62.4c-4.2-26.4-26.6-47.05-53.25-49.1-.1 0-.2.05-.3.15-.05.1-.05.2 0 .3.85 1.5 1.45 3.15 1.75 4.85.45 2.9 0 5.85-1.3 8.5-.05.1-.05.2 0 .25.05.1.15.15.2.15 19.8 2.15 35.8 17.4 38.95 37.1.35 2.3.55 4.7.55 7.1.05 21.6-16 40.45-37.3 43.85-1.85.3-3.5 1.3-4.6 2.85-1.1 1.55-1.55 3.4-1.25 5.25.55 3.45 3.5 5.95 6.95 5.95.35 0 .75-.05 1.1-.1 13.8-2.2 26.35-9.35 35.4-20.05 8.9-10.6 13.85-24 13.8-37.8.05-3.1-.2-6.2-.7-9.25zm-32.3.65c.2-1-.05-2.05-.7-2.8-.65-.8-1.6-1.2-2.6-1.2h-6.65c-1.5 0-2.85 1-3.25 2.5-1.5 5.6-6.5 9.55-12.15 9.55s-10.65-3.9-12.15-9.55c-.4-1.5-1.75-2.5-3.3-2.5h-6.6c-1 0-1.95.45-2.6 1.2-.65.8-.9 1.8-.7 2.8 2.35 12.35 13.05 21.3 25.4 21.3 12.3-.05 22.95-9 25.3-21.3z"/><path fill="#00a0c9" d="M58.5 52h-26c-4.15 0-7.5 3.35-7.5 7.5v22c0 4.15 3.35 7.5 7.5 7.5h26c4.15 0 7.5-3.35 7.5-7.5v-22c0-4.15-3.35-7.5-7.5-7.5zm5 19.5v7h-10.5v-7h10.5zm-10.5-1v-7h10.5v7h-10.5zm-15.5 16h-5c-2.75 0-5-2.25-5-5v-2h10v7zm0-8h-10v-7h10v7zm0-8h-10v-7h10v7zm0-8h-10v-3c0-2.75 2.25-5 5-5h5v8zm14.5 24h-13.5v-32h20c2.75 0 5 2.25 5 5v3h-11.5v24zm6.5 0h-5.5v-7h10.5v2c0 2.75-2.25 5-5 5zm-27.4 39.1c-.4.2-.85.3-1.35.3-.5 0-.95-.1-1.35-.3-.4-.2-.75-.45-1-.75-.3-.35-.5-.7-.65-1.15-.15-.45-.2-.9-.2-1.45 0-.5.1-.95.25-1.4.15-.45.35-.85.65-1.15.3-.35.65-.6 1.05-.8.4-.2.85-.3 1.35-.3.45 0 .85.1 1.25.3.4.2.7.45.9.75l.95-.75c-.15-.25-.35-.45-.6-.6l-.75-.45c-.3-.1-.55-.2-.85-.25-.3-.05-.6-.1-.9-.1-.65 0-1.25.1-1.8.35-.55.25-1.05.55-1.45.95-.4.4-.75.9-.95 1.5-.25.6-.35 1.25-.35 1.95s.1 1.35.35 1.95c.25.6.55 1.1.95 1.5.4.4.9.75 1.45 1 .55.25 1.15.35 1.8.35.75 0 1.4-.15 1.95-.45.55-.3 1-.7 1.35-1.2l-.95-.7c-.4.4-.7.7-1.1.9zm11-6.8c-.4-.4-.9-.75-1.45-.95-.55-.25-1.15-.35-1.8-.35-.65 0-1.25.1-1.8.35-.55.25-1.05.55-1.45.95-.4.4-.7.9-.95 1.5s-.35 1.25-.35 1.95.1 1.35.35 1.95c.25.6.55 1.1.95 1.5.4.4.9.75 1.45 1 .55.25 1.15.35 1.8.35.65 0 1.25-.1 1.8-.35.55-.25 1.05-.55 1.45-1 .4-.4.7-.95.95-1.5.25-.6.35-1.25.35-1.95s-.1-1.35-.35-1.95c-.2-.6-.55-1.1-.95-1.5zm-.2 4.85c-.15.45-.35.85-.65 1.15-.3.35-.65.6-1.05.75-.4.2-.85.3-1.35.3-.5 0-.95-.1-1.35-.3-.4-.2-.75-.45-1-.75-.3-.35-.5-.7-.65-1.15-.15-.45-.25-.9-.25-1.4 0-.5.1-.95.25-1.4.15-.45.35-.85.65-1.15.3-.35.6-.6 1-.8.4-.2.85-.3 1.35-.3.5 0 .95.1 1.35.3.4.2.75.45 1.05.8.3.35.5.7.65 1.15.15.45.25.9.25 1.4-.05.5-.1.95-.25 1.4zm3.75 3.15h1.2v-9.05h-1.2v9.05zm10-1.85l-4.5-7.25h-1.55v9.05h1.2v-7.4l4.55 7.4h1.5v-9.05h-1.2v7.25zm5.1-2.3h4.05v-1.1h-4.05v-2.7h4.3v-1.1h-5.5v9.05h5.7v-1.15h-4.5v-3zm9.5-.85l-2.4-4.1h-1.5l3.2 5.15v3.9h1.2v-3.9l3.2-5.15h-1.4l-2.3 4.1zm7.55-2.95h2.75v7.95h1.2v-7.95h2.75v-1.1h-6.7v1.1zm10.5-1.15l-3.75 9.05h1.35l.85-2.25h4.1l.9 2.25h1.35l-3.7-9.05h-1.1zm-1.15 5.75l1.6-4.25 1.6 4.25h-3.2zm12.85-1.6c.4-.4.6-.95.6-1.6 0-.45-.1-.85-.25-1.15-.15-.3-.4-.6-.65-.75-.3-.2-.6-.35-1-.45-.35-.1-.75-.15-1.2-.15h-2.75v9.05h1.2v-4.05h1.3l2.2 4.05h1.45l-2.4-4.15c.65-.15 1.15-.4 1.5-.8zm-2.65-.15h-1.4v-2.9h1.45c.25 0 .5 0 .75.05s.45.15.6.25c.15.1.3.25.4.45.1.2.15.4.15.7 0 .25-.05.5-.15.7-.1.2-.25.35-.45.45-.2.1-.4.2-.65.25-.15 0-.4.05-.7.05zm12.9-2.9c-.4-.4-.9-.75-1.45-.95-.55-.25-1.15-.35-1.8-.35-.65 0-1.25.1-1.8.35-.55.25-1.05.55-1.45.95-.4.4-.7.9-.95 1.5s-.35 1.25-.35 1.95.1 1.35.35 1.95c.25.6.55 1.1.95 1.5.4.4.9.75 1.45 1 .55.25 1.15.35 1.8.35.65 0 1.25-.1 1.8-.35.55-.25 1.05-.55 1.45-1 .4-.4.7-.95.95-1.5.25-.6.35-1.25.35-1.95s-.1-1.35-.35-1.95c-.25-.6-.55-1.1-.95-1.5zm-.25 4.85c-.15.45-.35.85-.65 1.15-.3.35-.65.6-1.05.75-.4.2-.85.3-1.35.3-.5 0-.95-.1-1.35-.3-.4-.2-.75-.45-1-.75-.3-.35-.5-.7-.65-1.15-.15-.45-.25-.9-.25-1.4 0-.5.1-.95.25-1.4.15-.45.35-.85.65-1.15.3-.35.6-.6 1-.8.4-.2.85-.3 1.35-.3.5 0 .95.1 1.35.3.4.2.75.45 1.05.8.3.35.5.7.65 1.15.15.45.25.9.25 1.4 0 .5-.1.95-.25 1.4zm-80.05-22.8c-.35 0-.75.05-1.15.1-.4.1-.8.2-1.3.35v-3.4h4.8c.3 0 .55-.05.75-.2.2-.15.25-.35.25-.6s-.1-.5-.25-.6c-.15-.15-.4-.2-.75-.2h-5.35c-.35 0-.6.05-.75.15-.15.1-.2.25-.2.5v5.25c0 .4.05.7.15.85.1.15.25.25.45.25.15 0 .5-.15 1.1-.45.6-.3 1.25-.45 1.85-.45.85 0 1.55.3 2.1.85.55.6.85 1.3.85 2.2 0 .9-.3 1.6-.9 2.2-.6.55-1.35.85-2.3.85-.65 0-1.35-.15-2.1-.4s-1.15-.4-1.25-.4c-.2 0-.35.05-.5.2-.15.15-.2.3-.2.5 0 .45.4.85 1.2 1.15.8.3 1.8.5 2.95.5 1.4 0 2.55-.45 3.5-1.3.9-.85 1.35-2 1.35-3.3 0-1.25-.4-2.35-1.25-3.2-.8-1-1.85-1.4-3.05-1.4zm14.75 7.4c-.15-.1-.55-.15-1.2-.15h-1.7v-11.4c0-.2-.05-.4-.1-.5-.1-.1-.2-.2-.3-.2h-.25l-.25.05-3.15.85c-.25.05-.4.15-.5.3-.1.15-.2.25-.2.45s.05.35.2.5c.15.1.3.2.55.2h.1c.05 0 .1 0 .2-.05l2-.45v10.3h-1.75c-.65 0-1 .05-1.2.15-.15.1-.25.3-.25.55 0 .25.05.45.2.55.15.15.35.2.65.2h6.3c.3 0 .5-.05.65-.2.15-.15.2-.3.2-.55.05-.3-.05-.5-.2-.6zm10.5 1.15c.1-.1.15-.3.2-.5l.1-.8v-.2c0-.25-.05-.5-.2-.65-.15-.15-.3-.25-.55-.25-.25 0-.4.1-.55.25-.15.15-.2.4-.25.7h-4.8l1.3-1.25c.3-.3.8-.75 1.4-1.35 2.4-2.3 3.6-4.1 3.6-5.5 0-1.1-.4-2-1.2-2.75-.8-.75-1.75-1.15-2.95-1.15-.7 0-1.4.15-2.05.4-.65.25-1.2.6-1.65 1.05-.15.15-.25.25-.25.35-.05.1-.05.3-.05.55 0 .45.05.75.15.9.1.15.3.25.55.25.3 0 .6-.25.9-.7l.2-.3c.25-.3.55-.55 1-.75.4-.2.85-.25 1.25-.25.7 0 1.25.25 1.65.7.45.45.65 1.1.65 1.85 0 1.05-1.2 2.7-3.65 5-.4.35-.7.65-.9.85l-.3.3c-1.35 1.25-2 2.1-2 2.55 0 .3.1.55.25.7.2.15.45.25.85.25h7c.05-.05.2-.1.3-.25zm10.25-11.6c-.8-1.25-1.85-1.9-3.15-1.9-1.3 0-2.35.6-3.15 1.85-.8 1.25-1.15 2.95-1.15 5.1 0 2.15.4 3.9 1.15 5.15.8 1.25 1.85 1.85 3.15 1.85 1.3 0 2.35-.65 3.15-1.9.8-1.25 1.15-2.95 1.15-5.1 0-2.1-.4-3.8-1.15-5.05zm-1.25 9.2c-.45.95-1.1 1.45-1.9 1.45-.8 0-1.45-.5-1.9-1.45-.45-.95-.65-2.3-.65-4.05s.2-3.1.65-4.05c.45-.95 1.1-1.45 1.9-1.45.8 0 1.45.5 1.9 1.45.45.95.7 2.3.7 4.05-.05 1.75-.25 3.1-.7 4.05zm19 2.45c.8.3 1.8.5 2.95.5 1.4 0 2.55-.45 3.5-1.3.9-.85 1.35-2 1.35-3.3 0-1.25-.4-2.35-1.25-3.2-.8-.85-1.85-1.3-3.05-1.3-.35 0-.75.05-1.15.1-.4.1-.8.2-1.3.35v-3.4h4.8c.3 0 .55-.05.75-.2.2-.15.25-.35.25-.6s-.1-.5-.25-.6c-.15-.15-.4-.2-.75-.2h-5.35c-.35 0-.6.05-.75.15-.15.1-.2.25-.2.5v5.25c0 .4.05.7.15.85.1.15.25.25.45.25.15 0 .5-.15 1.1-.45.6-.3 1.25-.45 1.85-.45.85 0 1.55.3 2.1.85.55.6.85 1.3.85 2.2 0 .9-.3 1.6-.9 2.2-.6.55-1.35.85-2.3.85-.65 0-1.35-.15-2.1-.4s-1.15-.4-1.25-.4c-.2 0-.35.05-.5.2-.15.15-.2.3-.2.5 0 .35.4.75 1.2 1.05zm18.3-1.2c-.15-.1-.55-.15-1.2-.15h-1.7v-11.4c0-.2-.05-.4-.1-.5-.1-.1-.2-.2-.3-.2h-.25l-.25.05-3.15.85c-.25.05-.4.15-.5.3-.1.15-.2.25-.2.45s.05.35.2.5c.15.1.3.2.55.2h.1c.05 0 .1 0 .2-.05l2-.45v10.3h-1.75c-.65 0-1 .05-1.2.15-.15.1-.25.3-.25.55 0 .25.05.45.2.55.15.15.35.2.65.2h6.3c.3 0 .5-.05.65-.2.15-.15.2-.3.2-.55.05-.3-.05-.5-.2-.6zm10.05-1.25c-.25 0-.4.1-.55.25-.15.15-.2.4-.25.7h-4.8l1.3-1.25c.3-.3.8-.75 1.4-1.35 2.4-2.3 3.6-4.1 3.6-5.5 0-1.1-.4-2-1.2-2.75-.8-.75-1.75-1.15-2.95-1.15-.7 0-1.4.15-2.05.4-.65.25-1.2.6-1.65 1.05-.15.15-.25.25-.25.35-.05.1-.05.3-.05.55 0 .45.05.75.15.9.1.15.3.25.55.25.3 0 .6-.25.9-.7l.2-.3c.25-.3.55-.55 1-.75.4-.2.85-.25 1.25-.25.7 0 1.25.25 1.65.7.45.45.65 1.1.65 1.85 0 1.05-1.2 2.7-3.65 5-.4.35-.7.65-.9.85l-.3.3c-1.35 1.25-2 2.1-2 2.55 0 .3.1.55.25.7.2.15.45.25.85.25h7c.15 0 .3-.05.4-.2.1-.1.15-.3.2-.5l.1-.8v-.2c0-.25-.05-.5-.2-.65-.25-.25-.4-.3-.65-.3zm7.55-11.05c-1.3 0-2.35.6-3.15 1.85-.8 1.25-1.15 2.95-1.15 5.1 0 2.15.4 3.9 1.15 5.15.8 1.25 1.85 1.85 3.15 1.85 1.3 0 2.35-.65 3.15-1.9.8-1.25 1.15-2.95 1.15-5.1 0-2.15-.4-3.85-1.15-5.1-.8-1.25-1.85-1.85-3.15-1.85zm1.9 11.05c-.45.95-1.1 1.45-1.9 1.45-.8 0-1.45-.5-1.9-1.45-.45-.95-.7-2.3-.7-4.05s.2-3.1.7-4.05c.45-.95 1.1-1.45 1.9-1.45.8 0 1.45.5 1.9 1.45.45.95.65 2.3.65 4.05s-.2 3.1-.65 4.05zm21.75-6.15c-.35 0-.75.05-1.15.1-.4.1-.8.2-1.3.35v-3.4h4.8c.3 0 .55-.05.75-.2.2-.15.25-.35.25-.6s-.1-.5-.25-.6c-.15-.1-.4-.2-.75-.2h-5.35c-.35 0-.6.05-.75.15-.15.1-.2.25-.2.5v5.25c0 .4.05.7.15.85.1.15.25.25.45.25.15 0 .5-.15 1.1-.45.6-.3 1.25-.45 1.85-.45.85 0 1.55.3 2.1.85.55.6.85 1.3.85 2.2 0 .9-.3 1.6-.9 2.2-.6.55-1.35.85-2.3.85-.65 0-1.35-.15-2.1-.4s-1.15-.4-1.25-.4c-.2 0-.35.05-.5.2-.15.15-.2.3-.2.5 0 .45.4.85 1.2 1.15.8.3 1.8.5 2.95.5 1.4 0 2.55-.45 3.5-1.3.9-.85 1.35-2 1.35-3.3 0-1.25-.4-2.35-1.25-3.2-.8-1-1.85-1.4-3.05-1.4zm14.75 7.4c-.15-.1-.55-.15-1.2-.15h-1.7v-11.4c0-.2-.05-.4-.1-.5-.1-.1-.2-.2-.3-.2h-.25l-.25.05-3.15.85c-.25.05-.4.15-.5.3-.1.15-.2.25-.2.45s.05.35.2.5c.15.1.3.2.55.2h.1c.05 0 .1 0 .2-.05l2-.45v10.3h-1.75c-.65 0-1 .05-1.2.15-.15.1-.25.3-.25.55 0 .25.05.45.2.55.15.15.35.2.65.2h6.3c.3 0 .5-.05.65-.2.15-.15.2-.3.2-.55.05-.3-.05-.5-.2-.6zm10.05-1.25c-.25 0-.4.1-.55.25-.15.15-.2.4-.25.7h-4.8l1.3-1.25c.3-.3.8-.75 1.4-1.35 2.4-2.3 3.6-4.1 3.6-5.5 0-1.1-.4-2-1.2-2.75-.8-.75-1.75-1.15-2.95-1.15-.7 0-1.4.15-2.05.4-.65.25-1.2.6-1.65 1.05-.15.15-.25.25-.25.35-.05.1-.05.3-.05.55 0 .45.05.75.15.9.1.15.3.25.55.25.3 0 .6-.25.9-.7l.2-.3c.25-.3.55-.55 1-.75.4-.2.85-.25 1.25-.25.7 0 1.25.25 1.65.7.45.45.65 1.1.65 1.85 0 1.05-1.2 2.7-3.65 5-.4.35-.7.65-.9.85l-.3.3c-1.35 1.25-2 2.1-2 2.55 0 .3.1.55.25.7.2.15.45.25.85.25h7c.15 0 .3-.05.4-.2.1-.1.15-.3.2-.5l.1-.8v-.2c0-.25-.05-.5-.2-.65-.25-.25-.4-.3-.65-.3zm7.55-11.05c-1.3 0-2.35.6-3.15 1.85-.8 1.25-1.15 2.95-1.15 5.1 0 2.15.4 3.9 1.15 5.15.8 1.25 1.85 1.85 3.15 1.85 1.3 0 2.35-.65 3.15-1.9.8-1.25 1.15-2.95 1.15-5.1 0-2.15-.4-3.85-1.15-5.1-.8-1.25-1.85-1.85-3.15-1.85zm1.9 11.05c-.45.95-1.1 1.45-1.9 1.45-.8 0-1.45-.5-1.9-1.45-.45-.95-.65-2.3-.65-4.05s.2-3.1.65-4.05c.45-.95 1.1-1.45 1.9-1.45.8 0 1.45.5 1.9 1.45.45.95.65 2.3.65 4.05s-.2 3.1-.65 4.05zm22.15-6.15c-.35 0-.75.05-1.15.1-.4.1-.8.2-1.3.35v-3.4h4.8c.3 0 .55-.05.75-.2.2-.15.25-.35.25-.6s-.1-.5-.25-.6c-.15-.15-.4-.2-.75-.2h-5.35c-.35 0-.6.05-.75.15-.15.1-.2.25-.2.5v5.25c0 .4.05.7.15.85.1.15.25.25.45.25.15 0 .5-.15 1.1-.45.6-.3 1.25-.45 1.85-.45.85 0 1.55.3 2.1.85.55.6.85 1.3.85 2.2 0 .9-.3 1.6-.9 2.2-.6.55-1.35.85-2.3.85-.65 0-1.35-.15-2.1-.4s-1.15-.4-1.25-.4c-.2 0-.35.05-.5.2-.15.15-.2.3-.2.5 0 .45.4.85 1.2 1.15.8.3 1.8.5 2.95.5 1.4 0 2.55-.45 3.5-1.3.9-.85 1.35-2 1.35-3.3 0-1.25-.4-2.35-1.25-3.2-.8-1-1.85-1.4-3.05-1.4zm14.75 7.4c-.15-.1-.55-.15-1.2-.15h-1.7v-11.4c0-.2-.05-.4-.1-.5-.1-.1-.2-.2-.3-.2h-.25l-.25.05-3.15.85c-.25.05-.4.15-.5.3-.1.15-.2.25-.2.45s.05.35.2.5c.15.1.3.2.55.2h.1c.05 0 .1 0 .2-.05l2-.45v10.3h-1.75c-.65 0-1 .05-1.2.15-.15.1-.25.3-.25.55 0 .25.05.45.2.55.15.15.35.2.65.2h6.3c.3 0 .5-.05.65-.2.15-.15.2-.3.2-.55.05-.3-.05-.5-.2-.6zm10.05-1.25c-.25 0-.4.1-.55.25-.15.15-.2.4-.25.7h-4.8l1.3-1.25c.3-.3.8-.75 1.4-1.35 2.4-2.3 3.6-4.1 3.6-5.5 0-1.1-.4-2-1.2-2.75-.8-.75-1.75-1.15-2.95-1.15-.7 0-1.4.15-2.05.4-.65.25-1.2.6-1.65 1.05-.15.15-.25.25-.25.35-.05.1-.05.3-.05.55 0 .45.05.75.15.9.1.15.3.25.55.25.3 0 .6-.25.9-.7l.2-.3c.25-.3.55-.55 1-.75.4-.2.85-.25 1.25-.25.7 0 1.25.25 1.65.7.45.45.65 1.1.65 1.85 0 1.05-1.2 2.7-3.65 5-.4.35-.7.65-.9.85l-.3.3c-1.35 1.25-2.05 2.1-2.05 2.55 0 .3.1.55.25.7.2.15.45.25.85.25h7c.15 0 .3-.05.4-.2.1-.1.15-.3.2-.5l.1-.8v-.2c0-.25-.05-.5-.2-.65-.2-.25-.35-.3-.6-.3zm10.7-9.2c-.8-1.25-1.85-1.9-3.15-1.9-1.3 0-2.35.6-3.15 1.85-.8 1.25-1.15 2.95-1.15 5.1 0 2.15.4 3.9 1.15 5.15.8 1.25 1.85 1.85 3.15 1.85 1.3 0 2.35-.65 3.15-1.9.8-1.25 1.15-2.95 1.15-5.1 0-2.1-.4-3.8-1.15-5.05zm-1.25 9.2c-.45.95-1.1 1.45-1.9 1.45-.8 0-1.45-.5-1.9-1.45-.45-.95-.7-2.3-.7-4.05s.25-3.1.7-4.05c.45-.95 1.1-1.45 1.9-1.45.8 0 1.45.5 1.9 1.45.45.95.65 2.3.65 4.05s-.2 3.1-.65 4.05z"/></svg>