<svg xmlns="http://www.w3.org/2000/svg" width="119" height="167"><path fill="#fff" d="M.5 59.75c0 29.6 21.65 54.1 50 58.55v6.2h5v29h.5v10.5h7.5v-10.5h.5v-29h5.5v-6.3c28.1-4.65 49.5-29.05 49.5-58.45 0-32.7-26.55-59.25-59.25-59.25s-59.25 26.55-59.25 59.25z"/><path fill="#00a0c9" d="M0 59.7c0 28.25 19.55 51.85 45.85 58.2 1.5.4 2.65 1.5 2.65 3.4 0 3 3 4.5 6 4.9v26.5c0 1.15.2 2 1 2.85l-1 7.5 4 3.5h2.5l4-3.5-1-7.5c.8-.8 1-1.65 1-2.85v-26.5c3.4-.4 6-1.9 6-4.9 0-1.9 2.65-3.4 4.5-4.15 25.2-6.75 43.95-29.9 43.95-57.45.05-32.95-26.65-59.7-59.7-59.7-33 0-59.75 26.75-59.75 59.7zm63 92.3v1c0 .65-.45 1.1-1 1.5h-.5l.8 7.65-1.8 1.85h-1.5l-2-2 1-7.5h-.5c-.55-.25-1-.9-1-1.5v-1c2 .3 4.5.3 6.5 0zm0-8.5v7c-2 .3-4.5.3-6.5 0v-7c2 .3 4.5.3 6.5 0zm0-9v7c-2 .3-4.5.3-6.5 0v-7c2 .3 4.5.3 6.5 0zm0-8v6c-2 .3-4.5.3-6.5 0v-6h6.5zm54.25-66.8c0 26.3-17.3 48.8-42.4 55.45-3.15.9-6.1 2.75-6.1 5.95 0 2.45-4.9 2.8-9 2.8-5.25 0-9-.4-9-2.85 0-3.15-.4-4.65-4.25-5.45-30.7-7.1-44.25-34.5-44.25-55.9 0-31.55 25.95-57.45 57.5-57.45s57.5 25.9 57.5 57.45zm-111.75.05c0 29.95 24.3 54.25 54.25 54.25s54.25-24.3 54.25-54.25-24.3-54.25-54.25-54.25-54.25 24.3-54.25 54.25zm107.75 0c0 29.75-23.8 53.5-53.5 53.5-29.75 0-53.5-23.8-53.5-53.5s23.8-53.5 53.5-53.5c29.75 0 53.5 23.8 53.5 53.5zm-84.6 11.75c-.1-.55 0-1.15.25-1.65v-.05l-.05-.05c-3.8-.4-6.9-3.35-7.5-7.15-.05-.45-.1-.9-.1-1.35 0-4.15 3.1-7.8 7.2-8.45.35-.05.7-.25.9-.55.2-.3.3-.65.25-1-.1-.65-.65-1.15-1.35-1.15h-.2c-2.65.45-5.1 1.8-6.8 3.85-1.7 2.05-2.65 4.65-2.65 7.3 0 .6.05 1.2.15 1.8.8 5.1 5.15 9.05 10.25 9.45l.05-.05v-.05c-.25-.3-.35-.6-.4-.9zm45.65-8.7v4.1c0 .05.05.1.1.1h1.8c.05 0 .1-.05.1-.1v-4.1c0-.9.75-1.65 1.65-1.65.9 0 1.65.75 1.65 1.65v4.1c0 .05.05.1.1.1h1.8c.05 0 .1-.05.1-.1v-4.1c0-2-1.65-3.6-3.65-3.6-2.05-.05-3.65 1.6-3.65 3.6zm-5.05 4.1c0 .05.05.1.1.1h1.9c.05 0 .1-.05.1-.1v-7.05c0-.05-.05-.1-.1-.1h-1.9c-.05 0-.1.05-.1.1v7.05zm14.75-3.75c0 1.1.4 2 1.1 2.8.8.8 1.7 1.2 2.85 1.2 1.6 0 2.8-.7 3.55-2.15v-.1c0-.05-.05-.05-.1-.05h-2.15l-.05.05c-.35.25-.7.4-1.15.4-1 0-1.65-.45-1.85-1.3v-.05h5.7c.05 0 .1-.05.1-.1v-.05c0-2.75-1.6-4.55-4.1-4.55-1.05 0-2.05.4-2.8 1.2-.7.7-1.1 1.65-1.1 2.7zm5.9-.75l.05.1h-3.75v-.05c.15-.75.9-1.3 1.85-1.3.9-.05 1.55.45 1.85 1.25zm-20.8-4.65c0 .7.55 1.25 1.25 1.25s1.25-.55 1.25-1.25-.55-1.25-1.25-1.25-1.25.55-1.25 1.25zm-38.55-7.65c.15.3.3.6.35.95.1.55 0 1.15-.25 1.65v.05l.05.05c3.8.4 6.9 3.35 7.5 7.15.05.45.1.9.1 1.35 0 4.15-3.1 7.8-7.2 8.45-.35.05-.65.25-.9.55-.2.3-.3.65-.25 1 .1.65.65 1.15 1.35 1.15h.2c2.65-.4 5.1-1.8 6.8-3.85 1.7-2.05 2.65-4.65 2.65-7.3 0-.6-.05-1.2-.15-1.8-.8-5.1-5.15-9.05-10.25-9.45l-.05.05h.05zm22.7 10.55c0 .05.05.05.1.05h2.5l.1-.05v-.1c-.65-2.25-2.75-3.85-5.1-3.85-2.95 0-5.3 2.35-5.3 5.25s2.4 5.25 5.3 5.25c2.35 0 4.45-1.55 5.1-3.8v-.1c0-.05-.05-.05-.1-.05h-2.5l-.1.05c-.5 1-1.4 1.6-2.45 1.6-1.55 0-2.75-1.3-2.75-2.95 0-1.6 1.25-2.95 2.75-2.95 1 .05 1.95.65 2.45 1.65zm12.1 5.4c.8-.75 1.15-1.7 1.15-2.85 0-1.05-.45-2.1-1.25-2.85s-1.75-1.1-2.85-1.1c-1.05 0-2.05.4-2.85 1.2-.75.75-1.15 1.75-1.15 2.8 0 1.1.4 2.05 1.15 2.8.8.8 1.75 1.2 2.9 1.2s2.1-.4 2.9-1.2zm-4.85-2.8c0-1.1.85-2 1.95-2 1.05 0 1.95.9 1.95 2s-.85 2-1.95 2c-1.05 0-1.95-.9-1.95-2zm33.25-3.65l2.75 7-1.1 2.75v.1l.1.05h1.9l.1-.05 3.95-9.8v-.1c0-.05-.05-.05-.1-.05h-2.05l-.1.05-1.65 4.5-1.45-4.5c0-.05-.05-.1-.1-.1h-2.15l-.1.05c-.05.05-.05.1 0 .1zm-66.35-.3c-.1-.3-.35-.5-.65-.5h-1.25c-.2 0-.4.1-.5.25-.1.15-.2.35-.15.55.45 2.4 2.5 4.1 4.9 4.1 2.4 0 4.45-1.7 4.9-4.1.05-.2 0-.4-.15-.55-.1-.15-.3-.25-.5-.25h-1.3c-.3 0-.55.2-.65.5-.3 1.1-1.25 1.85-2.35 1.85-1.05 0-2-.75-2.3-1.85z"/></svg>