<svg xmlns="http://www.w3.org/2000/svg" viewBox="0 0 37 23" enable-background="new 0 0 37 23"><path d="M35.342 23h-33.684c-.916 0-1.658-.742-1.658-1.658v-19.684c0-.916.742-1.658 1.658-1.658h33.684c.916 0 1.658.742 1.658 1.658v19.684c0 .916-.742 1.658-1.658 1.658z" fill="#fff"/><path d="M35.5.5c.551 0 1 .449 1 1v20c0 .551-.449 1-1 1h-34c-.551 0-1-.449-1-1v-20c0-.551.449-1 1-1h34m0-.5h-34c-.828 0-1.5.672-1.5 1.5v20c0 .828.672 1.5 1.5 1.5h34c.828 0 1.5-.672 1.5-1.5v-20c0-.828-.672-1.5-1.5-1.5z" fill="#C9CACA"/><path d="M24.225 13.516h1.663l.198-.019c.319-.068.585-.352.585-.738s-.266-.67-.585-.739l-.198-.019h-1.663v1.515zM25.694 3.032c-1.587 0-2.873 1.286-2.873 2.873v2.984h4.066l.282.01c.92.046 1.598.518 1.598 1.339 0 .645-.463 1.196-1.308 1.319v.033c.932.064 1.646.578 1.646 1.386 0 .875-.783 1.437-1.828 1.437h-4.457v5.857h4.214c1.587 0 2.873-1.286 2.873-2.873v-14.365h-4.213zM26.475 10.446c0-.379-.266-.634-.578-.686l-.164-.013h-1.507v1.399h1.507l.164-.013c.312-.053.578-.307.578-.687z" fill="#2F8E3A"/><path d="M9.797 3.032c-1.587 0-2.873 1.286-2.873 2.873v7.095c.806.391 1.638.645 2.485.645.993 0 1.539-.607 1.539-1.422v-3.334h2.471v3.334c0 1.304-.8 2.349-3.546 2.349-1.653 0-2.949-.356-2.949-.356v6.055h4.214c1.587 0 2.873-1.286 2.873-2.873v-14.366h-4.214z" fill="#1A306A"/><path d="M17.745 3.032c-1.587 0-2.873 1.286-2.873 2.873v3.761c.728-.624 1.987-1.014 4.032-.922 1.095.049 2.256.342 2.256.342v1.217c-.581-.294-1.278-.568-2.175-.635-1.552-.117-2.487.641-2.487 1.984s.934 2.101 2.487 1.983c.897-.067 1.604-.348 2.175-.635v1.216s-1.161.294-2.256.343c-2.045.092-3.304-.298-4.032-.922v6.634h4.214c1.586 0 2.873-1.286 2.873-2.873v-14.366h-4.214z" fill="#B91C22"/></svg>