<svg xmlns="http://www.w3.org/2000/svg" xmlns:xlink="http://www.w3.org/1999/xlink" width="24" height="18">
  <path id="Shape" fill="#1e9476" type="MSShapeGroup" d="M17,3L17,18L21.457,18C23.138,18,24.5,16.656,24.5,15L24.5,0L20.036,0C18.355,0,17,1.343,17,3Z"/>
  <path id="Shape" fill="#e35b68" type="MSShapeGroup" d="M8.5,3L8.5,18L12.959,18C14.639,18,16,16.656,16,15L16,0L11.541,0C9.861,0,8.5,1.343,8.5,3Z"/>
  <path id="Shape" fill="#247bb5" type="MSShapeGroup" d="M0,3L0,18L4.457,18C6.138,18,7.5,16.656,7.5,15L7.5,0L3.036,0C1.355,0,0,1.343,0,3Z"/>
  <path fill="#ffffff" type="MSShapeGroup" d="M2.488,11.028C1.64,11.028,0.806,10.759,0,10.347L0,11.63C0,11.63,1.298,12.006,2.952,12.006C5.701,12.006,6.502,10.903,6.502,9.527L6.502,6.01L4.028,6.01L4.028,9.527C4.028,10.387,3.482,11.028,2.488,11.028ZM8.5,11.056C9.252,11.7,10.558,12.102,12.672,12.007C13.804,11.957,15.003,11.654,15.003,11.654L15.003,10.401C14.413,10.697,13.683,10.986,12.755,11.055C11.15,11.176,10.184,10.395,10.184,9.011C10.184,7.627,11.15,6.845,12.755,6.966C13.682,7.035,14.403,7.317,15.003,7.62L15.003,6.366C15.003,6.366,13.804,6.064,12.672,6.014C10.557,5.919,9.252,6.32,8.5,6.964L8.5,11.056ZM21.797,8.937L21.797,8.901C22.672,8.768,23.152,8.171,23.152,7.472C23.152,6.582,22.449,6.07,21.496,6.02L21.205,6.009L16.993,6.009L16.993,11.996L21.609,11.996C22.691,11.996,23.503,11.386,23.503,10.439C23.503,9.563,22.763,9.006,21.797,8.937ZM18.494,7.001L20.171,7.001L20.354,7.014C20.701,7.071,20.997,7.344,20.997,7.751C20.997,8.158,20.702,8.43,20.354,8.488L20.171,8.502L18.494,8.502L18.494,7.001ZM20.399,10.988C20.351,10.999,20.25,11.007,20.196,11.007L18.495,11.007L18.495,9.506L20.196,9.506C20.25,9.506,20.351,9.514,20.399,9.525C20.726,9.593,20.998,9.875,20.998,10.257C20.998,10.64,20.726,10.921,20.399,10.988Z"/>

</svg>

