<svg xmlns="http://www.w3.org/2000/svg" xmlns:xlink="http://www.w3.org/1999/xlink" width="100%" height="100%">
  <path d="M15.000000,14.000000L15.000000,14.000000C15.000000,14.000000,15.000000,14.000000,15.000000,14.000000L15.000000,14.000000C16.104570,14.000000,17.000000,14.895431,17.000000,16.000000C17.000000,16.000000,17.000000,16.000000,17.000000,16.000000C17.000000,16.000000,17.000000,16.000000,17.000000,16.000000L17.000000,16.000000C17.000000,16.000000,17.000000,16.000000,17.000000,16.000000L17.000000,16.000000C17.000000,17.104570,16.104570,18.000000,15.000000,18.000000C15.000000,18.000000,15.000000,18.000000,15.000000,18.000000C15.000000,18.000000,15.000000,18.000000,15.000000,18.000000L15.000000,18.000000C15.000000,18.000000,15.000000,18.000000,15.000000,18.000000L15.000000,18.000000C13.895431,18.000000,13.000000,17.104570,13.000000,16.000000C13.000000,16.000000,13.000000,16.000000,13.000000,16.000000C13.000000,16.000000,13.000000,16.000000,13.000000,16.000000L13.000000,16.000000C13.000000,16.000000,13.000000,16.000000,13.000000,16.000000L13.000000,16.000000C13.000000,14.895431,13.895431,14.000000,15.000000,14.000000C15.000000,14.000000,15.000000,14.000000,15.000000,14.000000L15.000000,14.000000M22.057329,14.000000L30.942671,14.000000C31.860514,14.000000,32.300686,14.000000,32.697628,14.130992L32.774509,14.149822C33.510281,14.417622,33.999996,15.117007,33.999996,15.900000C34.000000,16.000000,34.000000,16.000000,34.000000,16.000000L34.000000,16.000000C34.000000,16.000000,34.000000,16.000000,34.000000,16.000000L33.999996,16.100000C33.999996,16.882992,33.510281,17.582378,32.774509,17.850178C32.300686,18.000000,31.860514,18.000000,30.980169,18.000000L22.057329,18.000000C21.139486,18.000000,20.699314,18.000000,20.302368,17.869009L20.225487,17.850178C19.489716,17.582378,19.000000,16.882992,19.000000,16.100000C19.000000,16.000000,19.000000,16.000000,19.000000,16.000000L19.000000,16.000000C19.000000,16.000000,19.000000,16.000000,19.000000,16.000000L19.000000,15.900000C19.000000,15.117008,19.489716,14.417622,20.225487,14.149822C20.699314,14.000000,21.139486,14.000000,22.019831,14.000000L22.057329,14.000000M15.000000,18.000000L15.000000,18.000000C15.000000,18.000000,15.000000,18.000000,15.000000,18.000000L15.000000,18.000000C16.104570,18.000000,17.000000,18.895432,17.000000,20.000000C17.000000,20.000000,17.000000,20.000000,17.000000,20.000000C17.000000,20.000000,17.000000,20.000000,17.000000,20.000000L17.000000,20.000000C17.000000,20.000000,17.000000,20.000000,17.000000,20.000000L17.000000,20.000000C17.000000,21.104570,16.104570,22.000000,15.000000,22.000000C15.000000,22.000000,15.000000,22.000000,15.000000,22.000000C15.000000,22.000000,15.000000,22.000000,15.000000,22.000000L15.000000,22.000000C15.000000,22.000000,15.000000,22.000000,15.000000,22.000000L15.000000,22.000000C13.895431,22.000000,13.000000,21.104570,13.000000,20.000000C13.000000,20.000000,13.000000,20.000000,13.000000,20.000000C13.000000,20.000000,13.000000,20.000000,13.000000,20.000000L13.000000,20.000000C13.000000,20.000000,13.000000,20.000000,13.000000,20.000000L13.000000,20.000000C13.000000,18.895432,13.895431,18.000000,15.000000,18.000000C15.000000,18.000000,15.000000,18.000000,15.000000,18.000000L15.000000,18.000000M22.057329,18.000000L30.942671,18.000000C31.860514,18.000000,32.300686,18.000000,32.697628,18.130993L32.774509,18.149822C33.510281,18.417622,33.999996,19.117008,33.999996,19.900000C34.000000,20.000000,34.000000,20.000000,34.000000,20.000000L34.000000,20.000000C34.000000,20.000000,34.000000,20.000000,34.000000,20.000000L33.999996,20.100000C33.999996,20.882992,33.510281,21.582378,32.774509,21.850178C32.300686,22.000000,31.860514,22.000000,30.980169,22.000000L22.057329,22.000000C21.139486,22.000000,20.699314,22.000000,20.302368,21.869009L20.225487,21.850178C19.489716,21.582378,19.000000,20.882992,19.000000,20.100000C19.000000,20.000000,19.000000,20.000000,19.000000,20.000000L19.000000,20.000000C19.000000,20.000000,19.000000,20.000000,19.000000,20.000000L19.000000,19.900000C19.000000,19.117008,19.489716,18.417622,20.225487,18.149822C20.699314,18.000000,21.139486,18.000000,22.019831,18.000000L22.057329,18.000000M15.000000,22.000000L15.000000,22.000000C15.000000,22.000000,15.000000,22.000000,15.000000,22.000000L15.000000,22.000000C16.104570,22.000000,17.000000,22.895432,17.000000,24.000000C17.000000,24.000000,17.000000,24.000000,17.000000,24.000000C17.000000,24.000000,17.000000,24.000000,17.000000,24.000000L17.000000,24.000000C17.000000,24.000000,17.000000,24.000000,17.000000,24.000000L17.000000,24.000000C17.000000,25.104570,16.104570,26.000000,15.000000,26.000000C15.000000,26.000000,15.000000,26.000000,15.000000,26.000000C15.000000,26.000000,15.000000,26.000000,15.000000,26.000000L15.000000,26.000000C15.000000,26.000000,15.000000,26.000000,15.000000,26.000000L15.000000,26.000000C13.895431,26.000000,13.000000,25.104570,13.000000,24.000000C13.000000,24.000000,13.000000,24.000000,13.000000,24.000000C13.000000,24.000000,13.000000,24.000000,13.000000,24.000000L13.000000,24.000000C13.000000,24.000000,13.000000,24.000000,13.000000,24.000000L13.000000,24.000000C13.000000,22.895432,13.895431,22.000000,15.000000,22.000000C15.000000,22.000000,15.000000,22.000000,15.000000,22.000000L15.000000,22.000000M22.057329,22.000000L30.942671,22.000000C31.860514,22.000000,32.300686,22.000000,32.697628,22.130993L32.774509,22.149822C33.510281,22.417622,33.999996,23.117008,33.999996,23.900000C34.000000,24.000000,34.000000,24.000000,34.000000,24.000000L34.000000,24.000000C34.000000,24.000000,34.000000,24.000000,34.000000,24.000000L33.999996,24.100000C33.999996,24.882992,33.510281,25.582378,32.774509,25.850178C32.300686,26.000000,31.860514,26.000000,30.980169,26.000000L22.057329,26.000000C21.139486,26.000000,20.699314,26.000000,20.302368,25.869009L20.225487,25.850178C19.489716,25.582378,19.000000,24.882992,19.000000,24.100000C19.000000,24.000000,19.000000,24.000000,19.000000,24.000000L19.000000,24.000000C19.000000,24.000000,19.000000,24.000000,19.000000,24.000000L19.000000,23.900000C19.000000,23.117008,19.489716,22.417622,20.225487,22.149822C20.699314,22.000000,21.139486,22.000000,22.019831,22.000000L22.057329,22.000000"/>
</svg>
