<svg xmlns="http://www.w3.org/2000/svg" xmlns:xlink="http://www.w3.org/1999/xlink" width="100%" height="100%">
  <path d="M111.300003,47.080002C107.260002,21.740000,85.779999,1.940000,60.220001,0.000000C60.119999,0.000000,60.020000,0.040000,59.959999,0.130000C59.910000,0.220000,59.900002,0.330000,59.959999,0.420000C60.790001,1.870000,61.349998,3.440000,61.619999,5.090000C62.060001,7.890000,61.630001,10.710000,60.369999,13.250000C60.330002,13.340000,60.330002,13.430000,60.369999,13.520000C60.419998,13.600000,60.500000,13.650000,60.590000,13.660000C79.559998,15.730000,94.910004,30.350000,97.910004,49.220001C98.269997,51.430000,98.449997,53.709999,98.440002,56.000000C98.489998,76.709999,83.120003,94.790001,62.700001,98.059998C60.910000,98.339996,59.340000,99.309998,58.279999,100.779999C57.220001,102.250000,56.790001,104.040001,57.070000,105.830002C57.599998,109.150002,60.419998,111.550003,63.759998,111.550003C64.120003,111.550003,64.480003,111.519997,64.839996,111.470001C78.070000,109.349998,90.120003,102.519997,98.769997,92.239998C107.320000,82.080002,112.019997,69.199997,112.000000,56.000000C112.000000,53.000000,111.769997,49.990002,111.300003,47.080002ZM50.380001,106.910004C49.939999,104.110001,50.369999,101.290001,51.630001,98.750000C51.669998,98.669998,51.669998,98.570000,51.630001,98.480003C51.580002,98.400002,51.500000,98.349998,51.410000,98.339996C32.439999,96.269997,17.090000,81.650002,14.090000,62.779999C13.730000,60.570000,13.550000,58.290001,13.560000,56.000000C13.510000,35.299999,28.879999,17.219999,49.299999,13.940000C51.090000,13.660000,52.660000,12.690000,53.720001,11.220000C54.779999,9.750000,55.209999,7.960000,54.930000,6.170000C54.400002,2.850000,51.580002,0.450000,48.240002,0.450000C47.880001,0.450000,47.520000,0.470000,47.160000,0.530000C33.930000,2.650000,21.879999,9.480000,13.230000,19.750000C4.680000,29.920000,-0.020000,42.799999,0.000000,56.000000C0.000000,59.000000,0.230000,62.009998,0.700000,64.930000C4.740000,90.269997,26.219999,110.059998,51.779999,112.000000C51.970001,112.000000,52.099998,111.870003,52.099998,111.720001C52.099998,111.639999,52.060001,111.559998,52.009998,111.510002C51.189999,110.089996,50.639999,108.540001,50.380001,106.910004Z"/>
</svg>
