<svg xmlns="http://www.w3.org/2000/svg"><path d="m49 4c.180001-.949997-.069999-1.930001-.689994-2.680001-.620003-.75-1.529999-1.179996-2.5-1.179996h-6.380005c-1.469994 0-2.75.979999-3.129998 2.399998-1.459999 5.380001-6.239997 9.139999-11.639999 9.139999s-10.18-3.759998-11.630001-9.139999c-.389999-1.419999-1.669998-2.399998-3.139999-2.399998h-6.369999c-.970002 0-1.89.429996-2.510003 1.179996-.609998.75-.869998 1.730004-.679998 2.680001 2.269999 11.830001 12.499998 20.409999 24.33 20.409999s22.07-8.579998 24.339996-20.409999z"/></svg>
