<svg xmlns="http://www.w3.org/2000/svg" xmlns:xlink="http://www.w3.org/1999/xlink" width="100%" height="100%">
  <path d="M51.060001,33.849998L38.759998,33.849998C38.549999,33.849998,38.349998,33.980000,38.250000,34.169998C35.880001,39.070000,31.230000,42.119999,26.100000,42.119999C18.549999,42.119999,12.400000,35.520000,12.400000,27.410000C12.400000,19.299999,18.549999,12.700000,26.100000,12.700000C31.209999,12.700000,36.009998,15.880000,38.330002,20.799999C38.419998,21.000000,38.619999,21.129999,38.840000,21.129999L51.110001,21.129999C51.279999,21.129999,51.450001,21.040001,51.560001,20.900000C51.660000,20.760000,51.700001,20.580000,51.650002,20.400000C48.509998,9.090000,38.090000,1.190000,26.299999,1.190000C11.800000,1.190000,0.000000,12.950000,0.000000,27.410000C0.000000,41.869999,11.800000,53.630001,26.299999,53.630001C38.009998,53.630001,48.410000,45.799999,51.610001,34.580002C51.660000,34.410000,51.619999,34.220001,51.520000,34.080002C51.410000,33.939999,51.240002,33.849998,51.060001,33.849998ZM83.660004,13.600000C78.459999,13.600000,73.489998,15.720000,69.650002,19.559999C65.849998,23.370001,63.849998,28.209999,63.849998,33.549999C63.849998,38.939999,65.779999,43.799999,69.440002,47.619999C73.320000,51.730000,78.019997,53.720001,83.809998,53.720001C89.440002,53.720001,94.300003,51.709999,98.250000,47.759998C102.099998,43.889999,103.980003,39.189999,103.980003,33.410000C103.980003,28.100000,101.709999,22.900000,97.750000,19.139999C93.870003,15.460000,89.129997,13.600000,83.660004,13.600000ZM83.879997,43.689999C78.589996,43.689999,74.279999,39.209999,74.279999,33.700001C74.279999,28.150000,78.589996,23.629999,83.879997,23.629999C89.160004,23.629999,93.470001,28.150000,93.470001,33.700001C93.470001,39.209999,89.160004,43.689999,83.879997,43.689999ZM127.629997,16.150000L118.169998,16.150000C117.860001,16.150000,117.599998,16.410000,117.599998,16.719999L117.599998,52.090000C117.599998,52.410000,117.860001,52.660000,118.169998,52.660000L127.629997,52.660000C127.940002,52.660000,128.190002,52.410000,128.190002,52.090000L128.190002,16.719999C128.190002,16.410000,127.940002,16.150000,127.629997,16.150000ZM122.900002,0.000000C119.489998,0.000000,116.720001,2.780000,116.720001,6.200000C116.720001,9.610000,119.489998,12.390000,122.900002,12.390000C126.300003,12.390000,129.070007,9.610000,129.070007,6.200000C129.070007,2.780000,126.300003,0.000000,122.900002,0.000000ZM160.440002,13.400000C150.500000,13.400000,142.410004,21.510000,142.410004,31.490000L142.410004,52.090000C142.410004,52.410000,142.660004,52.660000,142.979996,52.660000L151.759995,52.660000C152.070007,52.660000,152.330002,52.410000,152.330002,52.090000L152.330002,31.490000C152.330002,27.000000,155.970001,23.350000,160.440002,23.350000C164.910004,23.350000,168.550003,27.000000,168.550003,31.490000L168.550003,52.090000C168.550003,52.410000,168.809998,52.660000,169.119995,52.660000L177.910004,52.660000C178.220001,52.660000,178.470001,52.410000,178.470001,52.090000L178.470001,31.490000C178.479996,21.510000,170.380005,13.400000,160.440002,13.400000ZM209.990005,13.610000C204.839996,13.610000,199.910004,15.710000,196.119995,19.520000C192.360001,23.290001,190.369995,28.080000,190.369995,33.360001C190.369995,38.750000,192.240005,43.459999,195.910004,47.360001C199.750000,51.430000,204.399994,53.410000,210.130005,53.410000C218.149994,53.410000,224.100006,49.820000,227.809998,42.759998C227.910004,42.580002,227.899994,42.369999,227.800003,42.200001C227.690002,42.020000,227.509995,41.919998,227.309998,41.919998L216.630005,41.919998C216.490005,41.919998,216.369995,41.970001,216.270004,42.049999C214.610001,43.419998,212.770004,44.060001,210.490005,44.060001C205.570007,44.060001,202.429993,41.840000,201.399994,37.639999L201.309998,37.290001L229.610001,37.290001C229.919998,37.290001,230.169998,37.029999,230.169998,36.720001L230.169998,36.360001C230.169998,22.540001,222.250000,13.610000,209.990005,13.610000ZM201.139999,29.870001L201.210007,29.530001C202.029999,25.709999,205.600006,23.040001,210.300003,23.040001C214.899994,23.040001,218.199997,25.459999,219.589996,29.490000L219.720001,29.870001L201.139999,29.870001ZM276.899994,15.110000C276.799988,14.960000,276.619995,14.860000,276.429993,14.860000L266.200012,14.860000C265.970001,14.860000,265.750000,15.010000,265.670013,15.240000L257.489990,37.779999L250.250000,15.260000C250.169998,15.020000,249.949997,14.860000,249.710007,14.860000L239.139999,14.860000C238.949997,14.860000,238.770004,14.960000,238.669998,15.110000C238.559998,15.270000,238.539993,15.460000,238.610001,15.640000L252.190002,50.520000L246.850006,64.220001C246.779999,64.400002,246.800003,64.599998,246.910004,64.750000C247.020004,64.910004,247.190002,65.000000,247.380005,65.000000L256.859985,65.000000C257.089996,65.000000,257.299988,64.860001,257.390015,64.639999L276.959991,15.650000C277.029999,15.470000,277.010010,15.270000,276.899994,15.110000Z"/>
</svg>
