<svg xmlns="http://www.w3.org/2000/svg" xmlns:xlink="http://www.w3.org/1999/xlink" width="100%" height="100%">
  <path d="M80.339996,47.689999C80.519997,46.740002,80.269997,45.759998,79.650002,45.009998C79.029999,44.259998,78.120003,43.830002,77.150002,43.830002L70.769997,43.830002C69.300003,43.830002,68.019997,44.810001,67.639999,46.230000C66.180000,51.610001,61.400002,55.369999,56.000000,55.369999C50.599998,55.369999,45.820000,51.610001,44.369999,46.230000C43.980000,44.810001,42.700001,43.830002,41.230000,43.830002L34.860001,43.830002C33.889999,43.830002,32.970001,44.259998,32.349998,45.009998C31.740000,45.759998,31.480000,46.740002,31.670000,47.689999C33.939999,59.520000,44.169998,68.099998,56.000000,68.099998C67.830002,68.099998,78.070000,59.520000,80.339996,47.689999Z"/>
</svg>
