<svg xmlns="http://www.w3.org/2000/svg" width="33" height="20"><path fill="#f5f5f5" d="M2 19.75c-.965 0-1.75-.785-1.75-1.75v-16c0-.965.785-1.75 1.75-1.75h29c.965 0 1.75.785 1.75 1.75v16c0 .965-.785 1.75-1.75 1.75h-29z"/><path fill="#ececec" d="M31 .5c.827 0 1.5.673 1.5 1.5v16c0 .827-.673 1.5-1.5 1.5h-29c-.827 0-1.5-.673-1.5-1.5v-16c0-.827.673-1.5 1.5-1.5h29zm0-.5h-29c-1.105 0-2 .896-2 2v16c0 1.105.896 2 2 2h29c1.105 0 2-.896 2-2v-16c0-1.105-.896-2-2-2z"/><path id="Shape" fill="#eda442" d="M19.794 4.996c-2.878 0-5.211 2.353-5.21 5.254v.002c.001 2.902 2.335 5.253 5.213 5.252 2.878 0 5.211-2.353 5.21-5.254v-.003c-.001-2.901-2.334-5.252-5.213-5.251z"/><path fill="#d33e3a" d="M12.705 4.996c-2.878 0-5.211 2.353-5.21 5.254v.002c0 2.902 2.334 5.253 5.212 5.252 2.879 0 5.211-2.353 5.211-5.254v-.003c-.001-2.901-2.335-5.252-5.213-5.251z"/><path fill="#df703d" d="M17.917 10.25v-.002c0-1.52-.644-2.883-1.666-3.843-1.024.96-1.667 2.325-1.667 3.845v.003c.001 1.519.644 2.882 1.667 3.842 1.023-.96 1.667-2.325 1.666-3.845z"/></svg>