<svg xmlns="http://www.w3.org/2000/svg" viewBox="0 0 37 23" enable-background="new 0 0 37 23"><path d="M35.5 23h-34c-.828 0-1.5-.672-1.5-1.5v-20c0-.828.672-1.5 1.5-1.5h34c.828 0 1.5.672 1.5 1.5v20c0 .828-.672 1.5-1.5 1.5z" fill="#1F2E7A"/><path d="M15.971 11.5c0 2.259.979 4.283 2.529 5.691 1.55-1.407 2.529-3.432 2.529-5.691s-.979-4.283-2.529-5.691c-1.55 1.408-2.529 3.433-2.529 5.691z" fill="#EC671B"/><path d="M15.971 11.5c0-2.259.979-4.283 2.529-5.691-1.366-1.24-3.174-2.003-5.164-2.003-4.249 0-7.694 3.445-7.694 7.694 0 4.249 3.445 7.693 7.694 7.693 1.991 0 3.798-.762 5.164-2.003-1.55-1.407-2.529-3.431-2.529-5.69z" fill="#D83B35"/><path d="M23.665 3.807c-1.991 0-3.799.762-5.165 2.003 1.55 1.408 2.529 3.432 2.529 5.691s-.979 4.283-2.529 5.691c1.366 1.24 3.174 2.003 5.165 2.003 4.249 0 7.693-3.444 7.693-7.693 0-4.251-3.444-7.695-7.693-7.695z" fill="#F49C19"/><path fill="#fff" d="M9.735 13.117h-.835l.479-3-1.069 3h-.569l-.07-2.983-.503 2.983h-.782l.653-3.902h1.201l.033 2.415.811-2.415h1.297l-.646 3.902"/><path d="M12.399 13.117h-.692l.016-.329c-.211.26-.493.384-.875.384-.453 0-.763-.354-.763-.867 0-.773.54-1.223 1.466-1.223l.34.025.033-.206c0-.21-.145-.288-.536-.288-.409-.005-.746.097-.884.142l.116-.714c.416-.122.691-.168 1-.168.717 0 1.097.322 1.096.931.001.163-.026.365-.068.629-.072.458-.227 1.444-.249 1.684m-.607-1.414l-.186-.013c-.473 0-.713.162-.713.483 0 .197.117.324.299.324.34-.001.585-.325.6-.794zM23.602 9.32l-.137.847c-.298-.15-.514-.211-.746-.211-.624 0-1.061.603-1.061 1.462 0 .592.294.95.78.95.206 0 .433-.064.709-.2l-.147.889c-.308.084-.507.114-.738.114-.899 0-1.459-.647-1.459-1.685 0-1.395.774-2.37 1.881-2.37.365.001.796.155.918.204" fill="#fff"/><path d="M25.557 13.117h-.692l.016-.329c-.211.26-.493.384-.875.384-.453 0-.763-.354-.763-.867 0-.773.539-1.223 1.466-1.223l.34.025.033-.206c0-.21-.145-.288-.535-.288-.408-.005-.745.097-.884.142l.116-.714c.416-.122.691-.168 1-.168.717 0 1.097.322 1.096.931.002.163-.025.365-.067.629-.074.458-.229 1.444-.251 1.684m-.608-1.414l-.186-.013c-.473 0-.713.162-.713.483 0 .197.117.324.299.324.341-.001.586-.325.6-.794zM16.111 13.069c-.228.072-.407.103-.6.103-.427 0-.66-.246-.66-.697-.006-.141.062-.509.115-.846l.362-2.166h.83l-.097.48h.426l-.113.762h-.428c-.096.604-.234 1.355-.236 1.455 0 .164.087.235.286.235l.225-.03-.11.704" fill="#fff"/><path d="M18.19 11.161c.005-.066.088-.566-.386-.566-.264 0-.453.202-.531.566h.917m.467 1.882c-.285.087-.561.129-.852.128-.93-.001-1.414-.486-1.414-1.416 0-1.085.616-1.884 1.453-1.884.685 0 1.122.447 1.122 1.149 0 .233-.03.46-.102.78h-1.654c-.056.46.239.653.721.653.297 0 .565-.061.864-.2l-.138.79zM12.9 10.946c0 .402.195.678.636.886.338.159.391.206.391.35 0 .198-.149.287-.48.287-.249 0-.481-.039-.749-.125l-.115.732c.19.042.359.08.869.094.882 0 1.289-.335 1.289-1.061 0-.436-.17-.692-.589-.884-.35-.161-.39-.197-.39-.345 0-.171.139-.26.409-.26.164 0 .388.018.6.048l.119-.736c-.216-.034-.544-.062-.735-.062-.934.002-1.258.49-1.255 1.076" fill="#fff"/><path d="M28.746 12.383c.389 0 .662-.441.662-1.069 0-.403-.156-.622-.443-.622-.379 0-.648.442-.648 1.066.001.415.145.625.429.625m1.232.734h-.79l.039-.295c-.229.245-.464.35-.77.35-.607 0-1.009-.523-1.009-1.317 0-1.056.623-1.945 1.359-1.945.324 0 .569.132.798.433l.185-1.128h.824l-.636 3.902zM26.31 9.943c-.104.982-.29 1.977-.436 2.96l-.038.213h.835c.299-1.941.371-2.32.839-2.272.075-.397.213-.745.317-.92-.35-.073-.545.125-.801.5.02-.162.057-.32.05-.481h-.766M19.434 9.943c-.105.982-.291 1.977-.436 2.96l-.038.213h.836c.299-1.941.371-2.32.839-2.272.075-.397.214-.745.318-.92-.35-.073-.545.125-.801.5.02-.162.057-.32.05-.481h-.768" fill="#fff"/></svg>