<svg xmlns="http://www.w3.org/2000/svg" width="12" height="12"><path d="M8.245 6.382c-.206-.207-.206-.543 0-.75l3.601-3.611c.206-.207.206-.542 0-.749l-1.113-1.116c-.207-.207-.541-.207-.748 0l-3.602 3.612c-.205.207-.539.207-.746.001l-3.624-3.615c-.206-.206-.54-.205-.746.001l-1.113 1.116c-.206.207-.206.543.001.751l3.621 3.611c.207.207.207.543.001.751l-3.6 3.609c-.206.207-.206.542 0 .749l1.113 1.116c.207.207.541.207.748 0l3.601-3.611c.206-.207.541-.207.747 0l3.601 3.611c.207.207.541.207.748 0l1.113-1.116c.206-.207.206-.543 0-.749l-3.603-3.61z"/></svg>