<svg xmlns="http://www.w3.org/2000/svg" width="22" height="24"><path fill="#010101" d="M11.746 14.503c-.689 0-1.248.559-1.248 1.248s.559 1.248 1.248 1.248c.69 0 1.248-.559 1.248-1.248s-.559-1.248-1.248-1.248zm8.754-14.503h-17.5c-.552 0-1 .448-1 1v22c0 .552.448 1 1 1h14l4.5-4.5v-18.5c0-.552-.448-1-1-1zm-1 18h-4v4h-11c-.276 0-.5-.224-.5-.5v-19c0-.276.224-.5.5-.5h14.5c.276 0 .5.224.5.5v15.5zm-7-12h-1.5c-.276 0-.5.224-.5.5v6c0 .276.224.5.5.5h1.5c.276 0 .5-.224.5-.5v-6c0-.276-.224-.5-.5-.5z"/></svg>
