<svg xmlns="http://www.w3.org/2000/svg" xmlns:xlink="http://www.w3.org/1999/xlink" width="100%" height="100%">
  <path d="M1.528665,0.000000L13.471335,0.000000C13.911507,0.000000,14.131593,0.000000,14.330066,0.065496L14.368506,0.074911C14.627176,0.169059,14.830940,0.372824,14.925089,0.631494C15.000000,0.868407,15.000000,1.088493,15.000000,1.528665L15.000000,2.471335C15.000000,2.911507,15.000000,3.131593,14.934505,3.330065L14.925089,3.368506C14.830940,3.627176,14.627176,3.830940,14.368506,3.925089C14.131593,4.000000,13.911507,4.000000,13.471335,4.000000L1.528665,4.000000C1.088493,4.000000,0.868407,4.000000,0.669934,3.934504L0.631494,3.925089C0.372824,3.830940,0.169060,3.627176,0.074911,3.368506C0.000000,3.131593,0.000000,2.911507,0.000000,2.471335L0.000000,1.528665C0.000000,1.088493,0.000000,0.868407,0.065496,0.669934L0.074911,0.631494C0.169060,0.372824,0.372824,0.169059,0.631494,0.074911C0.868407,0.000000,1.088493,0.000000,1.528665,0.000000L1.528665,0.000000M1.528665,6.000000L2.471335,6.000000C2.911507,6.000000,3.131593,6.000000,3.330065,6.065496L3.368506,6.074911C3.627176,6.169059,3.830940,6.372824,3.925089,6.631494C4.000000,6.868407,4.000000,7.088493,4.000000,7.528665L4.000000,8.471335C4.000000,8.911507,4.000000,9.131593,3.934504,9.330066L3.925089,9.368506C3.830940,9.627176,3.627176,9.830940,3.368506,9.925089C3.131593,10.000000,2.911507,10.000000,2.471335,10.000000L1.528665,10.000000C1.088493,10.000000,0.868407,10.000000,0.669934,9.934505L0.631494,9.925089C0.372824,9.830941,0.169060,9.627176,0.074911,9.368506C0.000000,9.131593,0.000000,8.911507,0.000000,8.471335L0.000000,7.528665C0.000000,7.088493,0.000000,6.868407,0.065496,6.669934L0.074911,6.631494C0.169060,6.372824,0.372824,6.169059,0.631494,6.074911C0.868407,6.000000,1.088493,6.000000,1.528665,6.000000L1.528665,6.000000M7.028665,6.000000L7.971335,6.000000C8.411507,6.000000,8.631594,6.000000,8.830066,6.065496L8.868506,6.074911C9.127176,6.169059,9.330940,6.372824,9.425089,6.631494C9.500000,6.868407,9.500000,7.088493,9.500000,7.528665L9.500000,8.471335C9.500000,8.911507,9.500000,9.131593,9.434504,9.330066L9.425089,9.368506C9.330940,9.627176,9.127176,9.830940,8.868506,9.925089C8.631594,10.000000,8.411507,10.000000,7.971335,10.000000L7.028665,10.000000C6.588493,10.000000,6.368407,10.000000,6.169934,9.934505L6.131494,9.925089C5.872824,9.830941,5.669060,9.627176,5.574912,9.368506C5.500000,9.131593,5.500000,8.911507,5.500000,8.471335L5.500000,7.528665C5.500000,7.088493,5.500000,6.868407,5.565496,6.669934L5.574912,6.631494C5.669060,6.372824,5.872824,6.169059,6.131494,6.074911C6.368407,6.000000,6.588493,6.000000,7.028665,6.000000L7.028665,6.000000M12.528666,6.000000L13.471334,6.000000C13.911507,6.000000,14.131594,6.000000,14.330066,6.065496L14.368506,6.074911C14.627176,6.169059,14.830940,6.372824,14.925089,6.631494C15.000000,6.868407,15.000000,7.088493,15.000000,7.528665L15.000000,8.471335C15.000000,8.911507,15.000000,9.131593,14.934504,9.330066L14.925089,9.368506C14.830940,9.627176,14.627176,9.830940,14.368506,9.925089C14.131594,10.000000,13.911507,10.000000,13.471335,10.000000L12.528666,10.000000C12.088493,10.000000,11.868406,10.000000,11.669934,9.934505L11.631494,9.925089C11.372824,9.830941,11.169060,9.627176,11.074911,9.368506C11.000000,9.131593,11.000000,8.911507,11.000000,8.471335L11.000000,7.528665C11.000000,7.088493,11.000000,6.868407,11.065496,6.669934L11.074911,6.631494C11.169060,6.372824,11.372824,6.169059,11.631494,6.074911C11.868406,6.000000,12.088493,6.000000,12.528665,6.000000L12.528666,6.000000M1.528666,12.000000L2.471334,12.000000C2.911507,12.000000,3.131594,12.000000,3.330066,12.065496L3.368506,12.074911C3.627176,12.169060,3.830940,12.372824,3.925089,12.631494C4.000000,12.868406,4.000000,13.088493,4.000000,13.528665L4.000000,14.471335C4.000000,14.911507,4.000000,15.131593,3.934504,15.330066L3.925089,15.368506C3.830940,15.627176,3.627176,15.830940,3.368506,15.925089C3.131594,16.000000,2.911507,16.000000,2.471335,16.000000L1.528666,16.000000C1.088493,16.000000,0.868406,16.000000,0.669934,15.934505L0.631494,15.925089C0.372824,15.830941,0.169060,15.627176,0.074911,15.368506C0.000000,15.131593,0.000000,14.911507,0.000000,14.471335L0.000000,13.528666C0.000000,13.088493,0.000000,12.868406,0.065496,12.669934L0.074911,12.631494C0.169060,12.372824,0.372824,12.169060,0.631494,12.074911C0.868406,12.000000,1.088493,12.000000,1.528665,12.000000L1.528666,12.000000M7.028666,12.000000L7.971334,12.000000C8.411507,12.000000,8.631594,12.000000,8.830066,12.065496L8.868506,12.074911C9.127176,12.169060,9.330940,12.372824,9.425089,12.631494C9.500000,12.868406,9.500000,13.088493,9.500000,13.528665L9.500000,14.471335C9.500000,14.911507,9.500000,15.131593,9.434504,15.330066L9.425089,15.368506C9.330940,15.627176,9.127176,15.830940,8.868506,15.925089C8.631594,16.000000,8.411507,16.000000,7.971335,16.000000L7.028666,16.000000C6.588493,16.000000,6.368406,16.000000,6.169934,15.934505L6.131494,15.925089C5.872824,15.830941,5.669060,15.627176,5.574911,15.368506C5.500000,15.131593,5.500000,14.911507,5.500000,14.471335L5.500000,13.528666C5.500000,13.088493,5.500000,12.868406,5.565496,12.669934L5.574911,12.631494C5.669060,12.372824,5.872824,12.169060,6.131494,12.074911C6.368406,12.000000,6.588493,12.000000,7.028665,12.000000L7.028666,12.000000M12.528666,12.000000L13.471334,12.000000C13.911507,12.000000,14.131594,12.000000,14.330066,12.065496L14.368506,12.074911C14.627176,12.169060,14.830940,12.372824,14.925089,12.631494C15.000000,12.868406,15.000000,13.088493,15.000000,13.528665L15.000000,14.471335C15.000000,14.911507,15.000000,15.131593,14.934504,15.330066L14.925089,15.368506C14.830940,15.627176,14.627176,15.830940,14.368506,15.925089C14.131594,16.000000,13.911507,16.000000,13.471335,16.000000L12.528666,16.000000C12.088493,16.000000,11.868406,16.000000,11.669934,15.934505L11.631494,15.925089C11.372824,15.830941,11.169060,15.627176,11.074911,15.368506C11.000000,15.131593,11.000000,14.911507,11.000000,14.471335L11.000000,13.528666C11.000000,13.088493,11.000000,12.868406,11.065496,12.669934L11.074911,12.631494C11.169060,12.372824,11.372824,12.169060,11.631494,12.074911C11.868406,12.000000,12.088493,12.000000,12.528665,12.000000L12.528666,12.000000"/>
</svg>
