<?xml version="1.0" encoding="UTF-8" standalone="no"?>
<svg width="125px" height="125px" viewBox="0 0 125 125" version="1.1" xmlns="http://www.w3.org/2000/svg" xmlns:xlink="http://www.w3.org/1999/xlink" xmlns:sketch="http://www.bohemiancoding.com/sketch/ns">
    <!-- Generator: Sketch 3.0.3 (7891) - http://www.bohemiancoding.com/sketch -->
    <title>Untitled</title>
    <desc>Created with Sketch.</desc>
    <defs></defs>
    <g id="Page-1" stroke="none" stroke-width="1" fill="none" fill-rule="evenodd" sketch:type="MSPage">
        <path d="M17.4791782,49.2870352 C17.1791782,50.2870352 16.1791782,50.7870352 15.2791782,50.4870352 C14.2791782,50.1870352 13.7791782,49.1870352 14.0791782,48.2870352 C14.3791782,47.2870352 15.3791782,46.7870352 16.2791782,47.0870352 C17.1791782,47.2870352 17.6791782,48.2870352 17.4791782,49.2870352 L17.4791782,49.2870352 Z M23.4791782,45.1870352 L12.5791782,39.1870352 L14.6791782,35.3870352 C14.9791782,34.7870352 15.3791782,34.3870352 15.7791782,34.0870352 C16.1791782,33.7870352 16.5791782,33.6870352 16.9791782,33.5870352 C17.3791782,33.4870352 17.8791782,33.5870352 18.2791782,33.6870352 C18.6791782,33.7870352 19.1791782,33.9870352 19.5791782,34.1870352 C20.1791782,34.4870352 20.5791782,34.8870352 20.8791782,35.2870352 C21.1791782,35.6870352 21.3791782,36.0870352 21.4791782,36.5870352 C21.5791782,36.9870352 21.5791782,37.4870352 21.4791782,37.9870352 C21.3791782,38.4870352 21.1791782,38.9870352 20.8791782,39.4870352 L20.2791782,40.6870352 L24.5791782,43.0870352 L23.4791782,45.1870352 L23.4791782,45.1870352 Z M19.4791782,37.4870352 C19.3791782,37.0870352 18.9791782,36.6870352 18.4791782,36.3870352 C17.9791782,36.0870352 17.4791782,35.9870352 17.0791782,36.0870352 C16.6791782,36.1870352 16.2791782,36.4870352 15.9791782,36.9870352 L15.4791782,37.8870352 L18.7791782,39.6870352 L19.2791782,38.6870352 C19.4791782,38.2870352 19.5791782,37.8870352 19.4791782,37.4870352 L19.4791782,37.4870352 Z M26.5791782,39.2870352 L19.0791782,28.8870352 L21.0791782,26.4870352 L32.7791782,31.7870352 L31.0791782,33.7870352 L28.6791782,32.5870352 L26.5791782,35.1870352 L28.2791782,37.2870352 L26.5791782,39.2870352 L26.5791782,39.2870352 Z M25.1791782,33.4870352 L26.6791782,31.5870352 L21.5791782,28.9870352 L25.1791782,33.4870352 L25.1791782,33.4870352 Z M33.7791782,31.0870352 L35.6791782,29.4870352 L32.4791782,25.7870352 L29.9791782,17.9870352 L27.8791782,19.7870352 L29.6791782,24.5870352 L25.2791782,21.9870352 L23.1791782,23.7870352 L30.5791782,27.3870352 L33.7791782,31.0870352 L33.7791782,31.0870352 Z M40.2791782,26.0870352 L35.7791782,17.2870352 L42.2791782,25.0870352 L43.9791782,24.1870352 L41.3791782,14.3870352 L45.8791782,23.1870352 L47.8791782,22.1870352 L42.1791782,11.0870352 L38.8791782,12.7870352 L41.2791782,21.3870352 L35.6791782,14.3870352 L32.3791782,16.0870352 L38.1791782,27.0870352 L40.2791782,26.0870352 L40.2791782,26.0870352 Z M55.7791782,20.2870352 L55.2791782,18.2870352 L50.7791782,19.3870352 L50.0791782,16.1870352 L54.1791782,15.1870352 L53.6791782,13.1870352 L49.5791782,14.1870352 L48.8791782,11.3870352 L53.1791782,10.2870352 L52.6791782,8.28703519 L45.9791782,9.98703519 L48.9791782,22.0870352 L55.7791782,20.2870352 L55.7791782,20.2870352 Z M58.3791782,20.0870352 L57.8791782,11.3870352 L61.4791782,19.8870352 L64.3791782,19.6870352 L63.6791782,7.28703519 L61.3791782,7.38703519 L61.8791782,15.8870352 L58.3791782,7.58703519 L55.4791782,7.78703519 L56.1791782,20.1870352 L58.3791782,20.0870352 L58.3791782,20.0870352 Z M67.2791782,20.0870352 L69.7791782,20.3870352 L71.1791782,10.0870352 L73.8791782,10.4870352 L74.1791782,8.48703519 L66.2791782,7.38703519 L65.9791782,9.38703519 L68.6791782,9.78703519 L67.2791782,20.0870352 L67.2791782,20.0870352 Z M77.4791782,22.4870352 L75.0791782,21.4870352 L83.0791782,11.3870352 L85.8791782,12.5870352 L83.9791782,25.2870352 L81.5791782,24.2870352 L82.0791782,21.6870352 L79.0791782,20.3870352 L77.4791782,22.4870352 L77.4791782,22.4870352 Z M80.2791782,18.5870352 L82.4791782,19.5870352 L83.5791782,13.9870352 L80.2791782,18.5870352 L80.2791782,18.5870352 Z M84.0791782,25.4870352 L91.1791782,15.2870352 L94.7791782,17.7870352 C95.2791782,18.1870352 95.6791782,18.5870352 95.8791782,18.9870352 C96.0791782,19.3870352 96.2791782,19.8870352 96.2791782,20.2870352 C96.2791782,20.6870352 96.1791782,21.1870352 96.0791782,21.5870352 C95.8791782,21.9870352 95.6791782,22.3870352 95.4791782,22.7870352 C95.0791782,23.2870352 94.6791782,23.6870352 94.2791782,23.9870352 C93.8791782,24.2870352 93.3791782,24.3870352 92.9791782,24.4870352 C92.4791782,24.5870352 92.0791782,24.4870352 91.5791782,24.2870352 C91.0791782,24.0870352 90.5791782,23.8870352 90.0791782,23.5870352 L88.9791782,22.7870352 L86.1791782,26.8870352 L84.0791782,25.4870352 L84.0791782,25.4870352 Z M89.9791782,21.3870352 L90.8791782,21.9870352 C91.2791782,22.2870352 91.6791782,22.3870352 92.1791782,22.2870352 C92.5791782,22.1870352 92.9791782,21.8870352 93.3791782,21.3870352 C93.7791782,20.8870352 93.8791782,20.3870352 93.8791782,19.9870352 C93.8791782,19.5870352 93.5791782,19.1870352 93.0791782,18.7870352 L92.1791782,18.1870352 L89.9791782,21.3870352 L89.9791782,21.3870352 Z M90.6791782,30.1870352 L99.5791782,21.4870352 L102.679178,24.5870352 C103.079178,25.0870352 103.379178,25.4870352 103.579178,25.9870352 C103.679178,26.4870352 103.779178,26.8870352 103.679178,27.2870352 C103.579178,27.6870352 103.479178,28.0870352 103.179178,28.4870352 C102.979178,28.8870352 102.679178,29.2870352 102.279178,29.5870352 C101.779178,29.9870352 101.379178,30.3870352 100.879178,30.5870352 C100.379178,30.7870352 99.9791782,30.8870352 99.4791782,30.7870352 C98.9791782,30.7870352 98.5791782,30.5870352 98.0791782,30.3870352 C97.6791782,30.1870352 97.1791782,29.7870352 96.7791782,29.3870352 L95.8791782,28.3870352 L92.2791782,31.8870352 L90.6791782,30.1870352 L90.6791782,30.1870352 Z M97.2791782,27.2870352 L98.0791782,28.0870352 C98.3791782,28.4870352 98.7791782,28.5870352 99.2791782,28.6870352 C99.6791782,28.6870352 100.179178,28.4870352 100.579178,27.9870352 C100.979178,27.5870352 101.279178,27.0870352 101.279178,26.6870352 C101.279178,26.2870352 101.179178,25.7870352 100.679178,25.3870352 L99.9791782,24.6870352 L97.2791782,27.2870352 L97.2791782,27.2870352 Z M96.2791782,36.0870352 L106.679178,29.2870352 L109.179178,33.1870352 C109.779178,34.0870352 109.979178,34.8870352 109.879178,35.6870352 C109.779178,36.4870352 109.279178,37.1870352 108.279178,37.6870352 C107.579178,38.1870352 106.879178,38.3870352 106.279178,38.3870352 C105.679178,38.3870352 105.079178,38.1870352 104.579178,37.5870352 L104.579178,37.5870352 C104.879178,38.1870352 104.879178,38.6870352 104.779178,39.0870352 C104.679178,39.4870352 104.379178,39.8870352 103.779178,40.3870352 C103.579178,40.4870352 103.379178,40.6870352 103.179178,40.8870352 C102.979178,41.0870352 102.679178,41.1870352 102.479178,41.3870352 C101.979178,41.7870352 101.579178,42.0870352 101.279178,42.2870352 C100.979178,42.4870352 100.879178,42.7870352 100.879178,43.0870352 L100.779178,43.1870352 L99.2791782,40.8870352 C99.3791782,40.6870352 99.4791782,40.4870352 99.6791782,40.3870352 C99.8791782,40.1870352 100.079178,40.0870352 100.279178,39.9870352 L102.279178,38.5870352 C102.679178,38.2870352 102.979178,37.9870352 103.079178,37.6870352 C103.179178,37.3870352 103.079178,36.9870352 102.779178,36.4870352 L102.079178,35.3870352 L97.6791782,38.2870352 L96.2791782,36.0870352 L96.2791782,36.0870352 Z M103.479178,34.3870352 L104.079178,35.2870352 C104.379178,35.7870352 104.779178,36.0870352 105.179178,36.1870352 C105.579178,36.2870352 106.079178,36.1870352 106.679178,35.7870352 C107.679178,35.1870352 107.779178,34.3870352 107.179178,33.3870352 L106.579178,32.3870352 L103.479178,34.3870352 L103.479178,34.3870352 Z M109.079178,39.9870352 C109.879178,39.7870352 110.579178,39.6870352 111.179178,39.7870352 C111.779178,39.8870352 112.379178,40.0870352 112.879178,40.4870352 C113.379178,40.8870352 113.779178,41.4870352 114.179178,42.3870352 C114.479178,43.2870352 114.679178,43.9870352 114.579178,44.6870352 C114.479178,45.2870352 114.179178,45.8870352 113.779178,46.3870352 C113.379178,46.8870352 112.779178,47.2870352 112.079178,47.6870352 C111.379178,48.0870352 110.579178,48.3870352 109.679178,48.7870352 C108.779178,49.0870352 107.979178,49.3870352 107.179178,49.5870352 C106.379178,49.7870352 105.679178,49.8870352 105.079178,49.7870352 C104.479178,49.6870352 103.879178,49.4870352 103.379178,49.0870352 C102.879178,48.6870352 102.479178,47.9870352 102.179178,47.1870352 C101.879178,46.2870352 101.679178,45.5870352 101.779178,44.8870352 C101.879178,44.2870352 102.079178,43.6870352 102.579178,43.1870352 C102.979178,42.6870352 103.579178,42.2870352 104.279178,41.8870352 C104.979178,41.4870352 105.779178,41.1870352 106.679178,40.7870352 C107.479178,40.4870352 108.279178,40.1870352 109.079178,39.9870352 L109.079178,39.9870352 Z M109.479178,42.3870352 C108.879178,42.5870352 108.279178,42.7870352 107.479178,43.0870352 C106.679178,43.3870352 106.079178,43.6870352 105.479178,43.8870352 C104.979178,44.1870352 104.579178,44.3870352 104.279178,44.5870352 C103.979178,44.7870352 103.779178,45.0870352 103.679178,45.3870352 C103.579178,45.6870352 103.679178,45.9870352 103.779178,46.2870352 C103.879178,46.5870352 104.079178,46.8870352 104.379178,46.9870352 C104.579178,47.1870352 104.979178,47.1870352 105.279178,47.1870352 C105.679178,47.1870352 106.179178,47.0870352 106.679178,46.8870352 C107.279178,46.6870352 107.879178,46.4870352 108.679178,46.1870352 C109.479178,45.8870352 110.079178,45.5870352 110.679178,45.3870352 C111.179178,45.1870352 111.579178,44.8870352 111.879178,44.6870352 C112.179178,44.4870352 112.379178,44.1870352 112.479178,43.8870352 C112.579178,43.5870352 112.479178,43.2870352 112.379178,42.9870352 C112.279178,42.6870352 112.079178,42.3870352 111.779178,42.2870352 C111.579178,42.1870352 111.179178,42.0870352 110.879178,42.0870352 C110.479178,42.1870352 110.079178,42.2870352 109.479178,42.3870352 L109.479178,42.3870352 Z M104.879178,56.5870352 L117.579178,57.1870352 L117.079178,54.5870352 L107.679178,54.3870352 L107.679178,54.2870352 L116.379178,50.8870352 L115.879178,48.2870352 L104.179178,53.2870352 L104.879178,56.5870352 L104.879178,56.5870352 Z M105.279178,66.6870352 L107.379178,66.6870352 L107.379178,62.0870352 L110.679178,62.0870352 L110.679178,66.2870352 L112.779178,66.2870352 L112.779178,62.0870352 L115.679178,62.0870352 L115.679178,66.4870352 L117.779178,66.4870352 L117.779178,59.5870352 L105.379178,59.4870352 L105.279178,66.6870352 L105.279178,66.6870352 Z M105.179178,67.0870352 L117.379178,69.4870352 L116.579178,73.4870352 C116.379178,74.3870352 116.179178,74.9870352 115.779178,75.4870352 C115.379178,75.9870352 114.879178,76.2870352 114.379178,76.4870352 C113.879178,76.6870352 113.179178,76.7870352 112.379178,76.6870352 C111.679178,76.6870352 110.779178,76.4870352 109.879178,76.3870352 C108.779178,76.1870352 107.879178,75.8870352 107.079178,75.5870352 C106.279178,75.2870352 105.679178,74.9870352 105.279178,74.4870352 C104.879178,74.0870352 104.579178,73.5870352 104.379178,72.9870352 C104.279178,72.3870352 104.279178,71.6870352 104.379178,70.8870352 L105.179178,67.0870352 L105.179178,67.0870352 Z M106.379178,71.9870352 C106.479178,72.2870352 106.679178,72.4870352 106.979178,72.7870352 C107.279178,72.9870352 107.679178,73.1870352 108.279178,73.3870352 C108.779178,73.5870352 109.479178,73.6870352 110.379178,73.8870352 C111.079178,73.9870352 111.679178,74.0870352 112.179178,74.1870352 C112.679178,74.2870352 113.179178,74.2870352 113.579178,74.1870352 C113.979178,74.0870352 114.279178,73.9870352 114.479178,73.6870352 C114.679178,73.4870352 114.879178,73.0870352 114.979178,72.5870352 L115.179178,71.5870352 L106.579178,69.8870352 L106.379178,70.9870352 C106.279178,71.2870352 106.279178,71.6870352 106.379178,71.9870352 L106.379178,71.9870352 Z M107.879178,80.8870352 C106.979178,80.4870352 105.879178,80.8870352 105.479178,81.7870352 C105.079178,82.6870352 105.479178,83.7870352 106.379178,84.1870352 C107.279178,84.5870352 108.379178,84.1870352 108.779178,83.2870352 C109.179178,82.3870352 108.779178,81.2870352 107.879178,80.8870352 L107.879178,80.8870352 Z M122.479178,80.2870352 C112.679178,113.287035 77.8791782,132.287035 44.7791782,122.487035 C11.7791782,112.687035 -7.22082182,77.8870352 2.57917818,44.7870352 C12.3791782,11.6870352 47.1791782,-7.21296481 80.2791782,2.58703519 C113.379178,12.4870352 132.279178,47.2870352 122.479178,80.2870352 L122.479178,80.2870352 Z M79.2791782,6.18703519 C48.2791782,-3.01296481 15.4791782,14.7870352 6.27917818,45.8870352 C-2.92082182,76.9870352 14.8791782,109.787035 45.9791782,118.987035 C77.0791782,128.187035 109.879178,110.387035 119.079178,79.2870352 C128.179178,48.1870352 110.379178,15.3870352 79.2791782,6.18703519 L79.2791782,6.18703519 Z M96.1791782,72.3870352 C90.6791782,90.8870352 71.1791782,101.487035 52.6791782,95.9870352 C34.1791782,90.4870352 23.5791782,70.9870352 29.0791782,52.4870352 C34.5791782,33.9870352 54.0791782,23.3870352 72.5791782,28.8870352 C90.9791782,34.4870352 101.579178,53.9870352 96.1791782,72.3870352 L96.1791782,72.3870352 Z M72.1791782,30.1870352 C54.2791782,24.8870352 35.4791782,35.0870352 30.1791782,52.9870352 C24.8791782,70.8870352 35.0791782,89.6870352 52.9791782,94.9870352 C70.8791782,100.287035 89.6791782,90.0870352 94.9791782,72.1870352 C100.279178,54.2870352 90.0791782,35.4870352 72.1791782,30.1870352 L72.1791782,30.1870352 Z M79.1791782,46.4870352 L58.5791782,67.0870352 C57.7791782,67.8870352 56.5791782,67.8870352 55.7791782,67.0870352 L48.4791782,59.7870352 C47.6791782,58.9870352 46.4791782,58.9870352 45.6791782,59.7870352 L41.0791782,64.4870352 C40.2791782,65.2870352 40.2791782,66.5870352 41.0791782,67.2870352 L55.7791782,82.0870352 C56.5791782,82.8870352 57.7791782,82.8870352 58.5791782,82.0870352 L86.6791782,54.0870352 C87.4791782,53.2870352 87.4791782,51.9870352 86.6791782,51.2870352 L81.9791782,46.5870352 C81.1791782,45.6870352 79.9791782,45.6870352 79.1791782,46.4870352 L79.1791782,46.4870352 Z M100.879178,73.8870352 C94.5791782,94.9870352 72.2791782,107.187035 51.1791782,100.887035 C30.0791782,94.5870352 17.9791782,72.2870352 24.1791782,51.1870352 C30.4791782,30.0870352 52.7791782,17.8870352 73.8791782,24.1870352 C95.0791782,30.4870352 107.179178,52.7870352 100.879178,73.8870352 L100.879178,73.8870352 Z M72.9791782,27.3870352 C53.5791782,21.6870352 33.1791782,32.7870352 27.3791782,52.1870352 C21.6791782,71.5870352 32.7791782,92.0870352 52.1791782,97.7870352 C71.5791782,103.487035 91.9791782,92.3870352 97.7791782,72.9870352 C103.479178,53.5870352 92.3791782,33.1870352 72.9791782,27.3870352 L72.9791782,27.3870352 Z M75.8791782,110.387035 C75.6791782,109.387035 75.4791782,108.487035 75.2791782,107.687035 C75.0791782,106.887035 74.6791782,106.187035 74.2791782,105.687035 C73.8791782,105.187035 73.3791782,104.787035 72.6791782,104.587035 C72.0791782,104.387035 71.2791782,104.387035 70.2791782,104.587035 C69.3791782,104.787035 68.7791782,104.987035 68.2791782,105.387035 C67.7791782,105.787035 67.4791782,106.187035 67.2791782,106.687035 C67.0791782,107.187035 66.9791782,107.787035 66.9791782,108.487035 C66.9791782,109.187035 67.0791782,109.787035 67.1791782,110.487035 L69.7791782,109.987035 C69.6791782,109.287035 69.5791782,108.687035 69.5791782,108.287035 C69.5791782,107.887035 69.6791782,107.487035 69.7791782,107.187035 C69.8791782,106.887035 69.9791782,106.687035 70.1791782,106.587035 C70.3791782,106.487035 70.5791782,106.387035 70.7791782,106.387035 C71.0791782,106.287035 71.2791782,106.387035 71.5791782,106.387035 C71.7791782,106.487035 71.9791782,106.687035 72.2791782,106.987035 C72.4791782,107.287035 72.6791782,107.787035 72.8791782,108.287035 C73.0791782,108.887035 73.2791782,109.687035 73.3791782,110.587035 C73.5791782,111.487035 73.6791782,112.287035 73.7791782,112.887035 C73.8791782,113.487035 73.8791782,114.087035 73.7791782,114.487035 C73.7791782,114.887035 73.5791782,115.187035 73.4791782,115.387035 C73.2791782,115.587035 73.0791782,115.787035 72.6791782,115.787035 C72.0791782,115.887035 71.6791782,115.787035 71.3791782,115.387035 C71.0791782,114.987035 70.8791782,114.387035 70.6791782,113.387035 L68.0791782,113.887035 C68.1791782,114.387035 68.2791782,114.887035 68.4791782,115.387035 C68.6791782,115.887035 68.8791782,116.387035 69.2791782,116.787035 C69.6791782,117.187035 70.0791782,117.487035 70.6791782,117.687035 C71.2791782,117.887035 72.0791782,117.887035 72.9791782,117.687035 C73.9791782,117.487035 74.6791782,117.187035 75.1791782,116.787035 C75.6791782,116.387035 76.0791782,115.787035 76.2791782,115.187035 C76.4791782,114.587035 76.5791782,113.787035 76.4791782,112.987035 C76.3791782,112.187035 75.9791782,111.387035 75.8791782,110.387035 L75.8791782,110.387035 Z M64.7791782,109.487035 C64.8791782,110.287035 64.8791782,111.287035 64.7791782,112.287035 C64.7791782,113.287035 64.6791782,114.187035 64.4791782,114.987035 C64.3791782,115.787035 64.0791782,116.487035 63.7791782,117.087035 C63.4791782,117.687035 62.9791782,118.087035 62.3791782,118.387035 C61.7791782,118.687035 60.9791782,118.787035 59.9791782,118.787035 C58.9791782,118.787035 58.1791782,118.487035 57.6791782,118.187035 C57.0791782,117.787035 56.6791782,117.287035 56.3791782,116.687035 C56.0791782,116.087035 55.8791782,115.387035 55.8791782,114.487035 C55.7791782,113.687035 55.7791782,112.687035 55.8791782,111.687035 C55.8791782,110.687035 55.9791782,109.787035 56.1791782,108.987035 C56.2791782,108.187035 56.5791782,107.487035 56.8791782,106.887035 C57.1791782,106.287035 57.6791782,105.887035 58.2791782,105.587035 C58.8791782,105.287035 59.6791782,105.187035 60.6791782,105.187035 C61.6791782,105.187035 62.4791782,105.387035 62.9791782,105.787035 C63.5791782,106.087035 63.9791782,106.587035 64.2791782,107.187035 C64.5791782,107.887035 64.6791782,108.587035 64.7791782,109.487035 L64.7791782,109.487035 Z M62.1791782,109.887035 C62.1791782,109.287035 62.0791782,108.787035 61.9791782,108.387035 C61.8791782,107.987035 61.6791782,107.687035 61.4791782,107.487035 C61.2791782,107.287035 60.9791782,107.187035 60.5791782,107.187035 C60.1791782,107.187035 59.8791782,107.287035 59.5791782,107.387035 C59.3791782,107.587035 59.1791782,107.787035 58.9791782,108.187035 C58.8791782,108.587035 58.6791782,109.087035 58.6791782,109.687035 C58.5791782,110.287035 58.5791782,111.087035 58.4791782,111.887035 C58.4791782,112.787035 58.3791782,113.487035 58.4791782,114.087035 C58.4791782,114.687035 58.5791782,115.187035 58.6791782,115.587035 C58.7791782,115.987035 58.9791782,116.287035 59.1791782,116.487035 C59.3791782,116.687035 59.6791782,116.787035 60.0791782,116.787035 C60.4791782,116.787035 60.7791782,116.687035 61.0791782,116.587035 C61.2791782,116.387035 61.4791782,116.187035 61.6791782,115.787035 C61.7791782,115.387035 61.9791782,114.887035 61.9791782,114.287035 C62.0791782,113.687035 62.0791782,112.887035 62.1791782,112.087035 L62.1791782,109.887035 L62.1791782,109.887035 Z M49.4791782,117.087035 L52.0791782,117.687035 L54.8791782,104.887035 L52.2791782,104.287035 L49.4791782,117.087035 L49.4791782,117.087035 Z M48.3791782,103.087035 L44.7791782,111.587035 L45.3791782,101.887035 L42.5791782,100.687035 L37.4791782,112.787035 L39.6791782,113.687035 L43.1791782,105.387035 L42.5791782,114.887035 L45.3791782,116.087035 L50.4791782,103.987035 L48.3791782,103.087035 L48.3791782,103.087035 Z M34.9791782,95.4870352 L33.7791782,97.2870352 L37.7791782,100.087035 L35.7791782,102.987035 L32.1791782,100.487035 L30.9791782,102.287035 L34.5791782,104.787035 L32.7791782,107.287035 L28.9791782,104.587035 L27.7791782,106.387035 L33.7791782,110.587035 L41.2791782,99.7870352 L34.9791782,95.4870352 L34.9791782,95.4870352 Z M28.3791782,96.0870352 L24.7791782,103.987035 L22.7791782,101.787035 L25.3791782,97.0870352 L20.3791782,99.1870352 L18.4791782,97.0870352 L26.6791782,94.2870352 L30.4791782,90.7870352 L32.2791782,92.7870352 L28.3791782,96.0870352 L28.3791782,96.0870352 Z" id="payment-approved" fill="#7ACC92" sketch:type="MSShapeGroup"></path>
    </g>
</svg>