<svg xmlns="http://www.w3.org/2000/svg" xmlns:xlink="http://www.w3.org/1999/xlink" width="100%" height="100%">
  <path d="M8.000000,28.500000L3.330000,28.500000C1.770000,28.500000,0.500000,27.230000,0.500000,25.670000L0.500000,14.330000C0.500000,12.770000,1.770000,11.500000,3.330000,11.500000L31.670000,11.500000C33.230000,11.500000,34.500000,12.770000,34.500000,14.330000L34.500000,25.670000C34.500000,27.230000,33.230000,28.500000,31.670000,28.500000L27.000000,28.500000M6.500000,0.500000L28.500000,0.500000L28.500000,11.500000L6.500000,11.500000ZM7.500000,15.500000L27.500000,15.500000L27.500000,33.500000L7.500000,33.500000ZM11.000000,28.400000L24.000000,28.500000M11.000000,24.500000L24.000000,24.500000M11.000000,20.500000L24.000000,20.500000"/>
</svg>
