<svg xmlns="http://www.w3.org/2000/svg" width="24" height="24"><path d="M22.5 24h-1.5v-1.5h1.5v-3h1.5v3c0 .828-.672 1.5-1.5 1.5zm0-9h1.5v3h-1.5v-3zm0-8h-1.5v-1.5h1.5c.828 0 1.5.672 1.5 1.5v2h-1.5v-2zm-6 15.5h3v1.5h-3v-1.5zm1.5-17h1.5v1.5h-1.5v-1.5zm-2 14h-15c-.553 0-1-.447-1-1v-17.5c0-.552.447-1 1-1h15c.552 0 1 .448 1 1v17.5c0 .553-.448 1-1 1zm-.5-17.5c0-.276-.224-.5-.5-.5h-13c-.276 0-.5.224-.5.5v13.5c0 .276.224.5.5.5h13c.276 0 .5-.224.5-.5v-13.5zm-6.484 12.5c-1.094 0-1.009-.405-1.009-.585v-4.742c0-.152-.099-.281-.237-.318-2.456-.654-2.763-2.899-2.151-4.624.08-.226.356-.282.51-.106l.928 1.055c.131.149.358.135.471-.03l.713-1.035c.12-.174.363-.178.489-.008l.778 1.056c.117.159.34.168.468.018l.894-1.046c.154-.18.433-.125.514.102.625 1.755.287 3.969-2.156 4.618-.137.037-.235.166-.235.316v2.121c0 .29.392.436.586.231l2.897-3.071c.194-.205.524-.059.524.231v.707c0 1.648-.818 5.11-3.984 5.11zm-2.026-3.404v2.939c0 .219-.189.313-.396.313-1.868 0-2.594-2.453-2.594-5.013v-.652c0-.291.33-.437.523-.232l2.376 2.413c.058.062.091.145.091.232zm2.01 11.404h1.5v1.5h-1.5c-.828 0-1.5-.672-1.5-1.5v-2h1.5v2zm6 1.5h-3v-1.5h3v1.5zm7.5-13.5v3h1.5v-3h-1.5z"/></svg>
