<svg xmlns="http://www.w3.org/2000/svg" width="24" height="24"><path fill="#010101" d="M12 5.763c-2.782 0-3.451 2.249-3.503 3.734h1.945c.035-.314.172-1.91 1.559-1.91.832 0 1.445.498 1.445 1.441 0 .852-.896 1.415-1.612 2.096-.717.681-.878 1.551-.878 2.162l.274.216h1.534l.262-.301c0-1.539 2.434-1.953 2.434-4.34-.001-1.5-1.048-3.098-3.459-3.098zm0-5.763c-6.351 0-11.5 5.035-11.5 11.245 0 2.073.577 4.015 1.579 5.683.136.229.186.496.128.754 0 0-.522 3.104-.832 4.645-.31 1.541.646 1.961 1.603 1.489.956-.472 4.096-2.016 4.096-2.016.146-.072.305-.107.465-.107.134 0 .269.025.397.072l-.004-.003c1.265.468 2.636.726 4.068.726 6.351 0 11.5-5.034 11.5-11.245 0-6.209-5.149-11.243-11.5-11.243zm0 20.44c-1.125 0-2.172-.497-3.221-.882-.481-.177-1.235-.272-1.991.094 0 0-1.482.572-2.302 1.068-.493.3-.751.152-.635-.303.144-.567.504-2.977.504-2.977.135-.588.033-1.203-.288-1.739-.831-1.37-1.477-2.864-1.477-4.459 0-4.945 4.306-9.198 9.409-9.198 5.103 0 9.409 4.253 9.409 9.198 0 4.946-4.305 9.198-9.408 9.198zm-.009-5.935c-.705 0-1.297.559-1.297 1.248s.593 1.248 1.297 1.248c.705 0 1.316-.559 1.316-1.248 0-.69-.611-1.248-1.316-1.248z"/></svg>
