<svg xmlns="http://www.w3.org/2000/svg" width="33" height="20"><path id="Shape" fill="#21a661" d="M2 19.5c-.827 0-1.5-.673-1.5-1.5v-8.5h32v8.5c0 .827-.673 1.5-1.5 1.5h-29z"/><path fill="#225da1" d="M32 10v8c0 .552-.449 1-1 1h-29c-.552 0-1-.449-1-1v-8h31zm1-1h-33v9c0 1.105.896 2 2 2h29c1.105 0 2-.896 2-2v-9zm-2-9h-29c-1.105 0-2 .896-2 2v8h33v-8c0-1.105-.896-2-2-2z"/><path fill="#fff" d="M9.764 15.915c-1.045 0-1.694-.642-1.694-1.678s.649-1.658 1.694-1.658c.49 0 .864.164 1.162.396l.053-.663c-.341-.211-.746-.317-1.215-.317-1.255 0-2.291 1.001-2.291 2.242 0 1.268 1.017 2.262 2.291 2.262.469 0 .895-.148 1.236-.359l-.079-.517c-.32.254-.71.292-1.157.292zm2.007.591h.717l.559-1.506h1.406l.575 1.506h.733l-2.011-4.776-1.979 4.776zm1.41-2.005l.554-1.405.576 1.405h-1.13zm6.824-1.202c0-.33-.1-.703-.375-.945-.274-.241-.73-.351-1.154-.351h-1.474v4.503l.498-.006v-2l.897.008.986 1.998h.6l-1.102-2.011c.649-.132 1.124-.427 1.124-1.196zm-1.53.704l-.975-.003v-1.5h1c.575 0 1.024.272 1.024.799 0 .505-.474.704-1.048.704zm4.025-2.003l-1.493.003v4.503s.322-.006 1.493-.006c1.468 0 1.996-1.058 1.996-2.301 0-1.139-.539-2.205-1.996-2.199zm0 4h-1v-3.5h1c.975 0 1.484.745 1.484 1.744 0 1.042-.509 1.756-1.484 1.756zm-12.736-.085c-1.045 0-1.694-.642-1.694-1.678s.649-1.658 1.694-1.658c.49 0 .864.164 1.162.396l.053-.663c-.341-.211-.746-.317-1.215-.317-1.255 0-2.291 1.001-2.291 2.242 0 1.268 1.017 2.262 2.291 2.262.469 0 .895-.148 1.236-.359l-.079-.517c-.32.254-.71.292-1.157.292zm2.007.591h.717l.559-1.506h1.406l.575 1.506h.733l-2.011-4.776-1.979 4.776zm1.41-2.005l.554-1.405.576 1.405h-1.13zm6.824-1.202c0-.33-.1-.703-.375-.945-.274-.241-.73-.351-1.154-.351h-1.474v4.503l.498-.006v-2l.897.008.986 1.998h.6l-1.102-2.011c.649-.132 1.124-.427 1.124-1.196zm-1.53.704l-.975-.003v-1.5h1c.575 0 1.024.272 1.024.799 0 .505-.474.704-1.048.704zm4.025-2.003l-1.493.003v4.503s.322-.006 1.493-.006c1.468 0 1.996-1.058 1.996-2.301 0-1.139-.539-2.205-1.996-2.199zm0 4h-1v-3.5h1c.975 0 1.484.745 1.484 1.744 0 1.042-.509 1.756-1.484 1.756zm-8.998-8.504h.502v-4.489h-.502v4.489zm-8.508-1.05zm3.777 1.06h.717l.559-1.506h1.406l.575 1.506h.733l-2.011-4.776-1.979 4.776zm1.41-2.005l.554-1.405.576 1.405h-1.13zm17.319-2.345v2.844l-2.503-3.076.002 4.404h.5v-2.828l2.497 3.067.003-4.411h-.499zm-6.258-.149c-1.239 0-2.238 1-2.238 2.239 0 1.24 1 2.262 2.238 2.262 1.217 0 2.26-1.022 2.26-2.262 0-1.239-1.043-2.239-2.26-2.239zm0 3.991c-.969 0-1.737-.828-1.737-1.777s.768-1.716 1.737-1.716c.95 0 1.758.767 1.758 1.716s-.808 1.777-1.758 1.777zm-15.4-2.625c-.154-.455.23-.908.745-.902.399.004.765.184.939.557l.433-.326c.024.074-.284-.74-1.298-.71-1.187-.012-1.425.798-1.379 1.229 0 .431.329.84.774.991.422.173.738.295 1.123.506.245.175.366.498.248.778-.164.388-.495.497-.917.497-.671.034-1.017-.717-1.017-.717l-.488.205c.092.268.456 1.015 1.52 1.015.539 0 1.126-.259 1.384-.776.211-.431.094-.948-.258-1.271-.563-.56-1.591-.593-1.809-1.076zm15.397-.365c-.331 0-.663.152-.904.365-.211.244-.331.517-.331.852 0 .335.121.67.362.913.241.213.542.365.873.365.723 0 1.265-.548 1.265-1.278 0-.304-.121-.639-.362-.852-.24-.273-.571-.365-.903-.365zm-.001 1.992c-.428 0-.734-.368-.734-.766s.306-.736.734-.736c.397 0 .764.337.764.736 0 .521-.366.766-.764.766zm-16.236.483l.004-.002-.012-.036.008.038zm10 0l.004-.002-.012-.036.008.038zm.84-2.11c-.154-.455.23-.908.745-.902.399.004.766.184.939.557l.433-.326c.025.074-.283-.74-1.297-.71-1.187-.012-1.426.798-1.379 1.229 0 .431.328.84.774.991.422.173.738.295 1.122.506.246.175.366.498.249.778-.164.388-.495.497-.917.497-.672.034-1.017-.717-1.017-.717l-.488.205c.091.268.456 1.015 1.52 1.015.539 0 1.125-.259 1.383-.776.211-.431.094-.948-.258-1.271-.563-.56-1.59-.593-1.809-1.076zm-.848 2.073zm-1.492 1.05h.502v-4.489h-.502v4.489zm-8.508-1.05zm16.248-3.439c-1.239 0-2.238 1-2.238 2.24 0 1.239.999 2.261 2.238 2.261 1.216 0 2.259-1.022 2.259-2.261 0-1.24-1.043-2.24-2.259-2.24zm0 3.991c-.969 0-1.737-.828-1.737-1.777s.767-1.716 1.737-1.716c.95 0 1.758.767 1.758 1.716s-.808 1.777-1.758 1.777zm-12.471.508h.717l.559-1.506h1.406l.575 1.506h.733l-2.011-4.776-1.979 4.776zm1.41-2.005l.554-1.405.576 1.405h-1.13zm-4.339-1.128c-.154-.455.23-.908.745-.902.399.004.765.184.939.557l.433-.326c.024.074-.284-.74-1.298-.71-1.187-.012-1.425.798-1.379 1.229 0 .431.329.84.774.991.422.173.738.295 1.123.506.245.175.366.498.248.778-.164.388-.495.497-.917.497-.671.034-1.017-.717-1.017-.717l-.488.205c.092.268.456 1.015 1.52 1.015.539 0 1.126-.259 1.384-.776.211-.431.094-.948-.258-1.271-.563-.56-1.591-.593-1.809-1.076zm15.397-.365c-.331 0-.663.152-.904.365-.211.244-.331.517-.331.852 0 .335.121.67.362.913.241.213.542.365.873.365.722 0 1.264-.548 1.264-1.278 0-.304-.12-.639-.361-.852-.241-.273-.572-.365-.903-.365zm-.001 1.992c-.428 0-.734-.368-.734-.766s.306-.736.734-.736c.397 0 .764.337.764.736 0 .521-.367.766-.764.766zm6.262-2.844v2.844l-2.503-3.076.002 4.404h.5v-2.828l2.497 3.067.003-4.411h-.499zm-22.499 3.327l.004-.002-.012-.036.008.038zm9.993-.037zm.007.037l.004-.002-.012-.036.008.038zm.841-2.11c-.154-.455.23-.908.745-.902.399.004.765.184.939.557l.433-.326c.024.074-.284-.74-1.298-.71-1.187-.012-1.425.798-1.378 1.229 0 .431.328.84.773.991.422.173.738.295 1.123.506.245.175.366.498.248.778-.164.388-.495.497-.917.497-.671.034-1.017-.717-1.017-.717l-.488.205c.092.268.456 1.015 1.52 1.015.539 0 1.126-.259 1.384-.776.211-.431.094-.948-.258-1.271-.563-.56-1.591-.593-1.809-1.076z"/></svg>