<svg xmlns="http://www.w3.org/2000/svg" viewBox="0 0 37 23" enable-background="new 0 0 37 23"><path d="M37 11.571h-37v-10.069c0-.829.673-1.502 1.502-1.502h33.995c.83 0 1.503.673 1.503 1.502v10.069z" fill="#2D3D85"/><path d="M35.498 23h-33.996c-.829 0-1.502-.673-1.502-1.502v-9.928h37v9.928c0 .829-.673 1.502-1.502 1.502z" fill="#469947"/><path d="M2.966 7.891c.277.504.827.836 1.384.822.537-.019 1.102-.335 1.311-.865.146-.392.022-.854-.248-1.154-.482-.423-1.13-.439-1.684-.671-.553-.221-1.002-.775-1.002-1.387-.048-.603.31-1.177.848-1.489.548-.327 1.356-.276 1.852.106.276.195.496.454.6.752l-.448.175c-.158-.271-.394-.525-.681-.652-.414-.181-.954-.08-1.284.22-.314.301-.46.718-.348 1.134.439 1.096 1.798.689 2.519 1.468.439.45.59 1.194.32 1.787-.326.707-1.076 1.082-1.775 1.088-.688-.016-1.36-.346-1.744-.971-.07-.146-.176-.274-.197-.443l.428-.176.149.256zM17.357 7.891c.273.505.824.837 1.372.822.542-.019 1.112-.335 1.317-.865.141-.392.02-.854-.251-1.154-.479-.423-1.129-.438-1.683-.671-.551-.221-.997-.775-1.003-1.386-.042-.603.312-1.177.854-1.489.545-.327 1.353-.277 1.852.105.273.195.493.454.594.752l-.449.175c-.154-.271-.388-.525-.677-.652-.413-.182-.955-.081-1.285.219-.313.302-.46.718-.345 1.134.436 1.096 1.797.689 2.519 1.468.439.45.59 1.194.323 1.787-.332.707-1.08 1.082-1.779 1.088-.694-.016-1.36-.346-1.75-.971-.069-.146-.173-.274-.196-.443l.434-.176.153.257zM12.018 9.062h.557l-2.585-6.141-2.579 6.141h.561l.805-1.955h2.434l.807 1.955zm-3.028-2.481l1-2.428 1.008 2.428h-2.008zM14.068 3.002h.578v6.027h-.578zM26.213 5.166c-.239-.248-.575-.358-.912-.358-.335 0-.648.15-.883.387-.233.235-.328.5-.328.828 0 .348.111.651.358.9.234.232.534.356.854.356.73 0 1.278-.519 1.278-1.256 0-.313-.124-.626-.367-.857m-.911 1.625c-.4 0-.72-.371-.72-.769 0-.397.32-.72.72-.72.395 0 .754.323.754.72 0 .503-.359.769-.754.769M25.302 2.921c-1.714 0-3.103 1.395-3.103 3.103 0 1.714 1.389 3.15 3.103 3.15 1.708 0 3.142-1.437 3.142-3.15 0-1.708-1.434-3.103-3.142-3.103m0 5.743c-1.425 0-2.575-1.217-2.575-2.64 0-1.419 1.15-2.568 2.575-2.568 1.419 0 2.628 1.148 2.628 2.568 0 1.422-1.209 2.64-2.628 2.64" fill="#fff"/><path fill="#fff" d="M33.945 7.579v-4.677h.496v6.154l-3.727-4.717v4.535h-.498v-6.006zM17.483 20.487h.594l-2.726-6.471-2.726 6.471h.589l.853-2.062h2.567l.849 2.062zm-3.186-2.614l1.053-2.562 1.056 2.562h-2.109zM9.595 20.079c-1.54 0-2.794-1.246-2.794-2.786 0-1.537 1.254-2.783 2.794-2.783.708 0 1.307.215 1.763.564l.033-.66c-.518-.31-1.123-.475-1.796-.475-.894 0-1.742.356-2.367.984-.639.63-.99 1.474-.99 2.371 0 .903.351 1.739.99 2.375.625.636 1.474.987 2.367.987.677 0 1.307-.202 1.834-.545l-.107-.628c-.478.375-1.072.596-1.727.596"/><path d="M21.894 17.804c.821-.21 1.432-.738 1.432-1.842 0-.484-.136-.996-.476-1.335-.359-.353-.895-.505-1.424-.505h-1.8489999999999998v6.43h.57v-2.69h.964l1.631 2.69h.595l-1.443-2.748m-1.75-.51v-2.601h1.281c.738 0 1.329.532 1.329 1.269 0 .74-.591 1.332-1.329 1.332h-1.281zM25.533 20.557h1.871c1.721 0 3.189-1.499 3.189-3.263 0-.864-.401-1.606-1.013-2.205-.585-.589-1.356-.918-2.176-.918h-1.871v6.386m1.872-.565h-1.19v-5.244h1.19c1.411 0 2.553 1.172 2.553 2.619 0 1.449-1.143 2.625-2.553 2.625" fill="#fff"/></svg>