<svg xmlns="http://www.w3.org/2000/svg" width="31" height="23"><path fill="#010101" d="M20.252 10.392l-1.449-.515c-.626-.229-1.264-1.446-.928-2.241l.66-1.389c.395-.831-1.228-2.743-2.272-2.272l-1.39.66c-.521.26-2.028-.32-2.241-.928l-.516-1.449c-.314-.899-2.806-1.131-3.213 0l-.516 1.449c-.178.434-1.627 1.245-2.24.928l-1.39-.66c-.837-.414-2.807 1.268-2.273 2.272l.661 1.39c.254.562-.326 2.012-.929 2.24l-1.449.516c-.903.299-1.135 2.792 0 3.213l1.449.516c.429.165 1.24 1.614.929 2.24l-.661 1.39c-.418.883 1.262 2.796 2.272 2.272l1.391-.66c.555-.265 2.004.314 2.24.928l.516 1.449c.291.894 2.783 1.125 3.213 0l.516-1.449c.213-.556 1.662-1.193 2.241-.928l1.39.66c.871.408 2.783-1.274 2.272-2.272l-.66-1.39c-.22-.452.302-2.017.928-2.24l1.449-.516c.879-.305 1.111-2.798 0-3.214zm-9.752 6.108c-2.485 0-4.5-2.014-4.5-4.5s2.015-4.5 4.5-4.5 4.5 2.014 4.5 4.5-2.015 4.5-4.5 4.5zm19.809-9.663l-.674-.567c-.291-.248-.389-1.029-.05-1.388l.633-.613c.378-.366-.109-1.718-.764-1.674l-.878.075c-.331.035-1.024-.578-1.016-.947l.014-.881c.011-.545-1.28-1.169-1.724-.644l-.567.675c-.183.197-1.123.342-1.388.049l-.614-.633c-.366-.39-1.76.117-1.674.763l.076.878c.023.353-.578 1.015-.947 1.016l-.88-.014c-.545-.02-1.169 1.271-.644 1.725l.674.567c.197.174.342 1.115.05 1.388l-.633.613c-.402.39.117 1.753.764 1.674l.878-.075c.351-.031 1.012.57 1.016.947l-.014.881c-.023.537 1.267 1.161 1.724.644l.567-.674c.225-.256 1.13-.308 1.388-.05l.614.633c.385.393 1.748-.126 1.674-.764l-.076-.878c-.028-.286.566-1.021.946-1.016l.881.014c.533.013 1.157-1.278.644-1.724zm-5.558 1.163c-1.243 0-2.251-1.008-2.251-2.25 0-1.243 1.008-2.25 2.251-2.25 1.243 0 2.249 1.007 2.249 2.25 0 1.242-1.007 2.25-2.249 2.25z"/></svg>
