<svg xmlns="http://www.w3.org/2000/svg" xmlns:xlink="http://www.w3.org/1999/xlink" width="100%" height="100%">
  <path d="M0.500000,0.500000L0.500000,9.500000C0.500000,10.880000,1.750000,12.500000,3.300000,12.500000C4.850000,12.500000,6.100000,10.880000,6.100000,9.500000C6.100000,10.880000,7.350000,12.500000,8.900000,12.500000C10.450000,12.500000,11.700000,10.880000,11.700000,9.500000C11.700000,10.880000,12.950000,12.500000,14.500000,12.500000C16.049999,12.500000,17.299999,10.880000,17.299999,9.500000C17.299999,10.880000,18.549999,12.500000,20.100000,12.500000C21.650000,12.500000,22.900000,10.880000,22.900000,9.500000C22.900000,10.880000,24.150000,12.500000,25.700001,12.500000C27.250000,12.500000,28.500000,10.880000,28.500000,9.500000L28.500000,0.500000L0.500000,0.500000ZM26.500000,15.000000L26.500000,28.500000L2.500000,28.500000L2.500000,15.000000M8.500000,17.500000L14.500000,17.500000L14.500000,28.500000L8.500000,28.500000ZM14.500000,17.500000L20.500000,17.500000L20.500000,28.500000L14.500000,28.500000Z"/>
</svg>
