<svg xmlns="http://www.w3.org/2000/svg" xmlns:xlink="http://www.w3.org/1999/xlink" width="100%" height="100%">
  <path d="M7.340000,6.500000L4.020000,6.500000L4.020000,6.750000C3.900000,7.930000,4.560000,9.000000,5.530000,9.000000C6.510000,9.000000,7.340000,7.950000,7.340000,6.750000L7.340000,6.500000ZM1.710000,9.000000C2.680000,9.000000,3.380000,7.980000,3.520000,6.800000C3.530000,6.700000,3.520000,6.500000,3.520000,6.500000L0.500000,6.500000C0.500000,6.500000,0.460000,6.500000,0.400000,6.800000C0.160000,8.000000,0.730000,9.000000,1.710000,9.000000ZM7.300000,6.000000L7.300000,0.000000L5.030000,0.000000L4.020000,6.000000L7.300000,6.000000ZM4.530000,0.000000L2.720000,0.000000C2.310000,0.000000,1.900000,0.340000,1.810000,0.770000L0.500000,6.000000L3.520000,6.000000L4.530000,0.000000ZM7.680000,6.500000L11.000000,6.500000L11.000000,6.750000C11.120001,7.930000,10.460001,9.000000,9.490000,9.000000C8.510000,9.000000,7.680000,7.950000,7.680000,6.750000L7.680000,6.500000ZM13.310000,9.000000C12.340000,9.000000,11.640000,7.980000,11.500000,6.800000C11.490001,6.700000,11.500000,6.500000,11.500000,6.500000L14.520000,6.500000C14.520000,6.500000,14.560000,6.500000,14.620001,6.800000C14.860001,8.000000,14.290001,9.000000,13.310000,9.000000ZM7.720000,6.000000L7.720000,0.000000L9.990000,0.000000L11.000000,6.000000L7.720000,6.000000ZM10.490000,0.000000L12.300000,0.000000C12.710001,0.000000,13.120001,0.340000,13.210001,0.770000L14.520000,6.000000L11.500000,6.000000L10.490000,0.000000ZM2.764333,10.500000L4.235668,10.500000C4.455753,10.500000,4.565796,10.500000,4.665033,10.532748L4.684253,10.537457C4.813588,10.584531,4.915470,10.686412,4.962544,10.815747C5.000000,10.934203,5.000000,11.044247,5.000000,11.264333L5.000000,14.000000L2.000000,14.000000L2.000000,11.264333C2.000000,11.044247,2.000000,10.934203,2.032748,10.834968L2.037456,10.815747C2.084530,10.686412,2.186412,10.584531,2.315747,10.537457C2.434203,10.500000,2.544246,10.500000,2.764332,10.500000L2.764333,10.500000M10.764333,10.500000L12.235668,10.500000C12.455753,10.500000,12.565796,10.500000,12.665033,10.532748L12.684254,10.537457C12.813588,10.584531,12.915470,10.686412,12.962544,10.815747C13.000000,10.934203,13.000000,11.044247,13.000000,11.264333L13.000000,14.000000L10.000000,14.000000L10.000000,11.264333C10.000000,11.044247,10.000000,10.934203,10.032748,10.834968L10.037456,10.815747C10.084530,10.686412,10.186412,10.584531,10.315746,10.537457C10.434203,10.500000,10.544247,10.500000,10.764332,10.500000L10.764333,10.500000M0.764332,14.000000L14.235667,14.000000C14.197693,14.000000,14.362758,14.000000,14.511612,14.049122L14.540442,14.056183C14.816357,14.156608,15.000001,14.418878,15.000001,14.712500C15.000000,14.750000,15.000000,14.750000,15.000000,14.750000L15.000000,14.750000C15.000000,14.750000,15.000000,14.750000,15.000000,14.750000L15.000001,14.787500C15.000001,15.081122,14.816357,15.343392,14.540442,15.443817C14.362758,15.500000,14.197693,15.500000,13.867564,15.500000L0.764332,15.500000C0.802307,15.500000,0.637242,15.500000,0.488388,15.450878L0.459558,15.443817C0.183643,15.343392,0.000000,15.081122,0.000000,14.787500C0.000000,14.750000,0.000000,14.750000,0.000000,14.750000L0.000000,14.750000C0.000000,14.750000,0.000000,14.750000,0.000000,14.750000L0.000000,14.712500C0.000000,14.418878,0.183643,14.156608,0.459558,14.056183C0.637242,14.000000,0.802307,14.000000,1.132436,14.000000L0.764332,14.000000"/>
</svg>
