<svg xmlns="http://www.w3.org/2000/svg" width="334" height="257"><path id="Shape" fill="#00a0c9" opacity=".5" d="M75.954 0c-8.284 0-15.706 6.715-16.576 15l-14.505 138c-.87 8.285 5.139 15 13.424 15h.471c-6.906 0-11.882-5.84-11.114-13.043l15.126-141.913c.767-7.204 6.988-13.044 13.894-13.044h-.72z"/><path id="Shape" fill="#00a0c9" opacity=".2" d="M65.954 0c-8.284 0-15.706 6.715-16.576 15l-14.505 138c-.87 8.285 5.139 15 13.424 15h.471c-6.906 0-11.882-5.84-11.114-13.043l15.126-141.913c.767-7.204 6.988-13.044 13.894-13.044h-.72z"/><path id="Shape" fill="#00a0c9" opacity=".1" d="M50.954 0c-8.285 0-15.706 6.715-16.577 15l-14.504 138c-.871 8.285 5.139 15 13.423 15h.472c-6.906 0-11.882-5.84-11.114-13.043l15.125-141.913c.768-7.204 6.989-13.044 13.894-13.044h-.719z"/><path id="Shape" fill="#00a0c9" opacity=".05" d="M30.954 0c-8.284 0-15.706 6.715-16.576 15l-14.505 138c-.87 8.285 5.139 15 13.424 15h.471c-6.906 0-11.882-5.84-11.114-13.043l15.125-141.913c.768-7.204 6.989-13.044 13.894-13.044h-.719z"/><path id="Shape" fill="#00a0c9" d="M318.454 0h-235c-8.284 0-15.706 6.715-16.576 15l-14.505 138c-.87 8.285 5.139 15 13.424 15h235c8.284 0 15.706-6.715 16.576-15l14.505-138c.87-8.285-5.14-15-13.424-15zm9.818 16l-14.294 136c-.725 6.904-6.91 12.5-13.814 12.5h-233c-6.903 0-11.912-5.596-11.186-12.5l14.294-136c.726-6.904 6.911-12.5 13.814-12.5h233c6.904 0 11.912 5.596 11.186 12.5z"/><path id="Shape" fill="#2996cc" opacity=".05" d="M179.257 127.151c-19.557-2.154-33.953-17.397-35.03-37.075-.119-2.314-.061-4.687.19-7.081 2.231-21.588 20.23-40.44 41.891-43.848 1.905-.302 3.634-1.312 4.91-2.846 1.28-1.527 1.91-3.4 1.805-5.27-.184-3.451-2.857-5.965-6.343-5.965-.368 0-.753.03-1.13.092-14.026 2.207-27.347 9.329-37.494 20.048-10.027 10.603-16.356 24.023-17.771 37.789-.33 3.138-.409 6.266-.244 9.317 1.43 26.42 21.665 47.062 48.103 49.09.114 0 .222-.053.297-.137.066-.096.078-.213.032-.307-.714-1.505-1.13-3.14-1.229-4.874-.155-2.914.603-5.862 2.192-8.507.063-.087.073-.186.028-.273-.035-.083-.12-.138-.207-.153zm68.088-53.459c-1.444-26.426-21.678-47.069-48.12-49.092h-.029c-.164 0-.31.133-.328.299-.008.083.016.158.065.214.702 1.477 1.099 3.099 1.192 4.804.165 2.916-.599 5.853-2.206 8.501-.034.088-.045.189-.016.282.041.081.112.135.219.144 19.547 2.153 33.951 17.411 35.021 37.079.125 2.312.066 4.691-.184 7.071-2.237 21.598-20.243 40.452-41.9 43.859-1.9.302-3.635 1.306-4.908 2.839-1.261 1.537-1.912 3.412-1.798 5.27.182 3.461 2.854 5.972 6.341 5.972.374 0 .755-.025 1.133-.088 14.025-2.208 27.338-9.332 37.486-20.051 10.044-10.605 16.352-24.023 17.77-37.801.329-3.124.415-6.257.262-9.302zm-84.947 17.965c-.294 1-.15 2.026.421 2.807.566.776 1.472 1.225 2.487 1.225h6.648c1.524 0 2.98-1.022 3.532-2.505 2.1-5.605 7.5-9.529 13.127-9.529 5.633 0 10.214 3.924 11.131 9.529.254 1.483 1.478 2.505 3.012 2.505h6.655c1.005 0 2.01-.449 2.739-1.225.719-.78 1.089-1.807 1.005-2.807-1.07-12.327-10.802-21.278-23.147-21.278-12.335 0-23.941 8.951-27.61 21.278z"/><path fill="#00a0c9" d="M292.651 79h-26c-4.142 0-7.853 3.358-8.289 7.5l-2.312 22c-.436 4.142 2.569 7.5 6.711 7.5h26c4.142 0 7.853-3.358 8.289-7.5l2.312-22c.436-4.142-2.569-7.5-6.711-7.5zm-26.263 2.5h5.5l-.735 7h-10.5l.21-2c.29-2.761 2.764-5 5.525-5zm-5.841 8h10.5l-.735 7h-10.5l.735-7zm-.841 8h10.5l-.735 7h-10.5l.735-7zm3.319 16c-2.762 0-4.765-2.239-4.475-5l.316-3h11.5l2.522-24h13.5l-3.363 32h-20zm31.525-5c-.29 2.761-2.764 5-5.525 5h-5l.841-8h10l-.316 3zm.421-4h-10l.735-7h10l-.735 7zm.84-8h-10l.736-7h10l-.736 7zm1.051-10l-.21 2h-10l.736-7h5c2.761 0 4.765 2.239 4.474 5zm6.427-42.669c-.165-.584-.427-1.088-.783-1.51-.357-.423-.801-.751-1.331-.986-.531-.234-1.125-.352-1.781-.352-.762 0-1.431.152-2.006.455-.575.303-1.058.697-1.45 1.184l.888.691c.301-.393.661-.691 1.079-.896.419-.205.872-.307 1.358-.307.494 0 .932.094 1.314.281.381.188.695.446.94.775.245.328.419.714.522 1.158.104.444.128.922.075 1.434-.052.495-.178.962-.379 1.401-.2.44-.459.826-.778 1.159-.319.333-.689.595-1.11.787-.422.192-.884.288-1.386.288-.446 0-.851-.101-1.215-.301-.364-.201-.635-.455-.814-.762l-1.029.768c.138.231.312.433.52.608.209.175.445.322.708.442.263.119.541.209.835.269.294.059.586.089.878.089.657 0 1.277-.115 1.861-.345.583-.231 1.102-.553 1.554-.967.453-.414.826-.913 1.118-1.497.293-.585.476-1.231.551-1.939.073-.7.027-1.342-.139-1.927zm-9.477 3.866c.288-.585.47-1.231.544-1.939.074-.7.028-1.342-.138-1.927-.165-.584-.428-1.088-.789-1.51-.361-.423-.807-.751-1.338-.986-.53-.234-1.124-.352-1.781-.352-.656 0-1.277.118-1.861.352-.584.235-1.101.563-1.55.986-.45.422-.821.926-1.114 1.51-.292.585-.475 1.227-.549 1.927-.074.708-.027 1.354.143 1.939.17.584.436 1.083.797 1.497.362.414.811.736 1.346.967.535.23 1.131.345 1.787.345.657 0 1.275-.115 1.854-.345.58-.231 1.094-.553 1.543-.967.449-.413.817-.913 1.106-1.497zm-1.908.621c-.314.333-.682.595-1.104.787-.421.192-.879.288-1.374.288-.502 0-.944-.096-1.325-.288-.381-.192-.696-.455-.945-.787-.249-.333-.427-.719-.535-1.159-.108-.439-.136-.907-.084-1.401.053-.504.18-.977.381-1.421.2-.444.46-.83.778-1.159.319-.328.69-.587 1.115-.774.425-.188.885-.282 1.38-.282.494 0 .93.094 1.308.282.377.187.691.446.94.774.249.329.427.715.535 1.159.107.443.134.917.081 1.421-.052.495-.178.962-.378 1.401-.201.44-.458.826-.773 1.159zm-8.44-7.104h-1.204l-.952 9.062h1.204l.952-9.062zm-10.186 1.817h.024l3.738 7.245h1.568l.953-9.062h-1.204l-.778 7.398h-.024l-3.77-7.398h-1.52l-.953 9.062h1.204l.762-7.245zm-9.534-.691h4.499l-.318 3.021h-4.061l-.115 1.088h4.062l-.285 2.714h-4.317l-.117 1.113h5.52l.953-9.062h-5.703l-.118 1.126zm-1.965 7.936l-2.682-5.145.412-3.917h-1.216l-.412 3.917-3.763 5.145h1.399l2.826-4.096 1.953 4.096h1.483zm-13.202-9.062h-1.204l-.836 7.949h-2.76l-.117 1.113h6.724l.117-1.113h-2.76l.836-7.949zm-8.686 9.062l4.685-9.062h-1.337l-1.098 2.227h-4.086l-.641-2.227h-1.362l2.744 9.062h1.095zm1.708-5.721l-2.064 4.249-1.159-4.249h3.223zm-8.889.691h-1.289l-1.765-4.032h-1.459l1.971 4.16c-.628.111-1.158.371-1.59.781-.432.409-.683.947-.753 1.613-.049.461-.009.851.12 1.171.128.32.322.578.581.774.259.196.571.339.934.429.364.09.752.135 1.166.135h2.76l.953-9.063h-1.204l-.425 4.032zm-.416 3.955h-1.471c-.26 0-.504-.023-.735-.07-.23-.047-.426-.126-.589-.237-.162-.111-.287-.258-.373-.442-.086-.183-.115-.412-.086-.685.029-.273.106-.501.23-.685.125-.183.285-.333.479-.448.195-.115.416-.198.665-.249.248-.051.515-.077.798-.077h1.386l-.304 2.893zm-6.07-3.443c.073-.7.027-1.342-.138-1.927-.166-.584-.429-1.088-.79-1.51-.361-.423-.806-.751-1.337-.986-.531-.234-1.125-.352-1.781-.352-.657 0-1.277.118-1.861.352-.584.235-1.101.563-1.551.986-.449.422-.821.926-1.113 1.51-.293.585-.476 1.227-.549 1.927-.075.708-.027 1.354.143 1.939.169.584.435 1.083.797 1.497.362.414.81.736 1.345.967.535.23 1.131.345 1.788.345.656 0 1.275-.115 1.854-.345.579-.231 1.094-.553 1.542-.967.449-.414.818-.913 1.106-1.497.289-.585.47-1.231.545-1.939zm-1.301 0c-.052.495-.178.962-.379 1.401-.2.44-.457.826-.772 1.159-.315.333-.683.595-1.104.787-.422.192-.88.288-1.374.288-.503 0-.945-.096-1.326-.288-.381-.192-.696-.455-.945-.787-.248-.333-.427-.719-.535-1.159-.107-.439-.135-.907-.083-1.401.053-.504.18-.977.38-1.421.201-.444.46-.83.779-1.159.318-.328.69-.587 1.115-.774.425-.188.885-.282 1.379-.282.495 0 .931.094 1.308.282.378.187.691.446.94.774.25.329.428.715.535 1.159.107.444.135.917.082 1.421zm75.957 12.788c-.764-.32-1.737-.48-2.918-.48-1.414 0-2.62.436-3.618 1.308-.999.872-1.569 1.979-1.71 3.322-.133 1.266.165 2.326.895 3.18.729.855 1.709 1.282 2.939 1.282.359 0 .739-.041 1.142-.122.402-.081.844-.205 1.326-.374l-.359 3.417h-4.778c-.324 0-.581.072-.772.216-.191.144-.3.346-.327.606-.029.274.034.48.188.617.155.137.401.206.738.206h5.336c.359 0 .616-.051.77-.153.155-.102.245-.269.269-.501l.552-5.253c.043-.408.029-.689-.043-.844-.071-.154-.213-.232-.424-.232-.126 0-.51.158-1.152.475-.641.316-1.278.474-1.911.474-.844 0-1.513-.29-2.008-.87-.494-.58-.696-1.306-.604-2.178.094-.893.464-1.622 1.11-2.188.647-.566 1.441-.849 2.383-.849.64 0 1.32.135 2.041.406.72.27 1.119.406 1.196.406.197 0 .377-.072.54-.216.163-.144.254-.308.273-.491.049-.456-.309-.844-1.074-1.164zm-11.363-.132h-6.307c-.281 0-.498.063-.653.19-.154.126-.244.316-.271.569-.029.281.035.473.193.575.158.102.55.153 1.175.153h1.688l-1.2 11.412c-.022.211-.001.378.064.501.064.123.163.184.297.184l.228-.016.232-.047 3.221-.844c.232-.064.414-.158.547-.285.133-.127.208-.274.226-.443.021-.204-.03-.368-.154-.491s-.295-.184-.513-.184l-.123.01-.209.032-2.032.474 1.083-10.304h1.751c.626 0 1.028-.051 1.208-.153.179-.102.284-.294.313-.575.027-.253-.023-.443-.151-.57-.127-.125-.332-.188-.613-.188zm-10.022 0h-6.982c-.169 0-.312.061-.43.184-.119.123-.2.294-.244.512l-.169.812-.022.111-.022.11c-.028.267.016.478.134.633.117.155.292.232.524.232.232 0 .425-.079.578-.237.154-.159.261-.389.321-.691h4.82l-1.428 1.244c-.358.324-.872.77-1.544 1.34-2.63 2.285-4.018 4.117-4.163 5.495-.115 1.097.179 2.021.884 2.774.705.752 1.641 1.128 2.808 1.128.696 0 1.39-.128 2.081-.385.692-.257 1.285-.603 1.781-1.039.148-.133.253-.258.314-.374.061-.116.105-.301.132-.554.046-.436.024-.731-.065-.886-.089-.154-.261-.232-.514-.232-.323 0-.64.236-.949.707l-.231.285c-.278.309-.629.555-1.053.738-.423.183-.857.274-1.299.274-.682 0-1.213-.234-1.593-.701-.379-.468-.53-1.078-.451-1.83.11-1.048 1.502-2.718 4.176-5.01l.975-.844.337-.296c1.482-1.258 2.247-2.116 2.295-2.573.034-.317-.032-.55-.195-.702-.165-.15-.433-.225-.806-.225zm-14.435-.348c-1.322 0-2.439.627-3.352 1.882-.912 1.255-1.482 2.962-1.709 5.121-.227 2.158-.016 3.863.633 5.115.649 1.251 1.635 1.877 2.956 1.877 1.322 0 2.437-.624 3.345-1.872.908-1.248 1.476-2.955 1.704-5.12.228-2.173.019-3.883-.626-5.131-.646-1.248-1.629-1.872-2.951-1.872zm1.826 7.003c-.183 1.743-.55 3.093-1.1 4.05-.551.956-1.23 1.434-2.039 1.434-.815 0-1.398-.478-1.747-1.434-.35-.957-.433-2.307-.25-4.05.184-1.751.552-3.106 1.103-4.066.551-.96 1.234-1.44 2.049-1.44.809 0 1.388.48 1.737 1.44.349.96.431 2.315.247 4.066zm-22.806-6.523c-.764-.32-1.737-.48-2.918-.48-1.414 0-2.62.436-3.618 1.308-.999.872-1.569 1.979-1.71 3.322-.133 1.266.165 2.326.894 3.18.73.855 1.71 1.282 2.94 1.282.358 0 .739-.041 1.141-.122.403-.081.844-.205 1.326-.374l-.359 3.417h-4.778c-.323 0-.58.072-.771.216-.191.144-.3.346-.328.606-.029.274.034.48.188.617.155.137.401.206.738.206h5.337c.358 0 .615-.051.77-.153.155-.102.244-.269.269-.501l.552-5.253c.043-.408.028-.689-.043-.844-.072-.154-.213-.232-.424-.232-.127 0-.511.158-1.152.475-.642.316-1.279.474-1.912.474-.844 0-1.513-.29-2.007-.87-.495-.58-.696-1.306-.604-2.178.094-.893.464-1.622 1.11-2.188.647-.566 1.441-.849 2.383-.849.64 0 1.32.135 2.041.406.72.27 1.119.406 1.196.406.197 0 .377-.072.54-.216.163-.144.254-.308.273-.491.049-.456-.309-.844-1.074-1.164zm-11.363-.132h-6.307c-.281 0-.498.063-.653.19-.154.126-.244.316-.271.569-.029.281.035.473.193.575.158.102.55.153 1.176.153h1.687l-1.199 11.412c-.022.211-.001.378.063.501.065.123.164.184.297.184l.229-.016.232-.047 3.221-.844c.232-.064.414-.158.547-.285.133-.127.208-.274.226-.443.021-.204-.03-.368-.154-.491s-.295-.184-.513-.184l-.123.01-.209.032-2.032.474 1.083-10.304h1.751c.626 0 1.028-.051 1.208-.153.179-.102.284-.294.313-.575.027-.253-.023-.443-.151-.57-.128-.125-.333-.188-.614-.188zm-10.022 0h-6.982c-.169 0-.312.061-.43.184-.119.123-.2.294-.244.512l-.169.812-.022.111-.022.11c-.028.267.016.478.134.633.117.155.292.232.524.232.232 0 .425-.079.578-.237.154-.159.261-.389.321-.691h4.82l-1.428 1.244c-.358.324-.872.77-1.544 1.34-2.63 2.285-4.018 4.117-4.163 5.495-.116 1.097.179 2.021.884 2.774.705.752 1.641 1.128 2.808 1.128.696 0 1.39-.128 2.082-.385.691-.257 1.285-.603 1.781-1.039.147-.133.252-.258.313-.374.062-.116.106-.301.132-.554.046-.436.024-.731-.065-.886-.089-.154-.26-.232-.513-.232-.324 0-.64.236-.95.707l-.23.285c-.279.309-.63.555-1.053.738-.424.183-.857.274-1.3.274-.682 0-1.213-.234-1.592-.701-.38-.468-.53-1.078-.451-1.83.11-1.048 1.502-2.718 4.176-5.01l.974-.844.337-.296c1.483-1.258 2.248-2.116 2.296-2.573.033-.317-.032-.55-.196-.702-.165-.15-.433-.225-.806-.225zm-14.435-.348c-1.322 0-2.439.627-3.352 1.882-.912 1.255-1.482 2.962-1.709 5.121-.227 2.158-.016 3.863.633 5.115.649 1.251 1.635 1.877 2.956 1.877 1.322 0 2.437-.624 3.345-1.872.908-1.248 1.476-2.955 1.704-5.12.228-2.173.019-3.883-.626-5.131-.646-1.248-1.629-1.872-2.951-1.872zm1.826 7.003c-.183 1.743-.55 3.093-1.1 4.05-.551.956-1.23 1.434-2.039 1.434-.815 0-1.398-.478-1.747-1.434-.35-.957-.433-2.307-.25-4.05.184-1.751.552-3.106 1.103-4.066.551-.96 1.234-1.44 2.049-1.44.809 0 1.388.48 1.737 1.44.349.96.432 2.315.247 4.066zm-22.006-6.523c-.764-.32-1.737-.48-2.918-.48-1.414 0-2.62.436-3.618 1.308-.999.872-1.569 1.979-1.71 3.322-.133 1.266.165 2.326.894 3.18.73.855 1.71 1.282 2.94 1.282.358 0 .739-.041 1.141-.122.403-.081.844-.205 1.326-.374l-.359 3.417h-4.778c-.323 0-.58.072-.771.216-.191.144-.3.346-.328.606-.029.274.034.48.188.617.155.137.401.206.738.206h5.337c.358 0 .615-.051.77-.153.155-.102.244-.269.269-.501l.552-5.253c.043-.408.028-.689-.043-.844-.072-.154-.213-.232-.424-.232-.127 0-.511.158-1.152.475-.642.316-1.279.474-1.912.474-.844 0-1.513-.29-2.007-.87-.495-.58-.696-1.306-.604-2.178.094-.893.464-1.622 1.11-2.188.647-.566 1.441-.849 2.383-.849.64 0 1.32.135 2.041.406.72.27 1.119.406 1.196.406.197 0 .377-.072.54-.216.163-.144.254-.308.273-.491.049-.456-.309-.844-1.074-1.164zm-11.363-.132h-6.307c-.281 0-.498.063-.653.19-.154.126-.244.316-.271.569-.029.281.035.473.193.575.158.102.55.153 1.176.153h1.687l-1.199 11.412c-.022.211-.001.378.063.501.065.123.164.184.297.184l.229-.016.232-.047 3.221-.844c.232-.064.414-.158.547-.285.133-.127.208-.274.226-.443.021-.204-.03-.368-.154-.491s-.295-.184-.513-.184l-.123.01-.209.032-2.032.474 1.083-10.304h1.751c.626 0 1.028-.051 1.208-.153.179-.102.284-.294.313-.575.027-.253-.023-.443-.151-.57-.128-.125-.333-.188-.614-.188zm-10.022 0h-6.982c-.169 0-.312.061-.43.184-.119.123-.2.294-.244.512l-.169.812-.022.111-.022.11c-.028.267.016.478.134.633.117.155.292.232.524.232.232 0 .425-.079.578-.237.154-.159.261-.389.321-.691h4.82l-1.428 1.244c-.358.324-.872.77-1.544 1.34-2.63 2.285-4.018 4.117-4.163 5.495-.116 1.097.179 2.021.884 2.774.705.752 1.641 1.128 2.808 1.128.696 0 1.39-.128 2.082-.385.691-.257 1.285-.603 1.781-1.039.147-.133.252-.258.313-.374.062-.116.106-.301.132-.554.046-.436.024-.731-.065-.886-.089-.154-.26-.232-.513-.232-.324 0-.64.236-.95.707l-.23.285c-.279.309-.63.555-1.053.738-.424.183-.857.274-1.3.274-.682 0-1.213-.234-1.592-.701-.38-.468-.53-1.078-.451-1.83.11-1.048 1.502-2.718 4.176-5.01l.974-.844.337-.296c1.483-1.258 2.248-2.116 2.296-2.573.033-.317-.032-.55-.196-.702-.165-.15-.433-.225-.806-.225zm-14.435-.348c-1.322 0-2.439.627-3.352 1.882-.912 1.255-1.482 2.962-1.709 5.121-.227 2.158-.016 3.863.633 5.115.649 1.251 1.635 1.877 2.956 1.877 1.322 0 2.437-.624 3.345-1.872.908-1.248 1.476-2.955 1.704-5.12.228-2.173.019-3.883-.626-5.131-.646-1.248-1.629-1.872-2.951-1.872zm1.826 7.003c-.183 1.743-.55 3.093-1.1 4.05-.551.956-1.23 1.434-2.039 1.434-.815 0-1.398-.478-1.747-1.434-.35-.957-.433-2.307-.25-4.05.184-1.751.552-3.106 1.103-4.066.551-.96 1.234-1.44 2.049-1.44.809 0 1.388.48 1.737 1.44.349.96.432 2.315.247 4.066zm-22.406-6.523c-.764-.32-1.737-.48-2.918-.48-1.414 0-2.62.436-3.618 1.308-.999.872-1.569 1.979-1.71 3.322-.133 1.266.165 2.326.895 3.18.729.855 1.709 1.282 2.94 1.282.358 0 .739-.041 1.141-.122.402-.081.844-.205 1.326-.374l-.359 3.417h-4.778c-.323 0-.58.072-.771.216-.191.144-.3.346-.328.606-.029.274.034.48.189.617.154.137.4.206.737.206h5.337c.358 0 .615-.051.77-.153.155-.102.244-.269.269-.501l.552-5.253c.043-.408.028-.689-.043-.844-.072-.154-.213-.232-.424-.232-.127 0-.511.158-1.152.475-.642.316-1.279.474-1.912.474-.844 0-1.513-.29-2.007-.87-.495-.58-.696-1.306-.605-2.178.094-.893.464-1.622 1.111-2.188.646-.566 1.441-.849 2.383-.849.64 0 1.32.135 2.04.406.721.27 1.12.406 1.197.406.197 0 .376-.072.539-.216.163-.144.254-.308.273-.491.049-.456-.309-.844-1.074-1.164zm-11.363-.132h-6.307c-.281 0-.498.063-.653.19-.154.126-.244.316-.271.569-.029.281.035.473.193.575.158.102.55.153 1.175.153h1.688l-1.2 11.412c-.022.211-.001.378.064.501.064.123.163.184.297.184l.228-.016.232-.047 3.221-.844c.232-.064.414-.158.547-.285.133-.127.208-.274.226-.443.021-.204-.03-.368-.154-.491s-.295-.184-.513-.184l-.123.01-.209.032-2.032.474 1.083-10.304h1.751c.626 0 1.028-.051 1.208-.153.179-.102.284-.294.313-.575.027-.253-.023-.443-.151-.57-.127-.125-.332-.188-.613-.188zm-10.022 0h-6.982c-.168 0-.312.061-.43.184-.119.123-.2.294-.244.512l-.169.812-.022.111-.022.11c-.028.267.016.478.134.633.117.155.292.232.524.232.232 0 .425-.079.578-.237.154-.158.261-.389.321-.691h4.82l-1.428 1.244c-.358.324-.872.77-1.544 1.34-2.63 2.285-4.018 4.117-4.163 5.495-.116 1.097.179 2.021.884 2.774.705.752 1.641 1.128 2.808 1.128.696 0 1.39-.128 2.082-.385.691-.257 1.285-.603 1.781-1.039.147-.133.252-.258.313-.374.062-.116.106-.301.132-.554.046-.436.024-.731-.065-.886-.089-.154-.26-.232-.513-.232-.324 0-.64.236-.95.707l-.23.285c-.279.309-.63.555-1.053.738-.424.183-.857.274-1.3.274-.682 0-1.213-.234-1.592-.701-.38-.468-.53-1.078-.451-1.83.11-1.048 1.502-2.718 4.176-5.01l.974-.844.337-.296c1.483-1.258 2.248-2.116 2.296-2.573.033-.317-.032-.55-.196-.702-.165-.15-.433-.225-.806-.225zm-14.435-.348c-1.322 0-2.439.627-3.352 1.882-.912 1.255-1.482 2.962-1.709 5.121-.227 2.158-.016 3.863.633 5.115.649 1.251 1.635 1.877 2.956 1.877 1.322 0 2.437-.624 3.345-1.872.908-1.248 1.476-2.955 1.704-5.12.228-2.173.019-3.883-.626-5.131-.646-1.248-1.629-1.872-2.951-1.872zm1.826 7.003c-.183 1.743-.55 3.093-1.1 4.05-.551.956-1.23 1.434-2.039 1.434-.815 0-1.398-.478-1.747-1.434-.35-.957-.433-2.307-.25-4.05.184-1.751.552-3.106 1.103-4.066.551-.96 1.234-1.44 2.049-1.44.809 0 1.388.48 1.737 1.44.349.96.431 2.315.247 4.066z"/><path opacity=".1" d="M194.25 90.5c-32.999 0-59.75 26.736-59.75 59.715 0 28.24 19.541 51.828 45.846 58.213 1.503.375 2.631 1.502 2.631 3.38 0 3.004 3.006 4.507 6.012 4.882v26.485c0 1.17.477 2.279 1.302 3.084l-1.005 7.362 3.837 2.879h2.254l3.836-2.886-1.004-7.355c.825-.805 1.302-1.915 1.302-3.085v-26.484c3.382-.375 6.012-1.878 6.012-4.882 0-1.878 2.631-3.38 4.51-4.131 25.177-6.76 43.966-29.915 43.966-57.462.001-32.979-26.68-59.715-59.749-59.715z"/><path fill="#fff" d="M249.5 146.25c0-32.723-26.527-59.25-59.25-59.25s-59.25 26.527-59.25 59.25c0 29.576 21.671 54.088 50 58.53v6.22h5v29h.5v10.5h7.5v-10.5h.5v-29h5.5v-6.303c28.083-4.651 49.5-29.046 49.5-58.447z"/><path fill="#00a0c9" d="M190.25 86.5c-32.999 0-59.75 26.736-59.75 59.715 0 28.24 19.541 51.828 45.846 58.213 1.503.375 2.631 1.502 2.631 3.38 0 3.004 3.006 4.507 6.012 4.882v26.485c0 1.17.477 2.279 1.302 3.084l-1.005 7.362 3.837 2.879h2.254l3.836-2.886-1.004-7.355c.825-.805 1.302-1.915 1.302-3.085v-26.484c3.382-.375 6.012-1.878 6.012-4.882 0-1.878 2.631-3.38 4.51-4.131 25.177-6.76 43.966-29.915 43.966-57.462.001-32.979-26.68-59.715-59.749-59.715zm3.007 152.674c0 .674-.333 1.307-.89 1.693l-.569.393 1.005 7.366-2.178 1.62h-.751l-2.176-1.627 1.004-7.358-.707-.404c-.376-.375-.751-1.126-.751-1.502v-.969c1.991.28 4.022.28 6.012-.001v.789zm0-2.53c-1.991.28-4.022.281-6.013.001v-6.892c1.991.28 4.022.28 6.013-.001v6.892zm0-8.633c-1.991.281-4.022.281-6.013.001v-6.728c1.991.28 4.022.28 6.013-.001v6.728zm0-9.05c-1.991.281-4.022.281-6.013.001v-6.272h6.013v6.271zm12.107-17.295c-3.15.885-6.095 2.762-6.095 5.962 0 2.433-4.885 2.809-9.019 2.809-5.261 0-9.019-.376-9.016-2.838-.003-3.171-.379-4.673-4.243-5.46-30.708-7.1-44.237-34.516-44.237-55.924 0-31.548 25.929-57.461 57.495-57.461s57.495 25.914 57.495 57.461c.001 26.289-17.285 48.824-42.38 55.452zm-15.114-109.663c-29.962 0-54.25 24.289-54.25 54.25s24.289 54.249 54.25 54.249 54.25-24.289 54.25-54.25-24.289-54.249-54.25-54.249zm0 107.756c-29.726 0-53.507-23.781-53.507-53.506 0-29.726 23.781-53.506 53.507-53.506s53.507 23.78 53.507 53.506c0 29.725-23.781 53.505-53.507 53.506zm41.724-53.743l-.096-.049h-2.068c-.048 0-.091.029-.108.075l-1.654 4.506-1.463-4.503c-.015-.048-.061-.078-.111-.078h-2.134l-.097.049-.011.106 2.747 6.976-1.081 2.74.012.106.094.049h1.917l.106-.071 3.958-9.8-.011-.106zm-66.83.072c.036-.191-.013-.389-.138-.539-.124-.15-.308-.237-.502-.237h-1.281c-.295 0-.555.198-.631.483-.292 1.081-1.253 1.836-2.336 1.836-1.086 0-2.047-.755-2.339-1.836-.077-.285-.336-.483-.631-.483h-1.28c-.195 0-.38.087-.503.237s-.175.348-.139.539c.456 2.377 2.514 4.101 4.892 4.101 2.375 0 4.433-1.724 4.888-4.101zm-6.017 11.896c-.091-.561-.004-1.129.249-1.639l-.002-.052-.043-.03c-3.811-.415-6.895-3.353-7.499-7.142-.072-.446-.107-.904-.107-1.363-.011-4.16 3.078-7.792 7.182-8.449.36-.057.676-.252.889-.547.213-.295.299-.656.243-1.015-.107-.667-.672-1.15-1.345-1.15l-.217.017c-2.66.426-5.08 1.797-6.817 3.863-1.718 2.042-2.665 4.628-2.66 7.281 0 .603.049 1.206.142 1.792.811 5.091 5.129 9.068 10.263 9.458h.008l.057-.058-.019-.04c-.163-.287-.273-.598-.324-.926zm59.32-12.269c-1.042 0-2.037.419-2.806 1.181-.758.755-1.16 1.712-1.16 2.77 0 1.078.377 2.02 1.119 2.799.777.814 1.716 1.209 2.874 1.209 1.621 0 2.824-.716 3.574-2.13l-.003-.112-.098-.055h-2.16l-.073.026c-.334.274-.705.401-1.167.401-.994 0-1.63-.443-1.838-1.284l-.018-.071h5.719c.065 0 .116-.05.116-.113v-.072c0-2.762-1.602-4.549-4.079-4.549zm-1.792 3.251l.015-.068c.167-.764.888-1.297 1.838-1.297.932 0 1.598.484 1.879 1.29l.026.075h-3.758zm-55.552-12.458l-.052.027-.001.058c.169.29.281.606.334.938.089.562.003 1.129-.251 1.64l.001.052.043.029c3.812.415 6.896 3.352 7.5 7.143.071.445.107.903.107 1.363.009 4.159-3.079 7.792-7.183 8.448-.361.058-.675.252-.888.547-.214.295-.3.655-.243 1.015.107.666.673 1.15 1.346 1.15l.216-.018c2.659-.425 5.08-1.797 6.817-3.861 1.72-2.044 2.664-4.629 2.658-7.282.001-.604-.045-1.207-.14-1.793-.812-5.09-5.129-9.067-10.264-9.456zm31.804 9.205c-1.05 0-2.057.424-2.832 1.193-.767.761-1.173 1.729-1.173 2.797 0 1.077.392 2.05 1.13 2.812.786.822 1.734 1.221 2.904 1.221 1.141 0 2.122-.401 2.92-1.192.78-.774 1.159-1.713 1.159-2.87 0-1.061-.46-2.101-1.26-2.853-.784-.735-1.742-1.108-2.848-1.108zm.044 6.018c-1.07 0-1.939-.897-1.939-1.998 0-1.11.869-2.014 1.939-2.014 1.068 0 1.938.904 1.938 2.014 0 1.101-.87 1.998-1.938 1.998zm7.889-8.738c-.689 0-1.248.556-1.248 1.24 0 .683.559 1.239 1.248 1.239.688 0 1.248-.557 1.248-1.239 0-.684-.56-1.24-1.248-1.24zm.954 3.231h-1.91c-.064 0-.115.051-.115.114v7.074c0 .062.051.113.115.113h1.91c.065 0 .116-.051.116-.113v-7.074c0-.063-.051-.114-.116-.114zm6.636-.552c-2.011 0-3.647 1.624-3.647 3.62v4.12c0 .062.053.113.115.113h1.777c.063 0 .115-.051.115-.113v-4.12c0-.898.735-1.628 1.64-1.628.903 0 1.64.73 1.64 1.628v4.12c0 .062.05.113.114.113h1.776c.063 0 .114-.051.114-.113v-4.12c0-1.996-1.635-3.62-3.644-3.62zm-27.158-.139c1.032 0 2.002.635 2.47 1.619l.103.065h2.481l.091-.045.019-.099c-.636-2.263-2.743-3.843-5.125-3.843-2.932 0-5.317 2.352-5.317 5.244s2.385 5.245 5.317 5.245c2.367 0 4.47-1.567 5.117-3.812l-.019-.099-.091-.045h-2.487l-.104.064c-.479.98-1.42 1.589-2.455 1.589-1.529 0-2.771-1.32-2.771-2.942.001-1.621 1.242-2.941 2.771-2.941z"/></svg>