<svg xmlns="http://www.w3.org/2000/svg" width="342" height="254"><path id="Shape" fill="#fff" d="M218.576 119.794l-20.566-107.362c-1.021-5.366-6.337-10.011-11.871-10.156-62.722-1.649-125.195 16.404-178.29 51.552-4.686 3.101-7.012 9.955-5.303 15.12 11.368 34.467 22.736 68.934 34.104 103.402 1.712 5.169 6.535 7.03 10.864 4.316 49.166-30.888 106.5-47.44 163.785-47.31 5.042.007 8.299-4.191 7.277-9.563z"/><path id="Shape" fill="#f4fafc" d="M120.957 84.55c1.637-.421 3.277-.829 4.92-1.224.745-.179 1.368-.697 1.697-1.415.322-.72.318-1.568-.017-2.317-4.129-9.238-13.916-14.376-23.071-11.628-9.156 2.72-15.021 12.53-14.08 22.716.077.826.477 1.556 1.112 1.99.63.432 1.41.531 2.139.269 1.594-.571 3.192-1.129 4.794-1.674 1.101-.375 1.865-1.494 1.843-2.743-.074-4.723 2.753-8.977 6.896-10.21 4.145-1.241 8.631.829 10.854 4.912.598 1.078 1.781 1.616 2.913 1.324zm-7.271 35.912c-.929-2.165-1.218-4.562-.823-6.914.021-.08.001-.157-.056-.213-.048-.055-.125-.078-.192-.069-14.592 2.696-29.044-4.402-35.63-18.654-.766-1.68-1.424-3.455-1.951-5.304-4.818-16.596 2.541-36.316 17.849-44.071 1.34-.681 2.351-1.845 2.876-3.296.529-1.446.475-3.003-.134-4.392-1.116-2.566-3.855-3.854-6.483-3.008-.277.089-.559.206-.824.344-9.937 5.083-17.688 14.276-21.842 25.339-4.109 10.95-4.523 22.936-1.403 33.501.706 2.414 1.585 4.739 2.609 6.93 8.93 18.934 28.804 27.838 48.136 23.626.081-.025.143-.089.173-.169.02-.086-.004-.177-.063-.239-.93-.981-1.685-2.123-2.242-3.411zm37.049-52.313c-.564-2.447-1.314-4.874-2.225-7.206-7.898-20.227-29.246-33.942-50.004-29.641l-.011.003-.011.003c-.125.036-.198.169-.165.298.017.065.057.116.11.148.95.965 1.708 2.109 2.258 3.38.945 2.174 1.189 4.562.721 6.914-.001.074.019.153.067.217.054.053.123.078.206.062 15.406-2.612 30.644 7.149 36.638 22.109.71 1.759 1.297 3.595 1.74 5.459 4.005 16.939-4.39 33.675-19.036 40.638-1.288.613-2.26 1.735-2.748 3.163-.479 1.43-.422 2.989.177 4.372 1.095 2.582 3.701 3.92 6.2 3.229.268-.075.535-.169.789-.291 9.451-4.444 17.227-11.956 21.9-21.562 4.619-9.5 5.902-20.497 3.394-31.295z"/><path opacity=".1" d="M222.623 121.891l-20.269-107.259c-.838-4.47-4.17-8.556-8.353-10.709 2.714 2.265 4.728 5.378 5.353 8.709l12.38 65.509c-44.755-15.169-88.113-29.424-88.113-29.424-5.335-1.429-10.818 1.737-12.248 7.071l-11.706 95.771c-18.164 6.942-35.727 15.601-52.368 25.897-2.55 1.574-5.237 1.83-7.557.958 2.738 2.82 6.794 3.364 10.557 1.042 49.217-30.453 106.479-46.631 163.595-46.195 6.03.04 9.937-4.932 8.729-11.37z"/><path id="Shape" fill="#00a0c9" d="M46.446 90.544c-.109-.08-.25-.073-.424.021-.222.119-.367.407-.436.863l-.071.291c-.097.328-.262.636-.497.926-.234.29-.502.518-.805.684-.466.255-.9.286-1.303.091-.402-.194-.691-.578-.868-1.151-.246-.797.19-2.534 1.326-5.194l.413-.975.141-.339c.637-1.463.905-2.367.798-2.716-.073-.242-.19-.387-.349-.437-.159-.049-.367-.004-.624.134-1.607.865-3.207 1.744-4.801 2.638-.115.065-.195.165-.238.299-.043.134-.046.288-.009.462l.133.651.019.089.019.088c.063.204.158.339.286.405.128.067.271.055.43-.034.158-.089.266-.219.323-.392.056-.173.059-.38.007-.621 1.1-.614 2.204-1.221 3.31-1.821l-.602 1.436c-.146.368-.363.884-.65 1.549-1.103 2.646-1.484 4.501-1.16 5.55.258.835.742 1.389 1.453 1.664.71.276 1.463.194 2.26-.242.476-.261.911-.612 1.306-1.054.395-.442.697-.912.904-1.41.061-.151.095-.28.102-.386.007-.107-.019-.257-.078-.45-.102-.334-.207-.54-.315-.619zm72.19-45.23c.289.416.628.75 1.017 1.004.388.253.817.421 1.287.506.47.084.955.071 1.455-.039.5-.11.939-.301 1.318-.572.379-.272.684-.602.914-.991.231-.389.377-.83.439-1.324.062-.493.025-1.017-.11-1.571-.133-.548-.342-1.032-.627-1.453-.285-.421-.624-.765-1.015-1.029-.391-.265-.822-.444-1.292-.536-.47-.092-.956-.083-1.459.027-.502.111-.944.306-1.327.586-.382.279-.687.62-.914 1.021-.228.401-.373.851-.436 1.349-.062.497-.026 1.02.11 1.567.138.553.351 1.038.64 1.455zm.529-3.855c.153-.306.366-.567.64-.783.273-.216.599-.366.977-.449.378-.083.738-.084 1.077-.003.34.081.65.227.93.438.28.21.522.477.724.799.203.322.352.68.448 1.074.095.387.125.765.091 1.134-.033.369-.125.706-.275 1.012-.15.306-.359.567-.628.784-.269.216-.592.366-.969.449-.383.084-.745.086-1.088.004-.342-.082-.654-.228-.934-.44-.28-.211-.521-.475-.724-.792-.202-.317-.351-.669-.447-1.056-.098-.394-.131-.777-.099-1.151s.124-.714.277-1.02zm61.884 5.224c-.563.701-.734 1.579-.515 2.628.205.99.695 1.807 1.466 2.456s1.632.962 2.582.941c.277-.006.561-.043.852-.112.292-.069.603-.172.935-.309l.545 2.669c-1.228.019-2.457.045-3.685.08-.249.007-.43.069-.542.185-.112.117-.147.277-.105.48.044.215.143.373.295.477.152.103.358.151.618.143 1.371-.038 2.742-.067 4.113-.087.276-.004.462-.046.557-.127.095-.081.124-.212.087-.393l-.835-4.101c-.065-.318-.144-.537-.236-.657-.093-.12-.221-.179-.384-.177-.098.001-.357.128-.777.382-.42.255-.874.387-1.363.396-.653.013-1.24-.2-1.763-.642-.523-.443-.856-1.004-.997-1.685-.144-.698-.035-1.274.329-1.728.364-.453.911-.688 1.642-.702.497-.009 1.057.088 1.681.291.624.204.966.307 1.026.306.153-.002.275-.059.367-.173.091-.113.123-.241.094-.384-.073-.357-.444-.658-1.115-.901-.67-.243-1.464-.358-2.382-.34-1.098.02-1.928.383-2.49 1.084zm-1.353-13.283c.278-.167.607-.254.988-.261.388-.007.753.061 1.098.203.344.142.652.341.923.595.272.254.501.553.689.899.188.345.323.718.405 1.117.079.387.093.752.042 1.097-.05.344-.159.648-.328.91-.168.263-.394.471-.676.626-.282.155-.619.236-1.011.243-.348.007-.688-.065-1.021-.215-.332-.15-.606-.343-.82-.579l-.615.619c.164.177.348.331.553.463.206.132.425.243.659.331.234.088.473.153.717.195.243.041.479.06.706.056.512-.01.968-.108 1.367-.294.4-.186.726-.442.98-.768.253-.327.424-.719.512-1.176.087-.458.075-.963-.037-1.516-.111-.547-.302-1.047-.572-1.502-.271-.455-.597-.847-.978-1.174-.382-.327-.809-.579-1.282-.757-.472-.177-.966-.262-1.481-.253-.597.011-1.084.14-1.46.386-.377.247-.659.564-.847.951l.864.521c.138-.311.347-.551.625-.717zm-52.831 8.861c-.221.381-.267.832-.141 1.353.088.36.224.653.409.878.184.226.402.393.653.504.251.11.528.172.83.186.302.013.611-.011.927-.073.704-.137 1.408-.272 2.113-.405l-1.699-7.094-.926.175.758 3.156-.989.191c-.813-.943-1.627-1.885-2.441-2.825l-1.12.226c.879.96 1.757 1.921 2.635 2.885-.453.182-.789.463-1.009.843zm1.468-.103c.177-.077.374-.137.592-.179l1.063-.205.544 2.265-1.127.217c-.198.039-.392.058-.581.056-.188-.001-.36-.032-.514-.092-.154-.061-.289-.155-.405-.282-.115-.127-.199-.298-.25-.511-.052-.214-.055-.401-.009-.56.046-.16.128-.299.246-.417.117-.118.265-.216.441-.292zm48.737 3.906c-1.63.067-3.26.146-4.888.239-.218.012-.371.071-.459.177-.087.105-.11.257-.068.455.047.22.145.366.292.438.148.072.464.094.948.067l1.307-.07c.63 2.975 1.26 5.95 1.891 8.925.035.165.092.294.172.387.08.093.172.137.274.131l.172-.021.167-.046c.757-.261 1.514-.518 2.272-.771.163-.057.28-.137.352-.239.071-.103.093-.22.065-.352-.033-.16-.113-.285-.239-.377-.126-.092-.272-.135-.44-.128l-.092.012-.154.032-1.449.44-1.7-8.058 1.356-.06c.485-.021.785-.073.899-.158.114-.085.148-.237.102-.457-.042-.198-.127-.344-.257-.439-.13-.093-.304-.136-.523-.127zm-5.862-8.189c.277.448.608.825.993 1.133.384.307.813.541 1.287.7.474.16.966.229 1.477.207.511-.022.964-.131 1.359-.327.395-.197.716-.462.965-.796.248-.334.414-.732.496-1.194.082-.463.065-.97-.05-1.524-.114-.547-.307-1.046-.579-1.497-.273-.452-.602-.837-.988-1.157-.386-.32-.816-.564-1.289-.731-.473-.168-.967-.241-1.481-.22-.514.022-.97.134-1.369.338-.399.203-.722.479-.969.825s-.412.753-.495 1.219c-.083.467-.066.974.05 1.521.118.555.316 1.056.593 1.503zm.367-2.675c.047-.353.154-.664.321-.931.168-.268.394-.482.68-.643.286-.161.623-.25 1.009-.266.387-.016.751.043 1.093.178.341.135.65.327.925.576.276.249.51.545.703.888.193.343.33.711.412 1.105.081.387.097.754.048 1.101-.048.348-.154.656-.318.924s-.386.483-.668.645c-.281.162-.614.251-1 .267-.391.017-.759-.043-1.104-.178-.344-.136-.654-.329-.93-.578-.276-.25-.511-.543-.704-.881-.193-.338-.33-.7-.412-1.087-.083-.394-.101-.767-.055-1.12zm-117.897 52.519c-.123-.047-.261-.032-.412.045l-.082.05-.136.097-1.266 1.063-2.372-7.889 1.22-.623c.437-.222.703-.401.797-.538.095-.138.11-.314.045-.53-.058-.194-.15-.315-.278-.362-.127-.048-.289-.022-.486.078-1.469.743-2.932 1.498-4.39 2.265-.195.103-.327.228-.395.377-.068.148-.073.319-.014.512.065.215.168.331.309.347.14.016.427-.09.861-.317l1.172-.611 2.633 8.733c.049.161.114.275.196.342.082.066.169.076.261.028l.153-.093.146-.117c.658-.586 1.317-1.17 1.977-1.752.142-.127.24-.26.294-.399.054-.139.062-.273.023-.402-.047-.157-.132-.258-.256-.304zm108.171-47.144l-1.242-5.672.019-.001c1.583 1.791 3.162 3.588 4.737 5.391l1.219-.088-1.531-7.092-.94.067 1.253 5.79-.019.001c-1.597-1.843-3.198-3.681-4.803-5.511l-1.185.102 1.558 7.095.934-.082zm2.055 6.314c-.131.011-.226.068-.287.171-.06.103-.08.241-.059.413l.074.642.011.087.011.088c.046.209.134.369.263.482.13.112.284.16.463.145.179-.015.308-.089.387-.221.079-.133.104-.318.074-.557 1.241-.102 2.483-.197 3.725-.284l-.793 1.046c-.195.271-.48.648-.856 1.13-1.456 1.932-2.06 3.45-1.824 4.528.188.858.648 1.555 1.378 2.094.731.538 1.544.771 2.44.702.535-.041 1.036-.181 1.503-.418.467-.238.837-.538 1.11-.902.08-.112.129-.214.148-.307.018-.094.006-.239-.036-.437-.073-.341-.164-.57-.271-.685-.107-.116-.258-.167-.453-.154-.249.017-.434.217-.555.6l-.106.233c-.137.256-.345.466-.625.632-.28.166-.59.262-.931.288-.524.04-.99-.108-1.4-.448-.409-.339-.678-.803-.806-1.392-.179-.819.471-2.208 1.961-4.138l.541-.709.187-.248c.831-1.057 1.21-1.76 1.133-2.118-.053-.247-.162-.426-.326-.535-.164-.11-.391-.155-.679-.136-1.803.119-3.603.255-5.402.408zm5.713-6.882l-1.516-7.09-.941.057 1.521 7.091.936-.058zm-33.774 19.941c-.127-.077-.273-.099-.438-.068l-.09.025-.15.054-1.413.66-1.941-8.064 1.334-.256c.477-.091.77-.187.879-.291.11-.104.138-.266.086-.486-.048-.198-.137-.337-.268-.416-.131-.079-.304-.098-.518-.058-1.603.301-3.205.615-4.803.942-.214.044-.362.127-.445.248-.083.121-.1.28-.052.479.053.22.154.356.301.41.148.053.459.031.935-.066l1.283-.257 2.157 8.93c.04.165.101.29.183.375.082.084.173.117.274.097l.168-.046.163-.071c.736-.376 1.474-.748 2.212-1.117.159-.082.272-.181.339-.297.067-.116.084-.24.053-.372-.04-.16-.122-.278-.249-.355zm6.549-17.967l-1.444-6.225-.932.141 1.448 6.225c-.709.109-1.417.221-2.125.335l.204.872c1.724-.278 3.451-.541 5.179-.789l-.201-.872c-.71.101-1.42.206-2.129.313zm-5.572-5.577l-.257 1.854c-1.05.175-2.1.356-3.149.542l-1.089-1.624-1.049.19c1.513 2.191 3.023 4.387 4.529 6.588l.84-.145c.398-2.528.8-5.053 1.208-7.573l-1.033.168zm-.839 6.32l-2.023-3.112c.827-.145 1.654-.288 2.482-.427-.154 1.179-.307 2.359-.459 3.539zm13.446-8.12l-.945.116.696 3.068c-.527 1.447-1.052 2.898-1.575 4.352l1.08-.142c.373-1.15.748-2.298 1.125-3.443.858.993 1.714 1.988 2.57 2.985l1.148-.133c-1.133-1.249-2.268-2.494-3.405-3.736l-.694-3.067zm-5.717 20.684c-.075-.319-.16-.534-.255-.645-.096-.11-.224-.153-.385-.127-.097.015-.349.184-.755.506-.406.323-.85.525-1.333.605-.643.107-1.229-.029-1.76-.41-.531-.381-.877-.912-1.039-1.595-.165-.699-.076-1.31.267-1.83.344-.521.877-.842 1.597-.961.49-.081 1.046-.062 1.669.058.622.12.963.177 1.023.167.151-.023.269-.101.356-.231.087-.131.114-.268.08-.411-.083-.358-.46-.615-1.13-.769-.67-.153-1.457-.157-2.362-.007-1.082.18-1.889.674-2.42 1.478-.531.804-.671 1.734-.421 2.785.235.991.744 1.765 1.526 2.324.782.559 1.641.758 2.578.601.273-.046.553-.126.838-.238.285-.113.589-.264.912-.454l.626 2.676c-1.213.196-2.424.4-3.634.611-.245.043-.422.132-.529.269-.106.136-.136.306-.087.51.051.214.153.364.306.449.154.084.359.104.615.06 1.35-.236 2.702-.462 4.055-.679.273-.044.455-.114.546-.211.091-.098.116-.237.073-.419l-.957-4.112zm13.542-21.533c-1.481.141-2.961.294-4.44.457l.197.882c1.166-.129 2.333-.251 3.501-.366l.524 2.365c-1.052.104-2.104.214-3.155.329l.19.852c1.051-.115 2.102-.225 3.154-.329l.471 2.125c-1.116.11-2.232.227-3.347.35l.196.872c1.425-.157 2.851-.304 4.278-.442l-1.569-7.095zm3.244 24.365c1.013-.106 1.709-.674 2.089-1.709.38-1.035.385-2.399.011-4.094-.374-1.701-.969-3.013-1.784-3.932-.815-.92-1.734-1.329-2.754-1.223-1.02.106-1.722.686-2.102 1.737-.381 1.05-.381 2.422-.001 4.112.38 1.691.98 2.991 1.797 3.903.818.912 1.732 1.313 2.744 1.206zm-1.968-2.148c-.513-.711-.922-1.748-1.228-3.114-.307-1.371-.371-2.451-.193-3.241.179-.789.583-1.217 1.212-1.283.623-.065 1.192.263 1.706.979.513.717.921 1.762 1.224 3.132.302 1.365.363 2.439.183 3.223-.179.783-.579 1.206-1.198 1.271-.626.066-1.194-.256-1.706-.967zm61.888 63.893c-6.806-35.771-13.612-71.541-20.417-107.311-1.216-6.434-7.594-12.05-14.247-12.226-62.804-1.673-125.357 16.403-178.512 51.617-5.631 3.729-8.402 11.99-6.344 18.177 11.402 34.426 22.804 68.852 34.206 103.279 2.062 6.194 7.831 8.398 13.02 5.149 49.105-30.822 106.361-47.351 163.562-47.245 6.04.005 9.948-4.998 8.732-11.44zm-10.004 8.71c-56.83.003-113.674 16.414-162.513 46.943-4.338 2.706-9.166.836-10.876-4.335l-33.569-101.953c-1.707-5.167.625-12.011 5.316-15.096 52.698-34.679 114.571-52.559 176.723-51.099 5.531.129 10.847 4.763 11.872 10.129l20.325 105.826c1.024 5.372-2.233 9.58-7.278 9.585zm-18.956-60.822c-.654-3.232-3.765-5.835-6.946-5.741-6.65.196-13.291.614-19.911 1.25-3.166.303-5.135 3.235-4.405 6.478l3.867 17.228c.73 3.245 3.828 5.57 6.926 5.262 6.487-.647 12.993-1.083 19.508-1.306 3.111-.108 5.105-2.761 4.45-5.995l-3.489-17.176zm.964 14.093c-2.523.051-5.046.128-7.566.243l-1.147-5.473c2.53-.112 5.063-.188 7.596-.236l1.117 5.466zm-1.277-6.248c-2.535.048-5.068.123-7.6.236l-1.147-5.473c2.541-.111 5.085-.184 7.629-.229l1.118 5.466zm-6.229-11.632c2.117-.064 4.191 1.659 4.631 3.815l.321 1.57c-2.546.045-5.091.118-7.634.229l-1.146-5.468c1.276-.055 2.552-.108 3.828-.146zm-22.821 5.56c-.483-2.162.831-4.104 2.938-4.307 1.399-.134 2.798-.257 4.199-.372l1.192 5.479c-2.662.221-5.322.481-7.978.773l-.351-1.573zm.526 2.356c2.654-.292 5.312-.552 7.973-.773l1.193 5.479c-2.651.222-5.299.483-7.943.775l-1.223-5.481zm1.398 6.264c2.643-.292 5.289-.553 7.939-.775l1.192 5.479c-2.639.223-5.275.485-7.908.778l-1.223-5.482zm6.539 12.126c-2.068.206-4.135-1.356-4.619-3.519l-.522-2.343c2.747-.305 5.497-.58 8.251-.81l.406-.034-4.077-18.778c3.437-.273 6.879-.492 10.325-.647l5.257 25.019c-5.016.247-10.024.616-15.021 1.112zm19.535-1.302c-1.254.043-2.508.1-3.761.159l-1.312-6.259c2.519-.114 5.04-.192 7.562-.243l.478 2.335c.439 2.157-.889 3.937-2.967 4.008zm-103.678-16.325c-.109-.092-.256-.104-.44-.036-.236.086-.398.347-.486.783l-.085.275c-.113.306-.297.584-.551.836-.254.251-.542.437-.863.558-.494.186-.946.157-1.357-.087-.411-.244-.698-.657-.859-1.24-.225-.811.295-2.446 1.576-4.886l.466-.895.16-.311c.716-1.341 1.029-2.185.931-2.54-.067-.246-.182-.403-.346-.473-.163-.069-.381-.054-.654.046-1.702.625-3.399 1.265-5.091 1.92-.123.048-.209.134-.259.259-.05.125-.06.275-.028.45l.114.653.017.089.016.089c.057.207.151.352.282.434.13.082.279.09.448.025.168-.065.285-.178.351-.339.065-.161.076-.362.031-.604 1.168-.45 2.339-.892 3.511-1.327l-.68 1.318c-.166.339-.411.813-.734 1.423-1.249 2.431-1.716 4.189-1.419 5.256.236.85.719 1.456 1.448 1.821.729.364 1.514.387 2.36.068.504-.19.969-.473 1.397-.851.427-.378.758-.796.992-1.254.069-.139.109-.26.12-.363.011-.103-.011-.253-.064-.45-.093-.34-.194-.555-.304-.647zm7.608-1.78c-.126-.062-.269-.066-.429-.012l-.086.039-.144.075-1.352.866-2.165-8.008 1.289-.442c.461-.157.743-.296.846-.417.103-.121.125-.291.066-.51-.053-.197-.144-.327-.274-.39-.13-.064-.299-.06-.507.01-1.55.525-3.096 1.063-4.638 1.613-.206.074-.348.178-.424.314-.076.135-.088.301-.034.497.059.219.162.345.307.38.145.035.447-.03.906-.193l1.238-.436 2.405 8.866c.044.164.108.284.19.36.083.076.173.096.27.063l.162-.07.156-.095c.703-.483 1.408-.964 2.114-1.441.152-.105.258-.222.319-.35.061-.128.074-.257.039-.388-.043-.159-.128-.269-.254-.331zm-33.334 9.889c-.092-.314-.186-.516-.283-.606-.097-.09-.22-.1-.369-.03-.089.042-.312.286-.669.732-.357.446-.758.775-1.202.988-.593.284-1.15.299-1.671.043-.522-.256-.882-.718-1.08-1.387-.203-.685-.164-1.346.12-1.981.284-.636.758-1.114 1.422-1.432.451-.216.972-.345 1.562-.387.59-.042.913-.075.968-.1.139-.066.245-.178.317-.338.072-.16.087-.31.046-.45-.103-.352-.473-.519-1.109-.5-.637.02-1.373.228-2.206.628-.997.478-1.714 1.211-2.153 2.192-.438.982-.503 1.989-.196 3.019.289.971.817 1.642 1.585 2.017.768.374 1.582.353 2.446-.062.251-.121.506-.278.765-.472.258-.194.531-.434.82-.718l.772 2.627c-1.119.529-2.235 1.065-3.348 1.608-.226.11-.384.251-.474.421-.09.171-.105.356-.046.556.062.21.168.339.317.387.149.047.341.013.577-.101 1.243-.606 2.489-1.203 3.739-1.791.252-.118.417-.241.495-.366.079-.126.092-.278.039-.457l-1.184-4.04zm15.307-11.74c-.833-.741-1.729-.918-2.684-.528-.954.391-1.575 1.191-1.861 2.396-.286 1.205-.191 2.642.283 4.309.475 1.667 1.129 2.867 1.962 3.6.833.734 1.722.906 2.67.519s1.566-1.172 1.855-2.362c.288-1.189.199-2.621-.27-4.298-.47-1.681-1.122-2.895-1.955-3.636zm1.085 7.47c-.115.87-.463 1.423-1.044 1.66-.585.239-1.143.056-1.675-.55-.532-.605-.989-1.582-1.372-2.929-.383-1.353-.519-2.468-.405-3.344.114-.876.465-1.436 1.054-1.677.584-.238 1.143-.051 1.677.56.534.612.991 1.596 1.371 2.95.379 1.35.51 2.46.394 3.33zm50.914-15.823c-.109-.104-.259-.136-.45-.095-.244.053-.42.285-.526.696l-.096.255c-.126.283-.324.529-.594.739-.269.21-.571.352-.904.427-.514.115-.977.027-1.39-.265-.413-.292-.693-.732-.839-1.32-.202-.819.389-2.339 1.788-4.538l.508-.806.175-.282c.781-1.206 1.131-1.984 1.043-2.342-.06-.247-.173-.416-.338-.505-.165-.09-.389-.104-.672-.044-1.766.379-3.53.773-5.29 1.183-.128.029-.22.102-.275.217-.056.115-.071.259-.044.433l.094.65.013.089.014.088c.052.209.143.362.274.459.131.097.284.126.46.085.175-.041.299-.135.372-.283.073-.147.091-.342.054-.583 1.214-.28 2.431-.553 3.648-.818l-.743 1.189c-.183.307-.451.735-.803 1.284-1.366 2.195-1.907 3.842-1.64 4.918.214.858.688 1.511 1.423 1.963.736.451 1.541.578 2.419.381.523-.118 1.011-.331 1.462-.641.452-.311.805-.672 1.061-1.086.076-.126.121-.238.136-.337.015-.099-.002-.247-.05-.445-.085-.34-.181-.562-.29-.666zm-26.463 4.362c-.084-.318-.174-.527-.271-.627-.097-.101-.223-.127-.379-.079-.094.029-.334.236-.719.622-.385.386-.812.653-1.28.801-.623.197-1.2.136-1.73-.184-.53-.319-.885-.818-1.066-1.496-.185-.695-.119-1.334.198-1.914.318-.58.826-.982 1.524-1.202.475-.149 1.018-.205 1.629-.166.612.039.946.05 1.004.033.146-.045.259-.14.34-.286.08-.146.102-.29.064-.432-.093-.356-.469-.569-1.128-.636-.659-.067-1.427.036-2.304.313-1.048.331-1.818.947-2.308 1.844-.49.897-.594 1.869-.315 2.914.263.985.786 1.709 1.566 2.178.781.468 1.625.557 2.533.269.265-.084.534-.203.809-.358.274-.154.565-.35.874-.588l.702 2.662c-1.176.365-2.35.737-3.522 1.116-.238.077-.407.192-.506.347-.1.154-.122.332-.068.535.057.213.161.353.314.419.152.067.352.059.601-.021 1.308-.423 2.618-.837 3.931-1.242.265-.082.44-.179.526-.291.085-.112.104-.258.057-.439l-1.076-4.092zm15.896-9.285c-.83-.832-1.744-1.124-2.74-.873-.996.252-1.663.947-2 2.08-.338 1.134-.291 2.544.139 4.23.429 1.685 1.06 2.939 1.891 3.764.832.825 1.74 1.111 2.729.86.988-.25 1.651-.931 1.99-2.049.338-1.118.296-2.522-.127-4.215-.425-1.698-1.052-2.964-1.882-3.797zm.853 7.408c-.149.831-.527 1.322-1.132 1.475-.61.155-1.178-.097-1.704-.757s-.962-1.671-1.307-3.033c-.347-1.367-.447-2.47-.299-3.307.149-.837.53-1.334 1.144-1.489.608-.154 1.177.103 1.704.769.528.666.963 1.684 1.306 3.052.342 1.363.438 2.459.288 3.29zm-81.936 25.078c-.823-.645-1.685-.706-2.582-.181-.896.526-1.457 1.424-1.684 2.69-.227 1.267-.082 2.718.434 4.355.515 1.636 1.185 2.772 2.007 3.409.823.638 1.677.695 2.568.175.89-.52 1.451-1.402 1.682-2.653.231-1.25.091-2.699-.42-4.346-.513-1.653-1.181-2.804-2.005-3.449zm1.319 7.472c-.078.903-.389 1.512-.935 1.831-.549.321-1.089.209-1.619-.338-.531-.547-1.004-1.481-1.419-2.804-.418-1.328-.589-2.447-.514-3.355.076-.909.39-1.526.942-1.85.548-.321 1.089-.205 1.622.348.533.552 1.007 1.495 1.421 2.826.412 1.326.579 2.44.502 3.342z"/><path opacity=".1" d="M330.647 121.394l-181.594-48.658c-6.401-1.716-12.981 2.083-14.697 8.485l-28.573 106.638c-1.716 6.402 2.083 12.982 8.485 14.697l181.594 48.658c6.402 1.716 12.982-2.083 14.697-8.485l28.574-106.638c1.715-6.402-2.084-12.982-8.486-14.697z"/><path fill="#fff" d="M328.715 120.876l-181.594-48.658c-5.334-1.43-10.818 1.736-12.247 7.071l-28.574 106.638c-1.429 5.334 1.737 10.818 7.071 12.247l181.594 48.659c5.334 1.429 10.818-1.737 12.247-7.071l28.574-106.639c1.429-5.335-1.737-10.817-7.071-12.247z"/><path fill="#00a0c9" d="M244.092 202.566c1.466-.941 3.117-1.873 4.865-2.78l-14.219-3.836c-2.006 2.069-4.079 4.09-6.11 5.881-3.892 3.435-8.234 6.263-11.831 8.337l12.76 3.442c4.892-4.068 10.287-8.316 14.535-11.044zm26.501-10.678s-15.096 5.95-25.479 12.617c-10.382 6.666-19.826 14.475-19.826 14.475s10.031-4.307 20.968-10.935c10.166-6.161 24.337-16.157 24.337-16.157zm-21.331 29.007s5.573-1.957 11.846-5.582c8.209-4.742 16.885-10.976 16.885-10.976s-9.178 3.518-17.36 8.702c-5.893 3.734-11.371 7.856-11.371 7.856zm11.397-9.877c3.682-2.223 7.138-3.969 10.178-5.328l-12.282-3.314c-3.24 2.288-6.963 4.726-11.15 7.173-3.771 2.204-7.412 4.197-10.794 5.965l12.781 3.448c3.011-2.439 6.848-5.275 11.267-7.944zm68.573-92.074l-181.594-48.658c-6.401-1.716-12.981 2.083-14.697 8.485l-28.573 106.638c-1.715 6.402 2.083 12.982 8.485 14.697l181.594 48.658c6.401 1.716 12.981-2.083 14.697-8.485l28.573-106.638c1.716-6.402-2.083-12.982-8.485-14.697zm5.574 14.745l-22.305 83.241-36.459-9.836c-3.531 2.804-8.098 6.2-12.806 9.069-2.72 1.658-5.541 3.101-8.199 4.322l52.702 14.219-1.093 4.078c-1.43 5.335-6.913 8.501-12.248 7.071l-180.048-48.244c-5.334-1.429-8.5-6.913-7.071-12.247l1.185-4.422 104.682 28.242c2.888-3.327 7.16-7.847 12.207-11.944 1.179-.957 2.382-1.911 3.588-2.852l-115.714-31.219 22.213-82.898c1.429-5.335 6.912-8.501 12.247-7.071l180.048 48.244c5.335 1.429 8.5 6.912 7.071 12.247zm-95.81 55.174s-8.356 5.17-15.421 11.791c-5.09 4.77-9.698 9.842-9.698 9.842s8.531-5.402 14.015-10.135c7.175-6.192 11.104-11.498 11.104-11.498z"/></svg>