<svg xmlns="http://www.w3.org/2000/svg" width="219" height="254"><path id="Shape" fill="#72cae1" opacity=".3" d="M87.618 172.898h-9.671c-.763 0-1.381-.614-1.382-1.376v-62.146c-.001-.762-.618-1.376-1.381-1.376h-15.198c-.763 0-1.381.614-1.382 1.376v62.147c-.001.761-.619 1.376-1.381 1.376h-10.363c-1.149 0-1.792 1.446-1.09 2.353l20.758 26.699c.558.722 1.652.714 2.2-.015l19.981-26.699c.683-.911.049-2.339-1.091-2.339zm-44.419-27.661l-20.751-26.704c-.558-.721-1.651-.713-2.199.016l-19.974 26.703c-.683.91-.049 2.338 1.09 2.338h9.668c.763 0 1.38.615 1.381 1.376v47.157c.001.762.619 1.376 1.381 1.376h15.193c.762 0 1.38-.614 1.381-1.376v-47.157c.001-.761.618-1.376 1.381-1.376h10.358c1.15 0 1.793-1.446 1.091-2.353z"/><path id="Shape" fill="#00a0c9" d="M105.318 177.863l-8.064 10.85 1.051 1.051 10.862-8.054-3.849-3.847zm-5.703 15.178v1.485l13.379 1.981v-5.44l-13.379 1.974zm-7.137-5.691h1.484l1.973-13.353-5.437.001 1.98 13.352zm24.982-17.467c-.312-.922-.686-1.908-1.095-2.934l2.508-1.052c.403 1.01.756 1.988 1.079 2.94l4.939-2.072c1.564 3.843 2.887 7.933 2.94 9.145.059 1.445-.396 2.306-1.996 2.978-.692.291-1.514.618-2.316.863l-1.009-2.425c.678-.194 1.439-.495 1.854-.67.385-.161.524-.346.578-.695.118-.758-.897-3.761-1.733-5.769l-2.569 1.078c.893 3.798.695 7.184-1.683 10.504l-2.531-1.133c2.099-2.641 2.403-5.254 1.721-8.325l-4.077 1.711-.965-2.317 4.355-1.827zm16.329-3.968l-.772-1.854c-1.122.689-2.274 1.354-3.334 1.889l-1.571-1.863c2.835-1.352 6.533-3.757 8.511-5.693l2.011 1.532c-.84.806-1.975 1.681-3.231 2.572l.971 2.332 4.862-2.04.945 2.271-4.908 2.06c.897 2.762.579 5.037-2.18 7.918l-2.637-1.343c2.495-2.299 2.79-3.675 2.232-5.49l-5.462 2.291-.945-2.271 5.508-2.311zm10.713-5.13c.813.566 1.964 1.679 2.623 2.437l-1.592 1.648c-.499-.679-1.826-1.955-2.599-2.466l1.568-1.619zm2.76-1.92c.783.579 1.925 1.714 2.581 2.51l-1.629 1.645c-.49-.701-1.783-2.028-2.538-2.582l1.586-1.573zm5.409-1.381c1.117 4.249.001 8.6-2.948 11.416l-2.254-1.376c2.981-2.521 3.777-5.776 2.731-9.547l2.471-.493zm3.561-6.375l1.601 3.846 1.398 4.095-2.216.93-1.921-3.876-1.601-3.846 2.739-1.149zm3.768 9.052l1.17 2.811-2.739 1.149-1.17-2.811 2.739-1.149z"/><path opacity=".1" d="M71.25 4c-32.999 0-59.75 26.736-59.75 59.715 0 28.24 19.541 51.828 45.846 58.213 1.503.375 2.631 1.502 2.631 3.38 0 3.004 3.006 4.507 6.012 4.882v26.485c0 1.17.477 2.279 1.302 3.084l-1.005 7.362 3.837 2.879h2.254l3.836-2.886-1.004-7.355c.825-.805 1.302-1.915 1.302-3.085v-26.484c3.382-.375 6.012-1.878 6.012-4.882 0-1.878 2.631-3.38 4.51-4.131 25.177-6.76 43.966-29.915 43.966-57.462.001-32.979-26.68-59.715-59.749-59.715z"/><path fill="#fff" d="M126.5 59.75c0-32.723-26.527-59.25-59.25-59.25s-59.25 26.527-59.25 59.25c0 29.576 21.671 54.088 50 58.53v6.22h5v29h.5v10.5h7.5v-10.5h.5v-29h5.5v-6.303c28.083-4.651 49.5-29.046 49.5-58.447z"/><path fill="#00a0c9" d="M67.25 0c-32.999 0-59.75 26.736-59.75 59.715 0 28.24 19.541 51.828 45.846 58.213 1.503.375 2.631 1.502 2.631 3.38 0 3.004 3.006 4.507 6.012 4.882v26.485c0 1.17.477 2.279 1.302 3.084l-1.005 7.362 3.837 2.879h2.254l3.836-2.886-1.004-7.355c.825-.805 1.302-1.915 1.302-3.085v-26.484c3.382-.375 6.012-1.878 6.012-4.882 0-1.878 2.631-3.38 4.51-4.131 25.177-6.76 43.966-29.915 43.966-57.462.001-32.979-26.68-59.715-59.749-59.715zm3.007 152.674c0 .674-.333 1.307-.89 1.693l-.569.393 1.005 7.366-2.178 1.62h-.751l-2.176-1.627 1.004-7.358-.707-.404c-.376-.375-.751-1.126-.751-1.502v-.969c1.991.28 4.022.28 6.012-.001v.789zm0-2.53c-1.991.28-4.022.281-6.013.001v-6.892c1.991.28 4.022.28 6.013-.001v6.892zm0-8.633c-1.991.281-4.022.281-6.013.001v-6.728c1.991.28 4.022.28 6.013-.001v6.728zm0-9.05c-1.991.281-4.022.281-6.013.001v-6.272h6.013v6.271zm12.107-17.295c-3.15.885-6.095 2.762-6.095 5.962 0 2.433-4.885 2.809-9.019 2.809-5.261 0-9.019-.376-9.016-2.838-.003-3.171-.379-4.673-4.243-5.46-30.708-7.1-44.237-34.516-44.237-55.924 0-31.548 25.929-57.461 57.495-57.461s57.495 25.914 57.495 57.461c.001 26.289-17.285 48.824-42.38 55.452zm-15.114-109.663c-29.962 0-54.25 24.289-54.25 54.25s24.289 54.249 54.25 54.249 54.25-24.289 54.25-54.25-24.289-54.249-54.25-54.249zm0 107.756c-29.726 0-53.507-23.781-53.507-53.506 0-29.726 23.781-53.506 53.507-53.506s53.507 23.78 53.507 53.506c0 29.725-23.781 53.505-53.507 53.506zm41.724-53.743l-.096-.049h-2.068c-.048 0-.091.029-.108.075l-1.654 4.506-1.463-4.503c-.015-.048-.061-.078-.111-.078h-2.134l-.097.049-.011.106 2.747 6.976-1.081 2.74.012.106.094.049h1.917l.106-.071 3.958-9.8-.011-.106zm-66.83.072c.036-.191-.013-.389-.138-.539-.124-.15-.308-.237-.502-.237h-1.281c-.295 0-.555.198-.631.483-.292 1.081-1.253 1.836-2.336 1.836-1.086 0-2.047-.755-2.339-1.836-.077-.285-.336-.483-.631-.483h-1.28c-.195 0-.38.087-.503.237s-.175.348-.139.539c.456 2.377 2.514 4.101 4.892 4.101 2.375 0 4.433-1.724 4.888-4.101zm-6.017 11.896c-.091-.561-.004-1.129.249-1.639l-.002-.052-.043-.03c-3.811-.415-6.895-3.353-7.499-7.142-.072-.446-.107-.904-.107-1.363-.011-4.16 3.078-7.792 7.182-8.449.36-.057.676-.252.889-.547.213-.295.299-.656.243-1.015-.107-.667-.672-1.15-1.345-1.15l-.217.017c-2.66.426-5.08 1.797-6.817 3.863-1.718 2.042-2.665 4.628-2.66 7.281 0 .603.049 1.206.142 1.792.811 5.091 5.129 9.068 10.263 9.458h.008l.057-.058-.019-.04c-.163-.287-.273-.598-.324-.926zm59.32-12.269c-1.042 0-2.037.419-2.806 1.181-.758.755-1.16 1.712-1.16 2.77 0 1.078.377 2.02 1.119 2.799.777.814 1.716 1.209 2.874 1.209 1.621 0 2.824-.716 3.574-2.13l-.003-.112-.098-.055h-2.16l-.073.026c-.334.274-.705.401-1.167.401-.994 0-1.63-.443-1.838-1.284l-.018-.071h5.719c.065 0 .116-.05.116-.113v-.072c0-2.762-1.602-4.549-4.079-4.549zm-1.792 3.251l.015-.068c.167-.764.888-1.297 1.838-1.297.932 0 1.598.484 1.879 1.29l.026.075h-3.758zm-55.552-12.458l-.052.027-.001.058c.169.29.281.606.334.938.089.562.003 1.129-.251 1.64l.001.052.043.029c3.812.415 6.896 3.352 7.5 7.143.071.445.107.903.107 1.363.009 4.159-3.079 7.792-7.183 8.448-.361.058-.675.252-.888.547-.214.295-.3.655-.243 1.015.107.666.673 1.15 1.346 1.15l.216-.018c2.659-.425 5.08-1.797 6.817-3.861 1.72-2.044 2.664-4.629 2.658-7.282.001-.604-.045-1.207-.14-1.793-.812-5.09-5.129-9.067-10.264-9.456zm31.804 9.205c-1.05 0-2.057.424-2.832 1.193-.767.761-1.173 1.729-1.173 2.797 0 1.077.392 2.05 1.13 2.812.786.822 1.734 1.221 2.904 1.221 1.141 0 2.122-.401 2.92-1.192.78-.774 1.159-1.713 1.159-2.87 0-1.061-.46-2.101-1.26-2.853-.784-.735-1.742-1.108-2.848-1.108zm.044 6.018c-1.07 0-1.939-.897-1.939-1.998 0-1.11.869-2.014 1.939-2.014 1.068 0 1.938.904 1.938 2.014 0 1.101-.87 1.998-1.938 1.998zm7.889-8.738c-.689 0-1.248.556-1.248 1.24 0 .683.559 1.239 1.248 1.239.688 0 1.248-.557 1.248-1.239 0-.684-.56-1.24-1.248-1.24zm.954 3.231h-1.91c-.064 0-.115.051-.115.114v7.074c0 .062.051.113.115.113h1.91c.065 0 .116-.051.116-.113v-7.074c0-.063-.051-.114-.116-.114zm6.636-.552c-2.011 0-3.647 1.624-3.647 3.62v4.12c0 .062.053.113.115.113h1.777c.063 0 .115-.051.115-.113v-4.12c0-.898.735-1.628 1.64-1.628.903 0 1.64.73 1.64 1.628v4.12c0 .062.05.113.114.113h1.776c.063 0 .114-.051.114-.113v-4.12c0-1.996-1.635-3.62-3.644-3.62zm-27.158-.139c1.032 0 2.002.635 2.47 1.619l.103.065h2.481l.091-.045.019-.099c-.636-2.263-2.743-3.843-5.125-3.843-2.932 0-5.317 2.352-5.317 5.244s2.385 5.245 5.317 5.245c2.367 0 4.47-1.567 5.117-3.812l-.019-.099-.091-.045h-2.487l-.104.064c-.479.98-1.42 1.589-2.455 1.589-1.529 0-2.771-1.32-2.771-2.942.001-1.621 1.242-2.941 2.771-2.941z"/><path fill="#fff" d="M216.001 226.344c0-9.561-7.74-17.34-17.253-17.34h-151.493c-9.514 0-17.253 7.779-17.253 17.34v27.156h185.998v-27.156z"/><path fill="#00a0c9" d="M27.001 226.344v27.156h3v-27.156c0-9.561 7.74-17.34 17.253-17.34h151.493c9.514 0 17.253 7.779 17.253 17.34v27.156h3v-27.156c0-2.457-.434-4.813-1.229-6.993-.34-.935-.748-1.837-1.215-2.702-.468-.864-.996-1.691-1.579-2.474-.389-.522-.802-1.025-1.238-1.507-.436-.481-.895-.942-1.374-1.38-.72-.656-1.486-1.262-2.294-1.81-.539-.365-1.096-.705-1.67-1.019-.861-.469-1.76-.878-2.69-1.22-.31-.114-.624-.221-.941-.32-.952-.297-1.933-.526-2.938-.68-.336-.052-.673-.095-1.014-.13-.681-.069-1.371-.105-2.07-.105h-151.494c-.699 0-1.39.036-2.071.105-.34.035-.678.078-1.013.13-1.006.154-1.987.383-2.939.68-.317.099-.631.205-.941.32-.62.228-1.226.486-1.817.771-.59.286-1.164.599-1.721.939-.557.34-1.096.706-1.616 1.096-.52.391-1.021.806-1.5 1.243-4.076 3.721-6.635 9.089-6.635 15.056zM141.844 235.008c1.562 0 2.653 1.105 2.653 2.687 0 2-1.662 2.299-2.653 2.299h-33.69c-.991 0-2.653-.299-2.653-2.299 0-1.582 1.091-2.687 2.653-2.687h33.69zm0-1h-33.69c-2.017 0-3.653 1.436-3.653 3.687 0 2.25 1.636 3.299 3.653 3.299h33.69c2.017 0 3.653-1.049 3.653-3.299-.001-2.251-1.636-3.687-3.653-3.687zm-55.338.487c1.654 0 3 1.348 3 3.004 0 1.657-1.346 3.005-3 3.005-1.655 0-3.001-1.348-3.001-3.005 0-1.656 1.346-3.004 3.001-3.004zm0-1c-2.21 0-4.001 1.793-4.001 4.004 0 2.212 1.791 4.005 4.001 4.005 2.209 0 4-1.793 4-4.005 0-2.211-1.791-4.004-4-4.004z"/></svg>