<svg xmlns="http://www.w3.org/2000/svg" width="313" height="257"><path id="Shape" fill="#72cae1" d="M275.991 198.5v-6.497l8.009 7.993v-13.496h3.5v27h-3.5v-13.495l-8.009 7.993v-6.498h-9.991v-3h9.991zm-241.997 3v6.497l-7.994-7.992v13.495h-3.5v-27h3.5v13.495l7.994-7.993v6.498h10.006v3h-10.006zm28.006 0h-12v-3h12v3zm18 0h-12v-3h12v3zm18 0h-12v-3h12v3zm18 0h-12v-3h12v3zm18 0h-12v-3h12v3zm18 0h-12v-3h12v3zm18 0h-12v-3h12v3zm18 0h-12v-3h12v3zm18 0h-12v-3h12v3zm18 0h-12v-3h12v3zm18 0h-12v-3h12v3zm18 0h-12v-3h12v3z"/><path fill="#72cae1" d="M39.19 224.658l.57.015c.27 0 .27 0 2.475-.15.84-.045 3.33-.18 7.484-.375 1.23-.06 1.456-.075 1.726-.135l.105 1.905-.315-.015c-.901 0-2.01.3-2.97.81-1.905.99-3.03 2.49-3.03 4.005 0 1.17.735 2.07 1.995 2.445.735.225 1.695.39 2.235.39l.3-.015-.27 2.04-.51-.09c-1.65-.21-2.595-.48-3.51-.99-1.38-.78-2.145-2.055-2.145-3.615 0-1.275.51-2.535 1.425-3.525.57-.615 1.11-1.02 2.085-1.515-1.215.18-1.8.24-5.055.48-1.005.075-1.905.18-2.49.3l-.105-1.965zm10.275 2.205c.6.69.869 1.095 1.335 2.025l-1.14.6c-.45-.885-.81-1.44-1.335-2.055l1.14-.57zm1.859 1.785c-.419-.825-.779-1.38-1.289-1.995l1.095-.54c.569.63.9 1.11 1.319 1.935l-1.125.6zm-14.7 6.645c-.66-.735-1.695-1.5-2.774-2.055-.33-.18-.45-.225-.81-.375v.165c0 .945-.27 1.59-.841 2.025-.569.435-1.379.645-2.474.645-2.19 0-3.45-.855-3.45-2.34 0-1.635 1.485-2.595 4.005-2.595.36 0 .615.015 1.005.06l-.015-.36v-.33c-.015-.21-.015-.21-.031-.81-.719.015-1.184.03-1.499.03-.915 0-1.47-.015-2.715-.105-.195-.015-.345-.015-.57-.015l.03-1.62c.645.15 2.07.255 3.495.255.3 0 .81-.015 1.23-.03 0-.135 0-.645-.015-1.5-.48.015-.72.015-.945.015-.735 0-2.67-.075-3.675-.15l-.33-.015h-.24l.015-1.665c.765.195 2.31.315 4.035.315.24 0 .75-.015 1.125-.03-.015-1.5-.015-1.515-.075-1.89h1.904c-.074.405-.089.6-.104 1.83 2.04-.12 3.344-.285 4.319-.57l.075 1.665c-.33.015-.33.015-1.185.135-1.32.18-1.905.225-3.224.3.015.375.015.555.03 1.485.749-.045.749-.045 2.13-.195.944-.12 1.184-.15 1.859-.33l.045 1.65c-.255.015-.63.06-.975.105-.225.03-.9.105-2.024.21l-1.02.06c.044 1.455.044 1.455.06 1.815 1.319.39 2.489.975 4.109 2.115l.54.345-1.02 1.755zm-6.554-3.045c-1.215 0-1.95.39-1.95 1.035 0 .555.645.9 1.71.9.63 0 1.095-.18 1.305-.48.12-.195.18-.51.18-.96v-.36c-.495-.105-.795-.135-1.245-.135zm-13.665-2.265c-.945.78-1.365 1.41-1.365 2.055 0 .975 1.095 1.395 3.63 1.395 1.785 0 3.749-.27 4.709-.63l.165 2.055c-.255.015-.345.015-.659.06-1.801.255-2.761.33-4.05.33-1.635 0-2.955-.165-3.75-.495-1.29-.495-1.92-1.335-1.92-2.505 0-1.14.585-2.13 1.935-3.255l1.305.99zm-2.28-6.165c1.155.27 2.49.375 4.499.375 1.906 0 2.97-.075 3.96-.285l.061 1.68c-.901.405-2.521 1.41-4.005 2.49l-1.305-1.035c.779-.495 1.515-.945 2.205-1.335-.66.09-1.305.12-2.25.12-.765 0-2.01-.075-2.745-.18-.3-.03-.345-.045-.555-.045l.135-1.785zm-10.725 6.165c-.945.78-1.365 1.41-1.365 2.055 0 .975 1.095 1.395 3.63 1.395 1.784 0 3.749-.27 4.709-.63l.165 2.055c-.255.015-.345.015-.66.06-1.8.255-2.76.33-4.05.33-1.634 0-2.955-.165-3.749-.495-1.29-.495-1.92-1.335-1.92-2.505 0-1.14.585-2.13 1.935-3.255l1.305.99zm-2.28-6.165c1.155.27 2.49.375 4.499.375 1.905 0 2.97-.075 3.96-.285l.06 1.68c-.9.405-2.52 1.41-4.004 2.49l-1.305-1.035c.78-.495 1.514-.945 2.204-1.335-.66.09-1.304.12-2.25.12-.764 0-2.009-.075-2.744-.18-.3-.03-.345-.045-.555-.045l.135-1.785zM304.465 226.801c-.225.825-.48 2.22-.675 3.689l-.075.436.03.029c.87-.84 2.73-1.425 4.545-1.425 2.55 0 4.229 1.261 4.229 3.181 0 1.094-.585 2.204-1.545 2.894-.974.705-2.219 1.02-3.959 1.02-1.29 0-2.115-.105-3.825-.525-.015-.93-.045-1.23-.225-1.935 1.47.511 2.76.75 4.035.75 2.115 0 3.585-.885 3.585-2.159 0-1.005-.946-1.605-2.535-1.605-1.335 0-2.73.404-3.735 1.094-.27.196-.36.285-.675.645l-1.89-.06.12-.9c.12-.929.36-2.594.63-4.364.06-.36.075-.54.09-.87l1.875.105zm.195-2.94c1.035.57 3.9 1.425 5.595 1.665l-.616 1.725c-2.564-.585-4.139-1.08-5.849-1.875l.87-1.515zm-12.63.135c-.045.135-.09.3-.12.465l-.09.51c-.045.315-.045.315-.255 1.44l-.105.555c.435-.03.645-.045.929-.045.991 0 1.725.27 2.221.795.51.57.704 1.29.704 2.654 0 2.58-.434 4.636-1.154 5.46-.421.495-.87.675-1.665.675-.691 0-1.305-.12-2.31-.434l.03-.661c0-.39-.03-.69-.15-1.275.81.36 1.665.585 2.19.585.435 0 .674-.285.9-1.02.239-.779.39-2.145.39-3.42 0-1.379-.345-1.784-1.531-1.784-.299 0-.524.014-.869.045-.45 1.829-.585 2.28-.915 3.255-.525 1.5-.93 2.46-1.801 4.214l-.224.45-.12.255-1.74-.96c.45-.6 1.05-1.68 1.56-2.82.645-1.469.854-2.099 1.455-4.244-.765.089-2.19.344-2.685.48l-.18-1.77c.555 0 2.37-.181 3.195-.3.27-1.62.39-2.535.39-3.03v-.285l1.95.21zm4.964 1.92c1.5 1.755 2.445 3.54 3.09 5.849l-1.71.87c-.284-1.29-.63-2.279-1.199-3.404-.541-1.11-1.02-1.8-1.726-2.565l1.545-.75zm-19.589 5.039c-.945.781-1.365 1.41-1.365 2.055 0 .976 1.095 1.395 3.63 1.395 1.785 0 3.75-.27 4.71-.629l.165 2.054c-.256.015-.346.015-.661.06-1.799.255-2.759.33-4.049.33-1.635 0-2.955-.165-3.75-.495-1.29-.495-1.92-1.335-1.92-2.505 0-1.14.585-2.129 1.935-3.254l1.305.989zm-2.28-6.164c1.155.27 2.49.375 4.5.375 1.905 0 2.97-.075 3.96-.285l.059 1.68c-.9.405-2.519 1.409-4.005 2.49l-1.304-1.035c.779-.495 1.514-.945 2.205-1.335-.66.09-1.305.12-2.25.12-.765 0-2.01-.075-2.745-.18-.3-.03-.345-.045-.555-.045l.135-1.785zm-10.725 6.164c-.945.781-1.365 1.41-1.365 2.055 0 .976 1.095 1.395 3.63 1.395 1.784 0 3.749-.27 4.709-.629l.165 2.054c-.255.015-.345.015-.659.06-1.801.255-2.761.33-4.051.33-1.634 0-2.954-.165-3.749-.495-1.29-.495-1.92-1.335-1.92-2.505 0-1.14.585-2.129 1.935-3.254l1.305.989zm-2.28-6.164c1.155.27 2.49.375 4.499.375 1.905 0 2.971-.075 3.96-.285l.06 1.68c-.9.405-2.52 1.409-4.004 2.49l-1.305-1.035c.78-.495 1.515-.945 2.204-1.335-.659.09-1.305.12-2.25.12-.765 0-2.009-.075-2.744-.18-.3-.03-.345-.045-.555-.045l.135-1.785z"/><path opacity=".1" d="M275 2.5h-235c-8.284 0-15 6.716-15 15v138c0 8.285 6.716 15 15 15h235c8.285 0 15-6.715 15-15v-138c0-8.284-6.715-15-15-15z"/><path fill="#fff" d="M272.5 2.5h-235c-6.904 0-12.5 5.596-12.5 12.5v138c0 6.904 5.596 12.5 12.5 12.5h235c6.904 0 12.5-5.596 12.5-12.5v-138c0-6.904-5.596-12.5-12.5-12.5z"/><path id="Shape" fill="#00a0c9" d="M272.5 0h-235c-8.284 0-15 6.715-15 15v138c0 8.285 6.716 15 15 15h235c8.285 0 15-6.715 15-15v-138c0-8.285-6.715-15-15-15zm11.5 152c0 6.904-5.596 12.5-12.5 12.5h-233c-6.904 0-12.5-5.596-12.5-12.5v-136c0-6.904 5.596-12.5 12.5-12.5h233c6.904 0 12.5 5.596 12.5 12.5v136z"/><path id="Shape" fill="#2996cc" opacity=".05" d="M145.594 136.083c-.461-2.914-.013-5.862 1.297-8.507.054-.087.054-.186 0-.273-.044-.083-.134-.139-.224-.153-19.783-2.154-35.781-17.397-38.926-37.076-.363-2.314-.554-4.687-.554-7.081-.038-21.587 15.979-40.44 37.282-43.847 1.873-.302 3.496-1.313 4.611-2.847 1.119-1.526 1.552-3.399 1.251-5.269-.547-3.452-3.484-5.965-6.97-5.965-.368 0-.751.03-1.12.092-13.795 2.207-26.366 9.328-35.388 20.047-8.912 10.603-13.83 24.023-13.798 37.79 0 3.138.249 6.266.735 9.316 4.207 26.42 26.612 47.062 53.262 49.091.115 0 .217-.054.283-.138.056-.095.056-.212 0-.306-.873-1.505-1.46-3.14-1.741-4.874zm17.991-42.9c.41 1.483 1.741 2.505 3.275 2.505h6.655c1.005 0 1.963-.449 2.61-1.225.638-.78.9-1.807.71-2.807-2.365-12.327-13.038-21.278-25.383-21.278-12.335 0-23 8.951-25.373 21.278-.19 1 .063 2.026.716 2.807.647.776 1.6 1.225 2.615 1.225h6.648c1.524 0 2.873-1.022 3.268-2.505 1.511-5.605 6.499-9.529 12.126-9.529 5.633 0 10.627 3.924 12.133 9.529zm45.552-19.492c-4.222-26.425-26.626-47.069-53.28-49.092h-.029c-.164 0-.296.134-.296.3 0 .082.032.157.087.213.857 1.478 1.425 3.1 1.697 4.804.471 2.916.016 5.853-1.312 8.502-.025.088-.025.188.013.281.05.081.126.135.234.145 19.773 2.153 35.781 17.411 38.919 37.079.368 2.312.558 4.69.558 7.07.034 21.598-15.991 40.452-37.289 43.86-1.868.302-3.498 1.306-4.61 2.838-1.1 1.537-1.553 3.413-1.244 5.271.546 3.461 3.482 5.971 6.968 5.971.374 0 .753-.025 1.125-.087 13.792-2.208 26.357-9.332 35.378-20.051 8.93-10.606 13.827-24.023 13.797-37.801 0-3.125-.243-6.258-.716-9.303z"/><path fill="#00a0c9" d="M255 79h-26c-4.142 0-7.5 3.358-7.5 7.5v22c0 4.142 3.358 7.5 7.5 7.5h26c4.142 0 7.5-3.358 7.5-7.5v-22c0-4.142-3.358-7.5-7.5-7.5zm-31 18.5h10.5v7h-10.5v-7zm0-1v-7h10.5v7h-10.5zm5-15h5.5v7h-10.5v-2c0-2.761 2.239-5 5-5zm20 32h-20c-2.761 0-5-2.239-5-5v-3h11.5v-24h13.5v32zm11-5c0 2.761-2.239 5-5 5h-5v-8h10v3zm0-4h-10v-7h10v7zm0-8h-10v-7h10v7zm0-8h-10v-7h5c2.761 0 5 2.239 5 5v2zm-3.59-46.083c.398-.205.839-.307 1.326-.307.494 0 .942.094 1.343.281.402.188.742.446 1.022.775.279.328.494.714.644 1.158.15.444.225.922.225 1.434 0 .495-.077.962-.231 1.401-.154.44-.372.826-.656 1.159-.284.333-.627.595-1.028.787-.401.192-.853.288-1.356.288-.445 0-.861-.101-1.246-.301-.385-.201-.683-.455-.894-.762l-.949.768c.162.231.357.433.584.608.227.175.478.322.754.442.275.119.563.209.863.269.3.059.596.089.888.089.656 0 1.264-.115 1.824-.345.559-.231 1.044-.553 1.453-.967.409-.414.729-.913.96-1.497.231-.585.347-1.231.347-1.939 0-.7-.114-1.342-.341-1.927-.227-.584-.541-1.088-.942-1.51-.402-.423-.88-.751-1.435-.986-.555-.234-1.162-.352-1.818-.352-.762 0-1.415.152-1.958.455-.543.303-.985.697-1.326 1.184l.961.691c.261-.393.589-.691.986-.896zm-4.487-.096c-.405-.422-.885-.751-1.441-.985-.555-.235-1.161-.352-1.818-.352-.656 0-1.264.117-1.824.352-.559.234-1.041.563-1.447.985-.405.423-.723.926-.954 1.511-.231.584-.347 1.226-.347 1.926 0 .708.116 1.355.347 1.939.231.585.549 1.084.954 1.497.406.414.888.736 1.447.967.56.23 1.168.345 1.824.345.657 0 1.263-.115 1.818-.345.556-.231 1.036-.553 1.441-.967.406-.414.722-.913.949-1.497.227-.584.34-1.231.34-1.939 0-.7-.113-1.342-.34-1.926-.227-.585-.543-1.089-.949-1.511zm-.243 4.838c-.154.439-.371.825-.651 1.158-.279.333-.62.595-1.021.787-.401.192-.849.288-1.344.288-.502 0-.954-.096-1.356-.288-.401-.192-.743-.454-1.027-.787-.284-.333-.503-.719-.657-1.158-.154-.44-.231-.907-.231-1.402 0-.503.077-.977.231-1.421.154-.444.373-.83.657-1.158.284-.329.628-.587 1.033-.775.406-.188.856-.281 1.35-.281.495 0 .941.094 1.338.281.397.188.737.446 1.021.775.284.328.503.714.657 1.158.154.444.231.917.231 1.421 0 .495-.077.962-.231 1.402zm-11.041 3.117h1.204v-9.062h-1.204v9.062zm-2.7 0v-9.062h-1.204v7.398h-.024l-4.548-7.398h-1.52v9.062h1.204v-7.245h.024l4.499 7.245h1.569zm-11.199-4.916h-4.062v1.088h4.062v2.714h-4.317v1.113h5.52v-9.062h-5.703v1.126h4.499v3.021h.001zm-8.852-.23v-3.917h-1.216v3.917l-3.223 5.146h1.399l2.395-4.096 2.384 4.096h1.483l-3.222-5.146zm-10.933-3.917h-1.204v7.949h-2.76v1.114h6.724v-1.114h-2.76v-7.949zm-7.733 9.063l3.733-9.063h-1.338l-.863 2.227h-4.086l-.876-2.227h-1.362l3.697 9.063h1.095zm1.106-5.722l-1.617 4.25-1.605-4.25h3.222zm-12.853 1.6c-.389.41-.583.947-.583 1.613 0 .461.081.851.243 1.171.162.32.383.578.662.775.28.196.606.339.979.429.373.089.766.134 1.18.134h2.76v-9.062h-1.204v4.032h-1.289l-2.189-4.032h-1.459l2.408 4.16c-.616.11-1.119.371-1.508.78zm2.651.154h1.386v2.893h-1.471c-.26 0-.507-.024-.742-.071-.235-.047-.44-.126-.614-.237-.174-.111-.314-.258-.42-.441-.105-.184-.158-.412-.158-.685 0-.273.053-.502.158-.685.106-.184.25-.333.432-.448.182-.115.395-.199.638-.25.244-.051.507-.076.791-.076zm-6.335-3.987c-.406-.423-.886-.751-1.441-.986-.555-.234-1.162-.352-1.818-.352-.657 0-1.265.118-1.824.352-.56.235-1.042.563-1.447.986-.406.422-.724.926-.955 1.51-.231.585-.346 1.227-.346 1.927 0 .708.115 1.354.346 1.939.231.584.55 1.083.955 1.497.405.414.887.736 1.447.967.559.23 1.167.345 1.824.345.656 0 1.263-.115 1.818-.345.555-.231 1.035-.553 1.441-.967.405-.414.721-.913.948-1.497.227-.585.341-1.231.341-1.939 0-.7-.114-1.342-.341-1.927-.227-.585-.543-1.088-.948-1.51zm-.243 4.838c-.154.439-.371.825-.651 1.158-.279.333-.62.595-1.021.787-.401.192-.849.288-1.344.288-.502 0-.954-.096-1.356-.288-.401-.192-.743-.454-1.027-.787-.284-.333-.503-.719-.657-1.158-.154-.44-.231-.907-.231-1.402 0-.503.077-.977.231-1.421.154-.444.373-.83.657-1.158.284-.329.628-.587 1.033-.775.406-.188.856-.281 1.35-.281.494 0 .94.094 1.337.281.398.188.738.446 1.022.775.284.328.502.714.656 1.158.154.444.231.917.231 1.421.001.495-.076.962-.23 1.402zm77.532 11.387c-.798-.32-1.787-.48-2.969-.48-1.413 0-2.573.436-3.48 1.308-.907.872-1.361 1.979-1.361 3.322 0 1.266.41 2.326 1.229 3.18.819.855 1.844 1.282 3.074 1.282.359 0 .735-.041 1.129-.122.394-.081.822-.205 1.286-.374v3.417h-4.777c-.324 0-.573.072-.749.216-.176.144-.264.346-.264.606 0 .274.085.48.253.617.169.137.422.206.76.206h5.336c.359 0 .61-.051.754-.153.144-.102.216-.269.216-.501v-5.253c0-.408-.044-.689-.132-.844-.088-.154-.237-.232-.448-.232-.126 0-.494.158-1.102.475-.608.316-1.228.474-1.861.474-.844 0-1.544-.29-2.099-.87-.556-.58-.833-1.306-.833-2.178 0-.893.293-1.622.88-2.188.587-.566 1.352-.849 2.294-.849.64 0 1.334.135 2.083.406.749.27 1.162.406 1.24.406.197 0 .369-.072.517-.216.147-.144.221-.308.221-.491 0-.456-.399-.844-1.197-1.164zm-11.377-.132h-6.307c-.281 0-.492.063-.633.19-.14.126-.211.316-.211.569 0 .281.085.473.253.575.169.102.566.153 1.192.153h1.688v11.412c0 .211.038.378.116.501.077.123.183.184.316.184l.227-.016.226-.047 3.133-.844c.225-.064.397-.158.517-.285.119-.127.179-.274.179-.443 0-.204-.068-.368-.205-.491-.137-.123-.315-.184-.533-.184l-.121.01-.206.032-1.983.474v-10.304h1.751c.626 0 1.023-.051 1.192-.153.169-.102.253-.294.253-.575 0-.253-.07-.443-.211-.57-.14-.125-.351-.188-.633-.188zm-12.141 4.64l.886-.844.306-.295c1.35-1.259 2.025-2.117 2.025-2.574 0-.316-.09-.55-.269-.701-.18-.152-.455-.227-.828-.227h-6.982c-.169 0-.306.061-.412.184-.105.123-.168.294-.19.512l-.084.812-.011.111-.01.11c0 .267.067.478.2.633.134.155.317.232.549.232.232 0 .416-.079.553-.237.137-.158.22-.389.248-.691h4.82l-1.297 1.244c-.323.324-.791.77-1.403 1.34-2.39 2.285-3.586 4.117-3.586 5.495 0 1.097.392 2.021 1.176 2.774.784.752 1.76 1.128 2.927 1.128.696 0 1.377-.128 2.041-.385.665-.257 1.222-.603 1.672-1.039.133-.133.225-.258.274-.374.049-.116.074-.301.074-.554 0-.436-.053-.732-.158-.886-.106-.154-.285-.232-.538-.232-.324 0-.615.236-.876.707l-.2.285c-.246.309-.571.555-.976.738-.404.183-.828.274-1.271.274-.682 0-1.237-.234-1.666-.701-.429-.468-.644-1.078-.644-1.831.001-1.046 1.217-2.716 3.65-5.008zm-12.353-4.988c-1.322 0-2.373.627-3.153 1.882-.781 1.255-1.171 2.962-1.171 5.121 0 2.158.391 3.863 1.171 5.114.78 1.252 1.831 1.878 3.153 1.878s2.372-.624 3.149-1.872c.777-1.248 1.165-2.955 1.165-5.121 0-2.172-.388-3.882-1.165-5.131-.777-1.248-1.827-1.872-3.149-1.872zm1.888 11.053c-.45.956-1.079 1.434-1.888 1.434-.815 0-1.448-.478-1.898-1.434-.45-.957-.675-2.307-.675-4.05 0-1.751.225-3.106.675-4.066.45-.96 1.083-1.44 1.898-1.44.809 0 1.438.48 1.888 1.44.45.96.675 2.315.675 4.066 0 1.744-.225 3.094-.675 4.05zm-22.817-10.573c-.798-.32-1.787-.48-2.969-.48-1.413 0-2.573.436-3.48 1.308-.907.872-1.361 1.979-1.361 3.322 0 1.266.41 2.326 1.229 3.18.819.855 1.844 1.282 3.074 1.282.359 0 .735-.041 1.129-.122.394-.081.822-.205 1.286-.374v3.417h-4.777c-.324 0-.573.072-.749.216-.176.144-.264.346-.264.606 0 .274.085.48.253.617.169.137.422.206.76.206h5.336c.359 0 .61-.051.754-.153.144-.102.216-.269.216-.501v-5.253c0-.408-.044-.689-.132-.844-.088-.154-.237-.232-.448-.232-.126 0-.494.158-1.102.475-.608.316-1.229.474-1.861.474-.844 0-1.544-.29-2.099-.87-.556-.58-.833-1.306-.833-2.178 0-.893.293-1.622.88-2.188.587-.566 1.352-.849 2.294-.849.64 0 1.334.135 2.083.406.749.27 1.162.406 1.24.406.197 0 .369-.072.517-.216.147-.144.221-.308.221-.491 0-.456-.399-.844-1.197-1.164zm-11.377-.132h-6.307c-.281 0-.492.063-.633.19-.14.126-.211.316-.211.569 0 .281.085.473.253.575.169.102.566.153 1.192.153h1.688v11.412c0 .211.038.378.116.501.077.123.183.184.316.184l.227-.016.226-.047 3.133-.844c.225-.064.397-.158.517-.285.119-.127.179-.274.179-.443 0-.204-.068-.368-.205-.491-.137-.123-.315-.184-.533-.184l-.121.01-.206.032-1.983.474v-10.304h1.751c.626 0 1.023-.051 1.192-.153.169-.102.253-.294.253-.575 0-.253-.07-.443-.211-.57-.14-.125-.351-.188-.633-.188zm-12.141 4.64l.886-.844.306-.295c1.35-1.259 2.025-2.117 2.025-2.574 0-.316-.09-.55-.269-.701-.18-.152-.455-.227-.828-.227h-6.982c-.169 0-.306.061-.412.184-.105.123-.169.294-.19.512l-.084.812-.011.111-.01.11c0 .267.067.478.2.633.134.155.317.232.549.232.232 0 .416-.079.553-.237.137-.158.22-.389.248-.691h4.82l-1.297 1.244c-.323.324-.791.77-1.403 1.34-2.39 2.285-3.586 4.117-3.586 5.495 0 1.097.392 2.021 1.176 2.774.784.752 1.76 1.128 2.927 1.128.696 0 1.377-.128 2.041-.385.665-.257 1.222-.603 1.672-1.039.133-.133.225-.258.274-.374.049-.116.074-.301.074-.554 0-.436-.053-.731-.158-.886-.106-.154-.285-.232-.538-.232-.324 0-.615.236-.876.707l-.2.285c-.246.309-.571.555-.976.738-.404.183-.828.274-1.271.274-.682 0-1.237-.234-1.666-.701-.429-.468-.644-1.078-.644-1.83.001-1.047 1.217-2.716 3.65-5.009zm-12.353-4.988c-1.322 0-2.373.627-3.153 1.882-.781 1.255-1.171 2.962-1.171 5.121 0 2.158.39 3.863 1.171 5.115.78 1.251 1.831 1.877 3.153 1.877s2.372-.624 3.149-1.872c.777-1.248 1.165-2.955 1.165-5.12 0-2.173-.388-3.883-1.165-5.131-.777-1.248-1.827-1.872-3.149-1.872zm1.888 11.053c-.45.956-1.079 1.434-1.888 1.434-.815 0-1.448-.478-1.898-1.434-.45-.957-.675-2.307-.675-4.05 0-1.751.225-3.106.675-4.066.45-.96 1.083-1.44 1.898-1.44.809 0 1.438.48 1.888 1.44.45.96.675 2.315.675 4.066 0 1.744-.225 3.094-.675 4.05zm-22.017-10.573c-.798-.32-1.787-.48-2.969-.48-1.413 0-2.573.436-3.48 1.308-.907.872-1.361 1.979-1.361 3.322 0 1.266.41 2.326 1.229 3.18.819.855 1.844 1.282 3.074 1.282.359 0 .735-.041 1.129-.122.394-.081.822-.205 1.286-.374v3.417h-4.777c-.324 0-.573.072-.749.216-.176.144-.264.346-.264.606 0 .274.085.48.253.617.169.137.422.206.76.206h5.336c.359 0 .61-.051.754-.153.144-.102.216-.269.216-.501v-5.253c0-.408-.044-.689-.132-.844-.088-.154-.237-.232-.448-.232-.126 0-.494.158-1.102.475-.608.316-1.229.474-1.861.474-.844 0-1.544-.29-2.099-.87-.556-.58-.833-1.306-.833-2.178 0-.893.293-1.622.88-2.188.587-.566 1.352-.849 2.294-.849.64 0 1.334.135 2.083.406.749.27 1.162.406 1.24.406.197 0 .369-.072.517-.216.147-.144.221-.308.221-.491 0-.456-.399-.844-1.197-1.164zm-11.377-.132h-6.307c-.281 0-.492.063-.633.19-.14.126-.211.316-.211.569 0 .281.085.473.253.575.169.102.566.153 1.192.153h1.688v11.412c0 .211.038.378.116.501.077.123.183.184.316.184l.227-.016.226-.047 3.133-.844c.225-.064.397-.158.517-.285.119-.127.179-.274.179-.443 0-.204-.068-.368-.205-.491-.137-.123-.315-.184-.533-.184l-.121.01-.206.032-1.983.474v-10.304h1.751c.626 0 1.023-.051 1.192-.153.169-.102.253-.294.253-.575 0-.253-.07-.443-.211-.57-.14-.125-.351-.188-.633-.188zm-12.141 4.64l.886-.844.306-.295c1.35-1.259 2.025-2.117 2.025-2.574 0-.316-.09-.55-.269-.701-.18-.152-.455-.227-.828-.227h-6.982c-.169 0-.306.061-.412.184-.105.123-.169.294-.19.512l-.084.812-.011.111-.01.11c0 .267.067.478.2.633.134.155.317.232.549.232.232 0 .416-.079.553-.237.137-.158.22-.389.248-.691h4.82l-1.297 1.244c-.323.324-.791.77-1.403 1.34-2.39 2.285-3.586 4.117-3.586 5.495 0 1.097.392 2.021 1.176 2.774.784.752 1.76 1.128 2.927 1.128.696 0 1.377-.128 2.041-.385.665-.257 1.222-.603 1.672-1.039.133-.133.225-.258.274-.374.049-.116.074-.301.074-.554 0-.436-.053-.731-.158-.886-.106-.154-.285-.232-.538-.232-.324 0-.615.236-.876.707l-.2.285c-.246.309-.571.555-.976.738-.404.183-.828.274-1.271.274-.682 0-1.237-.234-1.666-.701-.429-.468-.644-1.078-.644-1.83.001-1.047 1.217-2.716 3.65-5.009zm-12.353-4.988c-1.322 0-2.373.627-3.153 1.882-.781 1.255-1.171 2.962-1.171 5.121 0 2.158.39 3.863 1.171 5.115.78 1.251 1.831 1.877 3.153 1.877s2.372-.624 3.149-1.872c.777-1.248 1.165-2.955 1.165-5.12 0-2.173-.388-3.883-1.165-5.131-.777-1.248-1.827-1.872-3.149-1.872zm1.888 11.053c-.45.956-1.079 1.434-1.888 1.434-.815 0-1.448-.478-1.898-1.434-.45-.957-.675-2.307-.675-4.05 0-1.751.225-3.106.675-4.066.45-.96 1.083-1.44 1.898-1.44.809 0 1.438.48 1.888 1.44.45.96.675 2.315.675 4.066 0 1.744-.225 3.094-.675 4.05zm-22.417-10.573c-.798-.32-1.787-.48-2.969-.48-1.413 0-2.573.436-3.48 1.308-.907.872-1.361 1.979-1.361 3.322 0 1.266.41 2.326 1.229 3.18.819.855 1.844 1.282 3.074 1.282.359 0 .735-.041 1.129-.122.394-.081.822-.205 1.286-.374v3.417h-4.778c-.323 0-.573.072-.749.216-.175.144-.263.346-.263.606 0 .274.084.48.253.617.168.137.422.206.759.206h5.337c.358 0 .61-.051.754-.153.144-.102.216-.269.216-.501v-5.253c0-.408-.044-.689-.132-.844-.088-.154-.238-.232-.448-.232-.127 0-.494.158-1.102.475-.608.316-1.229.474-1.862.474-.844 0-1.543-.29-2.099-.87-.555-.58-.833-1.306-.833-2.178 0-.893.293-1.622.88-2.188.587-.566 1.352-.849 2.294-.849.64 0 1.334.135 2.083.406.749.27 1.162.406 1.24.406.197 0 .369-.072.517-.216.147-.144.221-.308.221-.491.001-.456-.398-.844-1.196-1.164zm-11.377-.132h-6.307c-.281 0-.492.063-.633.19-.14.126-.211.316-.211.569 0 .281.085.473.253.575.169.102.566.153 1.192.153h1.688v11.412c0 .211.039.378.116.501.077.123.183.184.316.184l.227-.016.226-.047 3.133-.844c.225-.064.397-.158.517-.285.119-.127.179-.274.179-.443 0-.204-.068-.368-.205-.491-.137-.123-.315-.184-.533-.184l-.121.01-.206.032-1.983.474v-10.304h1.751c.626 0 1.023-.051 1.192-.153.169-.102.253-.294.253-.575 0-.253-.07-.443-.211-.57-.14-.125-.351-.188-.633-.188zm-12.141 4.64l.886-.844.306-.295c1.35-1.259 2.025-2.117 2.025-2.574 0-.316-.09-.55-.269-.701-.18-.152-.455-.227-.828-.227h-6.982c-.169 0-.306.061-.412.184-.105.123-.169.294-.19.512l-.084.812-.011.111-.01.11c0 .267.067.478.2.633.134.155.317.232.549.232.232 0 .416-.079.553-.237.137-.159.22-.389.248-.691h4.82l-1.297 1.244c-.323.324-.791.77-1.402 1.34-2.391 2.285-3.586 4.117-3.586 5.495 0 1.097.392 2.021 1.176 2.774.784.752 1.759 1.128 2.927 1.128.696 0 1.376-.128 2.041-.385.664-.257 1.221-.603 1.671-1.039.134-.133.225-.258.274-.374.05-.116.074-.301.074-.554 0-.436-.052-.731-.158-.886-.105-.154-.285-.232-.538-.232-.323 0-.615.236-.875.707l-.201.285c-.246.309-.571.555-.975.738-.404.183-.828.274-1.271.274-.682 0-1.238-.234-1.667-.701-.429-.468-.643-1.078-.643-1.83 0-1.047 1.216-2.716 3.649-5.009zm-12.353-4.988c-1.322 0-2.373.627-3.153 1.882-.781 1.255-1.171 2.962-1.171 5.121 0 2.158.391 3.863 1.171 5.115.78 1.251 1.831 1.877 3.153 1.877s2.372-.624 3.149-1.872c.777-1.248 1.165-2.955 1.165-5.12 0-2.173-.388-3.883-1.165-5.131-.777-1.248-1.827-1.872-3.149-1.872zm1.888 11.053c-.45.956-1.079 1.434-1.888 1.434-.815 0-1.448-.478-1.898-1.434-.45-.957-.675-2.307-.675-4.05 0-1.751.225-3.106.675-4.066.45-.96 1.083-1.44 1.898-1.44.809 0 1.438.48 1.888 1.44.45.96.675 2.315.675 4.066 0 1.744-.225 3.094-.675 4.05z"/><path opacity=".1" d="M159.25 90.5c-32.999 0-59.75 26.736-59.75 59.715 0 28.24 19.541 51.828 45.846 58.213 1.503.375 2.631 1.502 2.631 3.38 0 3.004 3.006 4.507 6.012 4.882v26.485c0 1.17.477 2.279 1.302 3.084l-1.005 7.362 3.837 2.879h2.254l3.836-2.886-1.004-7.355c.825-.805 1.302-1.915 1.302-3.085v-26.484c3.382-.375 6.012-1.878 6.012-4.882 0-1.878 2.631-3.38 4.51-4.131 25.177-6.76 43.966-29.915 43.966-57.462.001-32.979-26.68-59.715-59.749-59.715z"/><path fill="#fff" d="M214.5 146.25c0-32.723-26.527-59.25-59.25-59.25s-59.25 26.527-59.25 59.25c0 29.576 21.671 54.088 50 58.53v6.22h5v29h.5v10.5h7.5v-10.5h.5v-29h5.5v-6.303c28.083-4.651 49.5-29.046 49.5-58.447z"/><path fill="#00a0c9" d="M155.25 86.5c-32.999 0-59.75 26.736-59.75 59.715 0 28.24 19.541 51.828 45.846 58.213 1.503.375 2.631 1.502 2.631 3.38 0 3.004 3.006 4.507 6.012 4.882v26.485c0 1.17.477 2.279 1.302 3.084l-1.005 7.362 3.837 2.879h2.254l3.836-2.886-1.004-7.355c.825-.805 1.302-1.915 1.302-3.085v-26.484c3.382-.375 6.012-1.878 6.012-4.882 0-1.878 2.631-3.38 4.51-4.131 25.177-6.76 43.966-29.915 43.966-57.462.001-32.979-26.68-59.715-59.749-59.715zm3.007 152.674c0 .674-.333 1.307-.89 1.693l-.569.393 1.005 7.366-2.178 1.62h-.751l-2.176-1.627 1.004-7.358-.707-.404c-.376-.375-.751-1.126-.751-1.502v-.969c1.991.28 4.022.28 6.012-.001v.789zm0-2.53c-1.991.28-4.022.281-6.013.001v-6.892c1.991.28 4.022.28 6.013-.001v6.892zm0-8.633c-1.991.281-4.022.281-6.013.001v-6.728c1.991.28 4.022.28 6.013-.001v6.728zm0-9.05c-1.991.281-4.022.281-6.013.001v-6.272h6.013v6.271zm12.107-17.295c-3.15.885-6.095 2.762-6.095 5.962 0 2.433-4.885 2.809-9.019 2.809-5.261 0-9.019-.376-9.016-2.838-.003-3.171-.379-4.673-4.243-5.46-30.708-7.1-44.237-34.516-44.237-55.924 0-31.548 25.929-57.461 57.495-57.461s57.495 25.914 57.495 57.461c.001 26.289-17.285 48.824-42.38 55.452zm-15.114-109.663c-29.962 0-54.25 24.289-54.25 54.25s24.289 54.249 54.25 54.249 54.25-24.289 54.25-54.25-24.289-54.249-54.25-54.249zm0 107.756c-29.726 0-53.507-23.781-53.507-53.506 0-29.726 23.781-53.506 53.507-53.506s53.507 23.78 53.507 53.506c0 29.725-23.781 53.505-53.507 53.506zm41.724-53.743l-.096-.049h-2.068c-.048 0-.091.029-.108.075l-1.654 4.506-1.463-4.503c-.015-.048-.061-.078-.111-.078h-2.134l-.097.049-.011.106 2.747 6.976-1.081 2.74.012.106.094.049h1.917l.106-.071 3.958-9.8-.011-.106zm-66.83.072c.036-.191-.013-.389-.138-.539-.124-.15-.308-.237-.502-.237h-1.281c-.295 0-.555.198-.631.483-.292 1.081-1.253 1.836-2.336 1.836-1.086 0-2.047-.755-2.339-1.836-.077-.285-.336-.483-.631-.483h-1.28c-.195 0-.38.087-.503.237s-.175.348-.139.539c.456 2.377 2.514 4.101 4.892 4.101 2.375 0 4.433-1.724 4.888-4.101zm-6.017 11.896c-.091-.561-.004-1.129.249-1.639l-.002-.052-.043-.03c-3.811-.415-6.895-3.353-7.499-7.142-.072-.446-.107-.904-.107-1.363-.011-4.16 3.078-7.792 7.182-8.449.36-.057.676-.252.889-.547.213-.295.299-.656.243-1.015-.107-.667-.672-1.15-1.345-1.15l-.217.017c-2.66.426-5.08 1.797-6.817 3.863-1.718 2.042-2.665 4.628-2.66 7.281 0 .603.049 1.206.142 1.792.811 5.091 5.129 9.068 10.263 9.458h.008l.057-.058-.019-.04c-.163-.287-.273-.598-.324-.926zm59.32-12.269c-1.042 0-2.037.419-2.806 1.181-.758.755-1.16 1.712-1.16 2.77 0 1.078.377 2.02 1.119 2.799.777.814 1.716 1.209 2.874 1.209 1.621 0 2.824-.716 3.574-2.13l-.003-.112-.098-.055h-2.16l-.073.026c-.334.274-.705.401-1.167.401-.994 0-1.63-.443-1.838-1.284l-.018-.071h5.719c.065 0 .116-.05.116-.113v-.072c0-2.762-1.602-4.549-4.079-4.549zm-1.792 3.251l.015-.068c.167-.764.888-1.297 1.838-1.297.932 0 1.598.484 1.879 1.29l.026.075h-3.758zm-55.552-12.458l-.052.027-.001.058c.169.29.281.606.334.938.089.562.003 1.129-.251 1.64l.001.052.043.029c3.812.415 6.896 3.352 7.5 7.143.071.445.107.903.107 1.363.009 4.159-3.079 7.792-7.183 8.448-.361.058-.675.252-.888.547-.214.295-.3.655-.243 1.015.107.666.673 1.15 1.346 1.15l.216-.018c2.659-.425 5.08-1.797 6.817-3.861 1.72-2.044 2.664-4.629 2.658-7.282.001-.604-.045-1.207-.14-1.793-.812-5.09-5.129-9.067-10.264-9.456zm31.804 9.205c-1.05 0-2.057.424-2.832 1.193-.767.761-1.173 1.729-1.173 2.797 0 1.077.392 2.05 1.13 2.812.786.822 1.734 1.221 2.904 1.221 1.141 0 2.122-.401 2.92-1.192.78-.774 1.159-1.713 1.159-2.87 0-1.061-.46-2.101-1.26-2.853-.784-.735-1.742-1.108-2.848-1.108zm.044 6.018c-1.07 0-1.939-.897-1.939-1.998 0-1.11.869-2.014 1.939-2.014 1.068 0 1.938.904 1.938 2.014 0 1.101-.87 1.998-1.938 1.998zm7.889-8.738c-.689 0-1.248.556-1.248 1.24 0 .683.559 1.239 1.248 1.239.688 0 1.248-.557 1.248-1.239 0-.684-.56-1.24-1.248-1.24zm.954 3.231h-1.91c-.064 0-.115.051-.115.114v7.074c0 .062.051.113.115.113h1.91c.065 0 .116-.051.116-.113v-7.074c0-.063-.051-.114-.116-.114zm6.636-.552c-2.011 0-3.647 1.624-3.647 3.62v4.12c0 .062.053.113.115.113h1.777c.063 0 .115-.051.115-.113v-4.12c0-.898.735-1.628 1.64-1.628.903 0 1.64.73 1.64 1.628v4.12c0 .062.05.113.114.113h1.776c.063 0 .114-.051.114-.113v-4.12c0-1.996-1.635-3.62-3.644-3.62zm-27.158-.139c1.032 0 2.002.635 2.47 1.619l.103.065h2.481l.091-.045.019-.099c-.636-2.263-2.743-3.843-5.125-3.843-2.932 0-5.317 2.352-5.317 5.244s2.385 5.245 5.317 5.245c2.367 0 4.47-1.567 5.117-3.812l-.019-.099-.091-.045h-2.487l-.104.064c-.479.98-1.42 1.589-2.455 1.589-1.529 0-2.771-1.32-2.771-2.942.001-1.621 1.242-2.941 2.771-2.941z"/></svg>