<svg xmlns="http://www.w3.org/2000/svg" viewBox="0 0 37 23" enable-background="new 0 0 37 23"><g><path d="M35.28 23h-33.56c-.95 0-1.72-.77-1.72-1.72v-19.56c0-.95.77-1.72 1.72-1.72h33.56c.95 0 1.72.77 1.72 1.72v19.56c0 .95-.77 1.72-1.72 1.72z" fill="#fff"/><path d="M35.28 0h-33.56c-.95 0-1.72.77-1.72 1.72v19.56c0 .95.77 1.72 1.72 1.72h33.56c.95 0 1.72-.77 1.72-1.72v-19.56c0-.95-.77-1.72-1.72-1.72zm.72 21.28c0 .397-.323.72-.72.72h-33.56c-.397 0-.72-.323-.72-.72v-12.447h35v12.447zm-35-16.447v-3.113c0-.397.323-.72.72-.72h33.56c.397 0 .72.323.72.72v3.113h-35zM12.335 17.167h-8.461c-.149 0-.27-.121-.27-.27v-1.627c0-.149.121-.27.27-.27h8.461c.149 0 .27.121.27.27v1.627c-.001.149-.121.27-.27.27zM20.011 17.167h-5.513c-.149 0-.27-.121-.27-.27v-1.627c0-.149.121-.27.27-.27h5.513c.149 0 .27.121.27.27v1.627c0 .149-.121.27-.27.27z" fill="#595757"/></g></svg>
