<svg width="344" height="247" viewBox="0 0 344 247" xmlns="http://www.w3.org/2000/svg" xmlns:sketch="http://www.bohemiancoding.com/sketch/ns"><title>no-users</title><desc>Created with Sketch.</desc><path d="M57.5 80.2c15.8 0 28.6-12.9 28.6-28.8s-12.8-28.8-28.6-28.8-28.6 12.9-28.6 28.8c0 16 12.8 28.8 28.6 28.8zm229 0c15.8 0 28.6-12.9 28.6-28.8s-12.8-28.8-28.6-28.8-28.6 12.9-28.6 28.8c0 16 12.8 28.8 28.6 28.8zm-175 43.2c-5.2-12.1-18.8-25.2-50.6-25.2h-7.2c-44.9 0-53.2 26.3-53.2 38.7 0 26.4 13.3 33.3 53.2 33.3h7.2c1.9 0 3.8 0 5.6-.1 4.5-16.3 17.1-35.6 45-46.7zm178.4-25.1h-7.2c-31.4 0-44.9 12.9-50.2 24.9 28.6 11 41.4 30.6 45.9 47.1h11.5c37.7 0 53.5-6.9 53.5-33.3 0-12.4-8.3-38.7-53.5-38.7zm-111.7 28.1h-12c-74.8 0-88.6 43.9-88.6 64.5 0 44 22.2 55.6 88.6 55.6h11.9c62.8 0 89.2-11.4 89.2-55.6.1-20.6-13.8-64.5-89.1-64.5zm-5.7-30c26.3 0 47.6-21.5 47.6-48s-21.3-48-47.6-48-47.6 21.5-47.6 48 21.3 48 47.6 48z" sketch:type="MSShapeGroup"/></svg>