<svg xmlns="http://www.w3.org/2000/svg" width="33" height="20"><path fill="#2e5e9e" d="M31 0h-29c-1.105 0-2 .896-2 2v16c0 1.105.896 2 2 2h29c1.105 0 2-.896 2-2v-16c0-1.105-.896-2-2-2z"/><path fill="#fff" d="M14.028 5.997l-1.703 8.01h2.132l1.704-8.01h-2.133zm13.38.002h-1.597c-.517 0-.904.142-1.131.664l-3.084 7.345h2.196l.455-1.204 2.641.003.263 1.201h1.922l-1.665-8.009zm-2.591 5.167c.178-.462.998-2.711 1.105-3.006 0 0 .408 1.947.636 3.006h-1.741zm-13.822-5.16l-2.124 5.465-.961-4.8c-.129-.497-.549-.656-1.01-.674h-3.424l-.027.24c.771.188 1.239.367 1.56.46.255.074.826.291.977.853.106.397 1.637 6.457 1.637 6.457l2.234-.002 3.353-8h-2.215zm9.059 3.24c-.758-.37-1.222-.679-1.217-1.054 0-.333.361-.657 1.21-.657l.072-.001c.672 0 1.06.13 1.447.287l.195.092.388-1.713c-.43-.162-1.134-.368-1.975-.368-2.143 0-3.475 1.075-3.488 2.63-.012 1.15 1.036 1.854 1.858 2.237.844.392 1.034.611 1.03.961-.005.536-.611.76-1.234.76-.868 0-1.162-.079-1.875-.378l-.279-.127-.367 1.749c.506.224 1.339.459 2.311.469 2.28 0 3.624-1.041 3.641-2.702.008-.911-.466-1.614-1.717-2.185z"/></svg>