<svg xmlns="http://www.w3.org/2000/svg" viewBox="0 0 37 23" enable-background="new 0 0 37 23"><path d="M35.342 23h-33.684c-.916 0-1.658-.742-1.658-1.658v-19.684c0-.916.742-1.658 1.658-1.658h33.684c.916 0 1.658.742 1.658 1.658v19.684c0 .916-.742 1.658-1.658 1.658z" fill="#FDFEFE"/><path d="M35.5.5c.551 0 1 .449 1 1v20c0 .551-.449 1-1 1h-34c-.551 0-1-.449-1-1v-20c0-.551.449-1 1-1h34m0-.5h-34c-.828 0-1.5.672-1.5 1.5v20c0 .828.672 1.5 1.5 1.5h34c.828 0 1.5-.672 1.5-1.5v-20c0-.828-.672-1.5-1.5-1.5z" fill="#C9CACA"/><path d="M14.679 6.878l-3.885 9.269h-2.535l-1.912-7.398c-.116-.455-.217-.623-.57-.814-.576-.313-1.527-.606-2.365-.789l.056-.269h4.08c.52 0 .988.346 1.106.945l1.01 5.364 2.496-6.309h2.519zm9.932 6.242c.011-2.446-3.383-2.581-3.359-3.674.008-.332.324-.686 1.017-.776.343-.045 1.291-.079 2.364.415l.421-1.965c-.577-.21-1.32-.411-2.244-.411-2.37 0-4.038 1.26-4.052 3.064-.016 1.335 1.191 2.079 2.1 2.523.934.454 1.247.746 1.244 1.152-.007.622-.745.897-1.435.907-1.205.019-1.905-.326-2.463-.586l-.434 2.031c.56.257 1.594.481 2.667.492 2.519 0 4.166-1.244 4.174-3.172m6.259 3.027h2.218l-1.936-9.269h-2.047c-.46 0-.848.268-1.021.68l-3.598 8.59h2.517l.5-1.385h3.076l.291 1.384zm-2.676-3.284l1.262-3.48.727 3.48h-1.989zm-10.088-5.985l-1.983 9.269h-2.398l1.984-9.269h2.397z" fill="#1E2B6D"/></svg>